<svg xmlns="http://www.w3.org/2000/svg" viewBox="0 0 16.96 149.11"><defs><style>.cls-1{fill:aqua;}</style></defs><title>akaddian-thingi</title><g id="Layer_2" data-name="Layer 2"><g id="Layer_2-2" data-name="Layer 2"><rect class="cls-1" x="7.98" y="15.64" width="1" height="133.47"/><path class="cls-1" d="M8.48,16.68a2.45,2.45,0,0,1-2.17-1.36L.34,4.08a2.9,2.9,0,0,1,0-2.72A2.45,2.45,0,0,1,2.51,0H14.45a2.45,2.45,0,0,1,2.17,1.36,2.9,2.9,0,0,1,0,2.72l-6,11.25A2.45,2.45,0,0,1,8.48,16.68ZM2.51,1a1.51,1.51,0,0,0-1.34.84,1.79,1.79,0,0,0,0,1.68l6,11.25a1.48,1.48,0,0,0,2.67,0l6-11.25a1.78,1.78,0,0,0,0-1.68A1.51,1.51,0,0,0,14.45,1Z"/></g></g></svg>