<svg xmlns="http://www.w3.org/2000/svg" viewBox="0 0 117.69 115.29"><defs><style>.cls-1{fill:#707070;}</style></defs><title>akkadian</title><g id="Layer_2" data-name="Layer 2"><g id="Layer_2-2" data-name="Layer 2"><path class="cls-1" d="M29.11,51.61a4.47,4.47,0,0,1-3.91-2.26L.61,6.78A4.52,4.52,0,0,1,4.53,0H53.68A4.52,4.52,0,0,1,57.6,6.78L33,49.35A4.47,4.47,0,0,1,29.11,51.61ZM4.53,3A1.52,1.52,0,0,0,3.21,5.28L27.79,47.85a1.52,1.52,0,0,0,2.63,0L55,5.28A1.52,1.52,0,0,0,53.68,3Z"/><path class="cls-1" d="M88.58,51.61a4.47,4.47,0,0,1-3.91-2.26L60.09,6.78a4.47,4.47,0,0,1,0-4.52A4.47,4.47,0,0,1,64,0h49.16a4.52,4.52,0,0,1,3.91,6.78L92.5,49.35A4.47,4.47,0,0,1,88.58,51.61ZM64,3a1.52,1.52,0,0,0-1.32,2.28L87.27,47.85a1.52,1.52,0,0,0,2.63,0L114.48,5.28A1.52,1.52,0,0,0,113.16,3Z"/><path class="cls-1" d="M88.58,103.78a4.47,4.47,0,0,1-3.91-2.26L60.09,59A4.52,4.52,0,0,1,64,52.17h49.16A4.52,4.52,0,0,1,117.08,59L92.5,101.52A4.47,4.47,0,0,1,88.58,103.78ZM64,55.17a1.52,1.52,0,0,0-1.32,2.28L87.27,100a1.52,1.52,0,0,0,2.63,0l24.58-42.57a1.52,1.52,0,0,0-1.32-2.28Z"/><rect class="cls-1" x="87.08" y="103.39" width="3" height="11.91"/><rect class="cls-1" x="27.61" y="50.87" width="3" height="62.3"/></g></g></svg>