<svg xmlns="http://www.w3.org/2000/svg" viewBox="0 0 525.34 55.15"><defs><style>.cls-1{fill:#707070;}</style></defs><title>arabic</title><g id="Layer_2" data-name="Layer 2"><g id="Layer_2-2" data-name="Layer 2"><path class="cls-1" d="M17.05,24.45a25.58,25.58,0,0,1,1.89,4.47c.38.92.59,2.63,2.43,2.63a3.9,3.9,0,0,0,2-.65A3.66,3.66,0,0,0,25,28.63l.74-2.9,1.78-1,.12.15a14,14,0,0,0-.3,3,3.12,3.12,0,0,0,3.2,3.35,1.41,1.41,0,0,0,1.57-1.36,19.76,19.76,0,0,0-.95-4.85,23.1,23.1,0,0,1,2.61-2.75l.15.09a30.63,30.63,0,0,1,.65,5.48,10.47,10.47,0,0,1-.92,3.79c-.86,1.89-2.37,3.4-4.2,3.4a5.12,5.12,0,0,1-4-2.34H25.4a5.89,5.89,0,0,1-5,2.78H19.6a12.64,12.64,0,0,1-1,4.5c-1.48,3.4-5.86,5.8-10,5.8C2.87,45.68,0,41.77,0,36.59A15.6,15.6,0,0,1,2.25,28.3l1.13.53A13.82,13.82,0,0,0,2,34.37c0,4.85,3.34,7.16,7.22,7.16,3.58,0,8-2.69,8.82-5.8-.3-3.4-1.39-5-3-8.11a20.86,20.86,0,0,1,2-3.17Z"/><path class="cls-1" d="M58.26,5.77a13.11,13.11,0,0,0,2.49,6.84,15,15,0,0,1-2,1.66c.15,3.82.36,8.53.36,12.34a23.45,23.45,0,0,1-1.45,8.7,10.29,10.29,0,0,1-3.37,3.32,11.74,11.74,0,0,1-6.19,1.86,7.9,7.9,0,0,1-6.16-2.55,10,10,0,0,1-2.1-6.69,17.55,17.55,0,0,1,2-7.46l1.07.41a13,13,0,0,0-1.24,5.15A7.19,7.19,0,0,0,43.14,34a6.18,6.18,0,0,0,5.12,2.4,9.88,9.88,0,0,0,5.12-1.42,7.43,7.43,0,0,0,3.23-2.78c.06-.62.09-1.24.09-1.84,0-4.47-.3-9.95-.77-16.55-.09-1.21-.27-2.58-.27-3.88a3.59,3.59,0,0,1,.62-2.34,9.38,9.38,0,0,1,1.78-1.87Z"/><path class="cls-1" d="M65.88,36.59a39.08,39.08,0,0,0,.33-5.92v-2.9c0-5.42-.59-13.29-1.07-18.41A26.88,26.88,0,0,1,68,6.22l.27.09c.62,6.45.77,13.94.77,20.84A47,47,0,0,1,68.87,32c-.09,1.63-.89,2.87-2.61,4.77Z"/><path class="cls-1" d="M81.63,31c-3.26,0-4.85,1.36-4.85,2.19,0,3.08,2.16,8.76,3.79,15a11.8,11.8,0,0,1,.36,2.63,17.83,17.83,0,0,1-.68,4.35l-.71-.09c-.06-3.49-2.43-9.44-4.32-15.63a14.1,14.1,0,0,1-.56-3.4,10.55,10.55,0,0,1,.77-3.91,7.82,7.82,0,0,1,2.66-3.85,24,24,0,0,1-.44-3.85,5.64,5.64,0,0,1,1.66-3.55A4.18,4.18,0,0,1,82,19.66,5.68,5.68,0,0,1,85.77,21a18.36,18.36,0,0,1,4.53,5.77,5,5,0,0,1,.38,1.89,7.66,7.66,0,0,1-1,3.14A52.91,52.91,0,0,0,81.63,31Zm5.92-3.37c-1.69-2.25-3.49-4.44-6.31-4.44a5.54,5.54,0,0,0-1.81.33L79.53,25a15,15,0,0,1-.74,2.84,13.26,13.26,0,0,1,4-.53,24.2,24.2,0,0,1,4.62.59Z"/><path class="cls-1" d="M99.13,36.59A4.74,4.74,0,0,1,95,31.76c0-3.49,3.2-5.42,6.07-6.22l.47,1.33C99.27,27.77,98,29,98,30.58s1.21,2.6,2.87,3c.21,0,.53.38.53,1.15a2.06,2.06,0,0,1-2.22,1.87Z"/><path class="cls-1" d="M136.41,37.27c-8.2,0-14.5-3-14.5-10.3a14.87,14.87,0,0,1,1.75-7.16l1.18.5a14.56,14.56,0,0,0-.86,4.5c0,6,5.89,8.44,13.32,8.44A44.32,44.32,0,0,0,147.42,32a23.15,23.15,0,0,0,3.91-1.21c.24-.09.3-.24.3-.33,0-1.39-1.42-4.29-3-7.31a23.38,23.38,0,0,1,2.22-3.34H151c1.36,2.4,3,6.1,3,9a8.76,8.76,0,0,1-1.57,4.94C149.85,35.32,142.27,37.27,136.41,37.27Zm1,5.3A26.74,26.74,0,0,1,141,45.74a12,12,0,0,1-2.46,2.9c-1.15-1.1-2.31-2-3.49-3C135.85,44.52,136.65,43.49,137.45,42.57Z"/><path class="cls-1" d="M164.45,16.58l.41-.15c1.83,1.72,7.4,5.12,8.41,8.47a10.47,10.47,0,0,1,.44,3.32,10.15,10.15,0,0,1-1.6,5.51A8.16,8.16,0,0,1,166,36.44a6.32,6.32,0,0,1-3.55-.89c-2.07-1.33-3-3.7-3-6.57a12.27,12.27,0,0,1,1.81-5.68,18.42,18.42,0,0,1,2.93-3.76A20.07,20.07,0,0,1,164.45,16.58Zm-3.23,11.93c0,2.19,2.4,4,4.94,4a7.73,7.73,0,0,0,4.62-1.6,2.5,2.5,0,0,0,1.3-2,6.13,6.13,0,0,0-1.6-3.23,17.33,17.33,0,0,0-4.77-3.85C162.94,24.1,161.23,26.29,161.23,28.51Z"/><path class="cls-1" d="M205.62.15a17.71,17.71,0,0,1-.86,2.22,6.18,6.18,0,0,1-4.14,1.42c-1.87,0-4-.5-5.48-.5-.47,0-1,1.07-1.66,2.28h-.21l-1-1.81c0-1.39.59-3.29,2.69-3.29s4.17.89,6.42.89a6.45,6.45,0,0,0,2.43-.41A6.78,6.78,0,0,0,205.47,0Zm-7.87,36.44a39,39,0,0,0,.33-5.92v-2.9c0-5.42-.59-13.29-1.07-18.41a27,27,0,0,1,2.9-3.14l.27.09c.62,6.45.77,13.94.77,20.84a46.72,46.72,0,0,1-.21,4.88c-.09,1.63-.89,2.87-2.6,4.77Z"/><path class="cls-1" d="M231.46,24.75c-.56-2.52-1.42-3.7-2.25-3.7a8.72,8.72,0,0,0-4.71,2.1c-1.66,1.3-2.9,2.75-2.9,3.82,0,2.63,7.7,2.31,9.77,4a4.12,4.12,0,0,1,1.3,3.32,9.09,9.09,0,0,1-2.43,5.48c-2.9,2.72-7.43,4.91-11.43,4.91-6.9,0-10.24-4.65-10.24-10.86a18,18,0,0,1,1.57-7.31l1.15.38a16.51,16.51,0,0,0-.92,5.18c0,5.59,3.82,8.61,8.7,8.61a17.41,17.41,0,0,0,8-2.46c1.89-1.12,3.67-2.52,3.67-3,0-.89-2.16-1.57-4.62-1.92s-4.65-.95-5.42-1.81a3.8,3.8,0,0,1-1.09-2.66,10.82,10.82,0,0,1,3.29-7.61c2.07-2.13,5.3-4.2,7.34-4.2a2.3,2.3,0,0,1,2.16,1.57,6.77,6.77,0,0,1,.71,2.78,11.31,11.31,0,0,1-1.21,3.29Z"/><path class="cls-1" d="M256.33,18.95a25,25,0,0,1,3.17,12.14c0,3-.92,6.31-2.1,7.55a14.29,14.29,0,0,1-9.86,4.5c-5.57,0-9.09-3.7-9.09-9A15.71,15.71,0,0,1,241,25.55l1.12.62a13.73,13.73,0,0,0-1.66,5.54,6.56,6.56,0,0,0,2,5.15,8.44,8.44,0,0,0,5.59,2,12.87,12.87,0,0,0,7.16-2.58c1.3-1,2-1.89,2-2.46a17.66,17.66,0,0,0-.92-5.24,25.16,25.16,0,0,0-2.49-5.83c.71-1.24,1.42-2.49,2.28-3.73Zm-8.05-9.56a26.78,26.78,0,0,1,3.55,3.17,12,12,0,0,1-2.46,2.9c-1.15-1.1-2.31-2-3.49-3C246.68,11.34,247.48,10.3,248.28,9.38Z"/><path class="cls-1" d="M266.14,28c.09,2.55,1.16,4.56,4.86,4.56a12.66,12.66,0,0,0,6.42-1.92c.39-.21.59-.47.59-.71,0-1.6-1-3.7-2.78-5.62a22.5,22.5,0,0,0-6-4.47c-.71-.36-.95-.74-.95-1.1a9.5,9.5,0,0,1,1.51-3.37l.24,0a29.1,29.1,0,0,1,7.08,6.13c1.81,2.25,2.93,4.53,2.93,7a11.92,11.92,0,0,1-1.24,5.18,16.63,16.63,0,0,1-8.23,2.75c-3.37,0-5.68-1.87-5.68-6.25A13.26,13.26,0,0,1,265,28Z"/><path class="cls-1" d="M290.44,16.58l.41-.15c1.83,1.72,7.4,5.12,8.41,8.47a10.47,10.47,0,0,1,.44,3.32,10.15,10.15,0,0,1-1.6,5.51A8.16,8.16,0,0,1,292,36.44a6.32,6.32,0,0,1-3.55-.89c-2.07-1.33-3-3.7-3-6.57a12.27,12.27,0,0,1,1.81-5.68,18.42,18.42,0,0,1,2.93-3.76A20.07,20.07,0,0,1,290.44,16.58Zm-3.23,11.93c0,2.19,2.4,4,4.94,4a7.73,7.73,0,0,0,4.62-1.6,2.5,2.5,0,0,0,1.3-2,6.13,6.13,0,0,0-1.6-3.23,17.33,17.33,0,0,0-4.77-3.85C288.93,24.1,287.22,26.29,287.22,28.51Z"/><path class="cls-1" d="M334.3,26.41a21.27,21.27,0,0,0-8.23-1.66,4.75,4.75,0,0,0-3.76,1.48l.59,2.49-.83,2.34-.33.09L320,26.46c.24-3.29,2.87-5.33,6.42-5.33,2,0,5.12.71,9.71,2.58a13.29,13.29,0,0,0,5.06.95l2.61,0,0,.06-1.78,3a49.76,49.76,0,0,0-7.9,2c-6.48,2.43-11,5.92-11,9.86,0,6.16,6.51,9.71,14.77,9.71a48.2,48.2,0,0,0,7.61-.65l.09.3a35.76,35.76,0,0,1-4.83,3.52,30.17,30.17,0,0,1-5.59.53c-7.79,0-14.27-3.79-14.27-12,0-7,6-12.64,13.32-14.39Zm-4-15.51a26.8,26.8,0,0,1,3.55,3.17,12,12,0,0,1-2.46,2.9c-1.16-1.1-2.31-2-3.49-3C328.74,12.85,329.54,11.81,330.34,10.89Z"/><path class="cls-1" d="M358.34,33c-3.46,0-6.45-1.63-6.45-5.56a8.12,8.12,0,0,1,1.89-5.09c1.36-1.48,2.84-2.46,4.23-2.46,1.72,0,3.32,1.21,4.47,3.34a17,17,0,0,1,1.89,8.14,14,14,0,0,1-2.25,7.79c-2.63,4-5.15,5.62-7.61,5.62a15,15,0,0,1-8.5-2.9l.44-.95a9.23,9.23,0,0,0,4.32,1c3,0,6-1.51,8.7-4.53a9.74,9.74,0,0,0,2.78-4.94A14.68,14.68,0,0,1,358.34,33ZM357,23.59c-1.39,0-3.32,1.54-3.32,2.63,0,1.84,2.61,3.14,5,3.14A14,14,0,0,0,362.1,29C361.3,26,359.59,23.59,357,23.59Z"/><path class="cls-1" d="M386.38,24.45a25.66,25.66,0,0,1,1.89,4.47c.38.92.59,2.63,2.43,2.63a3.9,3.9,0,0,0,2-.65,3.66,3.66,0,0,0,1.66-2.28l.74-2.9,1.78-1,.12.15a14.11,14.11,0,0,0-.3,3,3.12,3.12,0,0,0,3.2,3.35,1.41,1.41,0,0,0,1.57-1.36,19.76,19.76,0,0,0-.95-4.85,23.1,23.1,0,0,1,2.61-2.75l.15.09a30.63,30.63,0,0,1,.65,5.48,10.47,10.47,0,0,1-.92,3.79c-.86,1.89-2.37,3.4-4.2,3.4a5.12,5.12,0,0,1-4-2.34h-.06a5.89,5.89,0,0,1-5,2.78h-.77a12.64,12.64,0,0,1-1,4.5c-1.48,3.4-5.86,5.8-10,5.8-5.74,0-8.61-3.91-8.61-9.09a15.6,15.6,0,0,1,2.25-8.29l1.13.53a13.82,13.82,0,0,0-1.42,5.54c0,4.85,3.34,7.16,7.22,7.16,3.58,0,8-2.69,8.82-5.8-.3-3.4-1.39-5-3-8.11a20.86,20.86,0,0,1,2-3.17Zm6-4.26c-1.21-1.15-2.28-2.1-3.46-3.08a26.71,26.71,0,0,1,2.34-2.81,27.93,27.93,0,0,1,3.37,3.17A15.73,15.73,0,0,1,392.39,20.19Zm1.6-6.31c-1.21-1.15-2.28-2.1-3.46-3.08A26.71,26.71,0,0,1,392.87,8a27.93,27.93,0,0,1,3.37,3.17A15.73,15.73,0,0,1,394,13.88Zm4.12,5.92c-1.21-1.15-2.28-2.1-3.46-3.08A26.71,26.71,0,0,1,397,13.91a27.9,27.9,0,0,1,3.38,3.17A15.73,15.73,0,0,1,398.1,19.8Z"/><path class="cls-1" d="M435.87.15A17.71,17.71,0,0,1,435,2.37a6.18,6.18,0,0,1-4.14,1.42c-1.87,0-4-.5-5.48-.5-.47,0-1,1.07-1.66,2.28h-.21l-1-1.81c0-1.39.59-3.29,2.69-3.29s4.17.89,6.42.89a6.45,6.45,0,0,0,2.43-.41A6.78,6.78,0,0,0,435.72,0ZM428,36.59a39,39,0,0,0,.33-5.92v-2.9c0-5.42-.59-13.29-1.07-18.41a27,27,0,0,1,2.9-3.14l.27.09c.62,6.45.77,13.94.77,20.84A46.72,46.72,0,0,1,431,32c-.09,1.63-.89,2.87-2.6,4.77Z"/><path class="cls-1" d="M445.76,31c-3.26,0-4.85,1.36-4.85,2.19,0,3.08,2.16,8.76,3.79,15A11.8,11.8,0,0,1,445,50.8a17.83,17.83,0,0,1-.68,4.35l-.71-.09c-.06-3.49-2.43-9.44-4.32-15.63a14.1,14.1,0,0,1-.56-3.4,10.55,10.55,0,0,1,.77-3.91,7.82,7.82,0,0,1,2.66-3.85,24,24,0,0,1-.44-3.85,5.64,5.64,0,0,1,1.66-3.55,4.18,4.18,0,0,1,2.75-1.21A5.68,5.68,0,0,1,449.9,21a18.36,18.36,0,0,1,4.53,5.77,5,5,0,0,1,.38,1.89,7.66,7.66,0,0,1-1,3.14A52.91,52.91,0,0,0,445.76,31Zm5.92-3.37c-1.69-2.25-3.49-4.44-6.31-4.44a5.54,5.54,0,0,0-1.81.33l.09,1.54a15,15,0,0,1-.74,2.84,13.26,13.26,0,0,1,4-.53,24.2,24.2,0,0,1,4.62.59Z"/><path class="cls-1" d="M461.36,28c.09,2.55,1.16,4.56,4.86,4.56a12.66,12.66,0,0,0,6.42-1.92c.38-.21.59-.47.59-.71,0-1.6-1-3.7-2.78-5.62a22.5,22.5,0,0,0-6-4.47c-.71-.36-.95-.74-.95-1.1A9.5,9.5,0,0,1,465,15.39l.24,0a29.1,29.1,0,0,1,7.08,6.13c1.81,2.25,2.93,4.53,2.93,7A11.92,11.92,0,0,1,474,33.69a16.63,16.63,0,0,1-8.23,2.75c-3.37,0-5.68-1.87-5.68-6.25a13.26,13.26,0,0,1,.15-2.16Z"/><path class="cls-1" d="M503.19,24.75c-.56-2.52-1.42-3.7-2.25-3.7a8.72,8.72,0,0,0-4.71,2.1c-1.66,1.3-2.9,2.75-2.9,3.82,0,2.63,7.7,2.31,9.77,4a4.12,4.12,0,0,1,1.3,3.32A9.09,9.09,0,0,1,502,39.76c-2.9,2.72-7.43,4.91-11.43,4.91-6.9,0-10.24-4.65-10.24-10.86a18,18,0,0,1,1.57-7.31l1.15.38a16.51,16.51,0,0,0-.92,5.18c0,5.59,3.82,8.61,8.7,8.61a17.41,17.41,0,0,0,8-2.46c1.89-1.12,3.67-2.52,3.67-3,0-.89-2.16-1.57-4.62-1.92s-4.65-.95-5.42-1.81a3.8,3.8,0,0,1-1.09-2.66,10.82,10.82,0,0,1,3.29-7.61c2.07-2.13,5.3-4.2,7.34-4.2a2.3,2.3,0,0,1,2.16,1.57,6.77,6.77,0,0,1,.71,2.78,11.31,11.31,0,0,1-1.21,3.29Z"/><path class="cls-1" d="M511.49,28c.09,2.55,1.16,4.56,4.86,4.56a12.66,12.66,0,0,0,6.42-1.92c.39-.21.59-.47.59-.71,0-1.6-1-3.7-2.78-5.62a22.5,22.5,0,0,0-6-4.47c-.71-.36-.95-.74-.95-1.1a9.5,9.5,0,0,1,1.51-3.37l.24,0a29.1,29.1,0,0,1,7.08,6.13c1.81,2.25,2.93,4.53,2.93,7a11.92,11.92,0,0,1-1.24,5.18,16.63,16.63,0,0,1-8.23,2.75c-3.37,0-5.68-1.87-5.68-6.25a13.26,13.26,0,0,1,.15-2.16Z"/></g></g></svg>