<svg xmlns="http://www.w3.org/2000/svg" viewBox="0 0 155.86 99.14"><defs><style>.cls-1{fill:aqua;}</style></defs><title>audio-wave</title><g id="Layer_2" data-name="Layer 2"><g id="Layer_2-2" data-name="Layer 2"><path class="cls-1" d="M89.16,99.14c-2,0-2.77-3.47-5-35.34-.73-10.54-1.61-23.24-2.46-27.95-.72,3.3-1.37,10.59-1.87,16.22C78.44,67.92,78,70.3,76.16,70.3s-2.23-2.13-4-28.74c-.65-9.6-1.5-22.13-2.36-27.12-1.08,5.55-2.4,20.53-3.4,32-2.61,29.72-3,30.75-4.62,30.75s-2.27-2.26-4.42-16.09c-.77-5-1.79-11.54-2.58-13.84a50.48,50.48,0,0,0-2,6.61c-1.49,5.86-2.28,8.67-4,8.67s-2.3-2.72-3.83-14.34c-.54-4.09-1.24-9.42-1.89-11.73-1.06,2.91-2.71,10.8-3.85,16.3-3,14.61-3.48,15.68-4.85,15.68-1.52,0-1.93-1.88-3-9.91-.34-2.62-.83-6.28-1.31-8.11-.26,1-.51,2.53-.7,3.66-.67,4.16-1.26,7.75-3.52,7.75-2,0-2.84-2.35-3.63-4.62C21.8,56.07,21.08,54,20.54,54c-.77,0-1.72,1-2.64,1.95-1.31,1.37-2.81,2.93-4.84,2.93H1a1,1,0,0,1,0-2H13.05c1.19,0,2.31-1.17,3.4-2.31S18.91,52,20.54,52c2,0,2.76,2.3,3.54,4.53.43,1.22,1.14,3.27,1.74,3.27.62-.4,1.22-4.08,1.54-6.07.61-3.73,1-6.2,2.7-6.22h0c1.64,0,2.11,2.2,3.24,10.74.29,2.23.66,5,1,6.79.79-2.71,1.92-8.13,2.87-12.7,3.36-16.14,4.18-18.77,5.85-18.77s2.3,2.72,3.83,14.34c.56,4.29,1.31,9.95,2,12a50.48,50.48,0,0,0,2-6.61c1.49-5.86,2.28-8.67,4-8.67s2.27,2.26,4.42,16.09c.67,4.34,1.53,9.89,2.26,12.76.84-4.81,1.91-17.08,2.81-27.29,2.85-32.53,3.53-35.6,5.4-35.6s2.44,2.65,4.35,30.79c.63,9.26,1.38,20.35,2.12,25,.6-3.27,1.17-9.61,1.61-14.56,1.47-16.6,2.07-19.52,4-19.52s2.35,2.51,4.34,31.28C86.94,74.79,87.95,89.31,89,95c.8-7.2,1-28.13,1.17-45.46.46-47.45,1-49.56,3-49.56s2.58,3.25,3.54,37.76c.39,14.1.87,31.26,1.85,36.31.71-3,1-10.44,1.29-16.15.68-15.27,1.19-19.4,3.48-19.4s3.24,4.46,4.73,15.42c.54,4,1.26,9.25,2,10.94.71-1.39,1.45-5.61,1.92-8.26,1.14-6.48,1.77-9.6,3.67-9.6s2.69,2.95,3.66,6.67c.48,1.85,1.37,5.3,2.07,5.63.72,0,2.34-2.56,3.3-4.08,1.59-2.51,3-4.68,4.67-4.68S132,52,132.84,53.16s1.41,1.9,2.17,1.9h19.85a1,1,0,0,1,0,2H135c-1.85,0-2.93-1.52-3.8-2.75-.64-.9-1.24-1.74-1.87-1.74s-2.16,2.46-3,3.75c-1.63,2.57-3.17,5-5.05,5-2.1,0-3-3.3-3.95-7.11a23.69,23.69,0,0,0-1.64-5c-.63,1.18-1.32,5.08-1.79,7.75-1.18,6.74-1.89,10.25-4,10.25s-2.53-3.18-3.87-13c-.61-4.46-1.6-11.71-2.65-13.43-.91,2.16-1.31,11.13-1.58,17.22-.67,15.07-1.17,19.15-3.42,19.15s-2.72-3.63-3.72-39.34C94.38,25.75,94,11.35,93.25,4.95c-.73,7.87-.92,27.92-1.08,44.63C91.71,97,91.12,99.14,89.16,99.14Z"/></g></g></svg>