<svg xmlns="http://www.w3.org/2000/svg" viewBox="0 0 718.18 73.13"><defs><style>.cls-1{fill:#707070;}</style></defs><title>chinese</title><g id="Layer_2" data-name="Layer 2"><g id="Layer_2-2" data-name="Layer 2"><path class="cls-1" d="M2.38,44.29A58.82,58.82,0,0,1,.3,35.08a2.24,2.24,0,0,1-.3-.89A124.78,124.78,0,0,0,15.75,0l8.32,2.08Q20.8,11,17.24,19.32V71h-8V33.89A105,105,0,0,1,2.38,44.29Zm64.21-14a4.48,4.48,0,0,1-1.78-.59q-4.17-.89-5.95-1.19L63,17.84H35.67A109.93,109.93,0,0,1,27.35,32.1a58.13,58.13,0,0,0-6.24-5.35A81.12,81.12,0,0,0,34.18.59l8.32,1.19q-1.78,4.76-3.57,8.62H71v7.13Zm-38,30q-3-1.48-7.43-3.27A221.35,221.35,0,0,0,31.51,32.4l7.13,2.38Q35.08,45.19,28.54,60.34ZM32.4,70.45a77.34,77.34,0,0,0-1.49-7.73h7.73q4.75.29,4.46-4.16V23.19h8V60.34q.29,9.81-9.51,9.81-1.19,0-4.46.3ZM64.8,60a23.78,23.78,0,0,0-1.19-3.27Q58.26,42.51,55,35.08l7.43-2.38q4.16,10.41,10.11,24.67Z"/><path class="cls-1" d="M81.15,70.75q-2.38-2.38-5.35-5.94Q84.72,58.27,89.18,52q-3.27-2.68-9.51-8.32l-.89-.89q1.48-6.24,4.46-21.11H77V14.27h7.43q.89-7.13,1.78-14l8,.59Q93.93,3.27,93,8.32q-.6,4.17-.89,5.94h12.48V21.7q-1.19,19-6.24,28.54,5.94,5.06,11.3,9.51l-5.95,5.35q-1.49-1.49-5.05-4.46Q96,58.27,94.53,57.07,90.36,63,81.15,70.75Zm5.65-30,5.95,4.76Q96.6,36.56,97.5,21.7H91q-.89,3.87-2.38,11Zm20.51-.89V32.4h17.24V23.48l11.89-11.89H110V4.16h36.27v8L132.88,25.86V32.4h15.46v7.43H132.88V60.34q.29,9.81-10.11,9.81H113a12.84,12.84,0,0,0-.3-2.08q-.89-4.17-1.19-5.35h8.32q5.05,0,4.76-4.76V39.83Z"/><path class="cls-1" d="M166.47,73.13l-2.68-3.57q7.43-4.76,7.13-11.59H165V47h11v9.81Q176.27,67.48,166.47,73.13Z"/><path class="cls-1" d="M251.78,60a115,115,0,0,0-6.54-10.4,80.42,80.42,0,0,1-12.78,17.84c-.4-.59-.89-1.39-1.49-2.38-1.39-2-2.38-3.46-3-4.46q8.92-9.81,12.78-18.43-5.65-8.92-11.59-18.43l5.95-3.57q4.46,7.13,8.92,13.67a75.25,75.25,0,0,0,3.86-19H229.78V7.43h25.56v7.43q-1.78,16.05-6.24,26.75l8.92,14Zm3.86,11.3a25.43,25.43,0,0,1-2.38-3A44.92,44.92,0,0,0,250,64.51Q269.32,54.1,271.7,36a99.4,99.4,0,0,0,.89-14H280v7.73Q283,52.91,301.12,63a16.65,16.65,0,0,0-1.49,1.78,58.24,58.24,0,0,0-3.86,5.65q-14.87-10.7-19-25.56Q273.48,59.75,255.64,71.34Zm38-39.83a27.67,27.67,0,0,0-6.24-1.78,2.37,2.37,0,0,0-.89-.3l5.05-11.89H268.43q-3,7.43-6.54,15.16a44.44,44.44,0,0,0-7.13-3.86A104.92,104.92,0,0,0,265.75,0l7.73,1.49q-1.19,4.46-2.68,8.92H299v7.13Z"/><path class="cls-1" d="M307.66,70.75l-3.27-8q4.16-3.86,8-7.73V33H305V25.27h14.86V55q4.46,7.73,15.46,7.73,18.43.29,41.62,0a21.58,21.58,0,0,0-2.38,7.13q-7.73,0-20.21-.3-14,0-20.81-.3-11.59-.3-16.94-8a40.3,40.3,0,0,0-6.24,6.54C309.15,69.16,308.26,70.15,307.66,70.75Zm8-52q-4.76-8-9.22-14.27L313,.59q2.67,3.27,7.13,10.11,1.78,2.68,2.68,3.86ZM330,54.7,325.8,49a6.16,6.16,0,0,0,2.38-5.35V6.24a23.1,23.1,0,0,0,3.27-1.19A69.48,69.48,0,0,0,343.63.59l4.46,6.24a11,11,0,0,1-1.49.59q-7.13,2.68-11,3.86V43.1a51.61,51.61,0,0,1,4.76-2.38q3-1.48,4.46-2.08a39.78,39.78,0,0,0,.3,4.16v3.57q-6,2.67-11.3,5.35a11,11,0,0,0-2.68,2.08A9.13,9.13,0,0,0,330,54.7Zm18.13,5.65V5.94h25.56V43.4q.29,8-7.43,8.62-3.57,0-7.13.3l-1.78-7.13h5.05q3.86,0,3.86-3.27V12.78h-10.7V60.34Z"/><path class="cls-1" d="M385.55,16.35V9.21H412.6V0h8.32V9.21H448v7.13H420.92V34.48h30.92v7.13H424.19Q434.89,53.21,453,59.15a6.34,6.34,0,0,1-1.19,1.49q-2.38,3.57-3.57,5.65-18.44-7.43-27.35-18.73V71.34H412.6V47.26Q403.38,58.86,385,67.18a43.07,43.07,0,0,0-4.76-6.84A72.15,72.15,0,0,0,409,41.62H381.68V34.48H412.6V16.35Zm14,17.24q-4.46-5.94-9.21-11.3L396,17.84a103.81,103.81,0,0,1,9.81,10.7Zm33,.3-5.65-5.05a95.29,95.29,0,0,0,10.7-11.3l5.95,4.76Z"/><path class="cls-1" d="M458.67,48.75V41.62h15.16V34.18h7.73v7.43h14.86v7.13H481.56v10.7l16.65-1.78a58.8,58.8,0,0,0-.3,6.84q-4.76.59-14.27,1.49-16.35,1.78-25.56,3l-1.19-7.43q4.75-.29,15.16-1.19-7.13.6,1.78-.3V48.75ZM457.78,11V3.86h40.13V11H478.59a13.17,13.17,0,0,1-1.19,1.78q-5.35,8.33-8.62,12.49,3.27-.29,10.4-.59,4.46-.29,6.84-.3a57,57,0,0,0-4.46-6.84l5.95-3.27a25.89,25.89,0,0,0,2.08,3.27q6.54,9.52,9.22,14l-6.24,3.86a32.6,32.6,0,0,1-2.38-4.46q-16.35.6-22.89,1.19a25.14,25.14,0,0,0-4.46.59,12.42,12.42,0,0,1-2.08.3l-2.68-6.84a15.49,15.49,0,0,0,3.27-2.38A110.43,110.43,0,0,0,470,11Zm44,42.21V8.32h7.43V53.21Zm3,16.94a49.31,49.31,0,0,0-1.49-7.43h9.81q4.75,0,4.46-4.76V.59h8V60q.59,9.81-9.51,10.11Z"/><path class="cls-1" d="M538,19V11.59h26.75V.3h8.32v11.3h26.75V19H573.12V30H604v7.73H576.68q10.1,13.68,28.24,21.11Q604,60,602.55,62.42L599.87,66q-18.73-9.21-26.75-22.59V71.34h-8.32V43.4a65.17,65.17,0,0,1-27.05,23.48,46.89,46.89,0,0,0-3.57-4.76A12.71,12.71,0,0,1,533,60.34q19-9.51,28.24-22.59H533.58V30h31.21V19Z"/><path class="cls-1" d="M613.84,16.35V9.21h27.05V0h8.32V9.21h27.05v7.13H649.22V34.48h30.92v7.13H652.49q10.7,11.59,28.83,17.54a6.34,6.34,0,0,1-1.19,1.49q-2.38,3.57-3.57,5.65-18.44-7.43-27.35-18.73V71.34h-8.32V47.26q-9.22,11.59-27.65,19.92a43.07,43.07,0,0,0-4.76-6.84,72.15,72.15,0,0,0,28.83-18.73H610V34.48h30.92V16.35Zm14,17.24q-4.46-5.94-9.21-11.3l5.65-4.46a103.81,103.81,0,0,1,9.81,10.7Zm33,.3-5.65-5.05a95.29,95.29,0,0,0,10.7-11.3l5.95,4.76Z"/><path class="cls-1" d="M694.1,58.26Q695,47,706.29,46.08q11,.89,11.89,12.19-1.19,10.1-11.89,11.3Q695.29,68.67,694.1,58.26Zm4.76,0q.59,6,7.43,6.54,6.53-.6,7.13-6.54-.6-6.83-7.13-7.43Q699.45,51.43,698.86,58.26Z"/></g></g></svg>