<svg xmlns="http://www.w3.org/2000/svg" viewBox="0 0 99.3 99.3"><defs><style>.cls-1{fill:aqua;}</style></defs><title>clock-icon</title><g id="Layer_2" data-name="Layer 2"><g id="Layer_2-2" data-name="Layer 2"><path class="cls-1" d="M49.65,0A49.63,49.63,0,1,0,99.3,49.65,49.53,49.53,0,0,0,49.65,0ZM78.32,81.64A42.82,42.82,0,0,1,53,92.5V86a3.32,3.32,0,1,0-6.63,0V92.5c-1.12-.09-2.22-.22-3.32-.39A43,43,0,0,1,7.19,56.28C7,55.19,6.89,54.09,6.8,53h6.46a3.32,3.32,0,0,0,0-6.63H6.8A43.05,43.05,0,0,1,46.33,6.8v6.46a3.32,3.32,0,0,0,6.63,0V6.8A43,43,0,0,1,92.5,46.34H86A3.32,3.32,0,1,0,86,53H92.5A42.89,42.89,0,0,1,78.32,81.64Z"/><path class="cls-1" d="M84.52,33.76A1.65,1.65,0,0,0,82.31,33L53.65,46.72a4.94,4.94,0,0,0-8.42.68L29.61,42.91a1.66,1.66,0,1,0-.91,3.19L42.36,50l2.44.7a5,5,0,0,0,4.85,3.9A5.07,5.07,0,0,0,54,51.95a5,5,0,0,0,.57-2L81.24,37.17l2.5-1.2A1.66,1.66,0,0,0,84.52,33.76Z"/></g></g></svg>