<svg xmlns="http://www.w3.org/2000/svg" viewBox="0 0 36.97 26.99"><defs><style>.cls-1{fill:#2b2b2b;}</style></defs><title>email-icon</title><g id="Layer_2" data-name="Layer 2"><g id="Layer_2-2" data-name="Layer 2"><polygon class="cls-1" points="0 5.69 0 23.96 10.99 14.82 0 5.69"/><path class="cls-1" d="M34.05,0H2.92A2.93,2.93,0,0,0,0,2.42L14.57,14.5l2.42,2a2.43,2.43,0,0,0,3,0l2.54-2.12,14.4-12A2.93,2.93,0,0,0,34.05,0Z"/><polygon class="cls-1" points="36.97 23.96 36.97 5.69 25.98 14.82 36.97 23.96"/><path class="cls-1" d="M21.95,18.18l-2,1.64a2.44,2.44,0,0,1-3,0l-2.54-2.11L13,16.47,1.1,26.35A2.9,2.9,0,0,0,2.92,27H34.05a2.9,2.9,0,0,0,1.82-.64L24,16.47Z"/></g></g></svg>