<svg xmlns="http://www.w3.org/2000/svg" viewBox="0 0 39.83 39.83"><defs><style>.cls-1,.cls-2{fill:#2b2b2b;}.cls-2{fill-rule:evenodd;}</style></defs><title>facebook-icon</title><g id="Layer_2" data-name="Layer 2"><g id="Layer_2-2" data-name="Layer 2"><path class="cls-1" d="M19.92,0A19.92,19.92,0,1,1,5.83,5.83,19.84,19.84,0,0,1,19.92,0Zm13,6.94a18.38,18.38,0,1,0,5.37,13,18.35,18.35,0,0,0-5.37-13Z"/><path class="cls-2" d="M21.44,15.85V14.21a.85.85,0,0,1,.89-1h2.28V9.76H21.47A4,4,0,0,0,17.19,14v1.83h-2v4.07h2.05V30.08h4.07V19.92h3l.13-1.6.24-2.47Z"/></g></g></svg>