<svg xmlns="http://www.w3.org/2000/svg" viewBox="0 0 531.05 43.91"><defs><style>.cls-1{fill:#707070;}</style></defs><title>georgian</title><g id="Layer_2" data-name="Layer 2"><g id="Layer_2-2" data-name="Layer 2"><path class="cls-1" d="M38.84,11.91a6.09,6.09,0,0,0-4.95,2.34,7.62,7.62,0,0,0-1.3,2.55A11,11,0,0,0,32.15,20V33.12H28.69V20a8.61,8.61,0,0,0-.6-3.24,8.2,8.2,0,0,0-1.59-2.55,7.32,7.32,0,0,0-2.31-1.68,6.45,6.45,0,0,0-2.74-.61h-.37A10.89,10.89,0,0,1,22.57,13a7.19,7.19,0,0,1,1.17,1.32,6.06,6.06,0,0,1,.76,1.55,5.76,5.76,0,0,1,.27,1.79,4.35,4.35,0,0,1-.92,2.65,5.66,5.66,0,0,1-1.28,1.19,7.16,7.16,0,0,1-2,.92,6.17,6.17,0,0,1,1.94.76,4.71,4.71,0,0,1,1.29,1.17,4.35,4.35,0,0,1,.71,1.49,6.8,6.8,0,0,1,.22,1.73,5,5,0,0,1-.6,2.46,6,6,0,0,1-1.52,1.81,7.06,7.06,0,0,1-4.25,1.52,8.71,8.71,0,0,1-4.23-1,8.32,8.32,0,0,1-2.85-2.51,10.65,10.65,0,0,1-1.61-3.53,16.06,16.06,0,0,1-.51-4,12.68,12.68,0,0,1,.4-3.24,11.92,11.92,0,0,1,1.14-2.84,12.4,12.4,0,0,1,1.73-2.38A12.86,12.86,0,0,1,14.68,12l-.84-.08-.76,0a12,12,0,0,0-4.38.78,10.68,10.68,0,0,0-3.45,2.13A9.67,9.67,0,0,0,2.17,22a14.73,14.73,0,0,0,.27,2.85,10.58,10.58,0,0,0,.87,2.6,9.12,9.12,0,0,0,1.56,2.25,9.55,9.55,0,0,0,2.37,1.81l-.61,1-.42.67a2.07,2.07,0,0,0-.16.28,12,12,0,0,1-2.77-2.14A11.21,11.21,0,0,1,1.4,28.6,12.14,12.14,0,0,1,.34,25.55,16.62,16.62,0,0,1,0,22.17a12.35,12.35,0,0,1,1-5,11.76,11.76,0,0,1,2.78-3.93A12.69,12.69,0,0,1,8,10.65a14.48,14.48,0,0,1,5.19-.91,15.7,15.7,0,0,1,2.28.17,15.13,15.13,0,0,1,2.35.54,14.57,14.57,0,0,1,2.09-.53A12.34,12.34,0,0,1,22,9.74a11.37,11.37,0,0,1,2.49.28,11.74,11.74,0,0,1,2.45.84,10.49,10.49,0,0,1,2.24,1.44,11.16,11.16,0,0,1,1.89,2A8.39,8.39,0,0,1,34.2,11a8.63,8.63,0,0,1,2.14-.92,8.83,8.83,0,0,1,2.39-.32,11.29,11.29,0,0,1,4.18.74,10.75,10.75,0,0,1,3.27,2,11.32,11.32,0,0,1,2.34,2.94A13.54,13.54,0,0,1,49.88,19a9.91,9.91,0,0,1,2.63,1.69A10.28,10.28,0,0,1,54.46,23a11.33,11.33,0,0,1,1.21,2.83A11.64,11.64,0,0,1,56.1,29a14.17,14.17,0,0,1-1,5.41,11,11,0,0,1-2.57,3.85,10.69,10.69,0,0,1-3.75,2.32,13,13,0,0,1-4.49.78A11.81,11.81,0,0,1,41,40.93a14.68,14.68,0,0,1-2.77-1.09,12.68,12.68,0,0,1-2.12-1.37,9.33,9.33,0,0,1-1.34-1.29l1.54-1.49q.3.32.94.92a9.3,9.3,0,0,0,1.63,1.18,11.22,11.22,0,0,0,2.36,1,10.47,10.47,0,0,0,3.1.42,7.44,7.44,0,0,0,3.64-1,9.18,9.18,0,0,0,1.75-1.32A7.94,7.94,0,0,0,51.25,35a11.12,11.12,0,0,0,1-2.61A13.41,13.41,0,0,0,52.63,29,10.75,10.75,0,0,0,52,25.1a8,8,0,0,0-1.72-2.74,18.44,18.44,0,0,1-.48,4.28,11.16,11.16,0,0,1-1.44,3.5,7.35,7.35,0,0,1-2.44,2.37,6.65,6.65,0,0,1-3.46.88,6.81,6.81,0,0,1-2.62-.51,6.54,6.54,0,0,1-2.15-1.43,6.81,6.81,0,0,1-1.46-2.21,7.27,7.27,0,0,1-.54-2.85,7.85,7.85,0,0,1,2.62-5.92,9.18,9.18,0,0,1,3-1.79A11.08,11.08,0,0,1,45.18,18h.49l.49,0a11.37,11.37,0,0,0-1.08-2.45,8.49,8.49,0,0,0-1.59-2,6.92,6.92,0,0,0-2.08-1.3A6.83,6.83,0,0,0,38.84,11.91ZM11.37,22.36a12.79,12.79,0,0,0,.4,3.16A10,10,0,0,0,13,28.37a6.66,6.66,0,0,0,2,2.06,4.9,4.9,0,0,0,2.77.79,3.15,3.15,0,0,0,1.66-.41,3.68,3.68,0,0,0,1.1-1,4.13,4.13,0,0,0,.62-1.23,4.06,4.06,0,0,0,.19-1.15,5.41,5.41,0,0,0-.16-1.25,2.89,2.89,0,0,0-.7-1.28,4.12,4.12,0,0,0-1.54-1,7.28,7.28,0,0,0-2.66-.4V21.35a6.3,6.3,0,0,0,2.23-.4A5,5,0,0,0,20,20,3.91,3.91,0,0,0,21,18.67a3.66,3.66,0,0,0,.31-1.46,4.11,4.11,0,0,0-1.09-2.87,5.36,5.36,0,0,0-1.17-1,8.66,8.66,0,0,0-1.4-.68,10.34,10.34,0,0,0-2.46,1.48,10.08,10.08,0,0,0-2,2.15,10.54,10.54,0,0,0-1.82,6ZM44.84,20.2a8.21,8.21,0,0,0-2.67.43,6.85,6.85,0,0,0-2.22,1.23,6.08,6.08,0,0,0-1.53,1.94,5.56,5.56,0,0,0-.57,2.54,5.5,5.5,0,0,0,.5,2.52,4.31,4.31,0,0,0,1.18,1.48,3.79,3.79,0,0,0,1.39.69,5,5,0,0,0,1.14.17,3,3,0,0,0,1.58-.42,4.41,4.41,0,0,0,1.22-1.13,7.47,7.47,0,0,0,.91-1.6,11.68,11.68,0,0,0,.61-1.86,16.45,16.45,0,0,0,.34-1.92,15.71,15.71,0,0,0,.11-1.75q0-.54,0-1.07t-.12-1.07A8.46,8.46,0,0,0,44.84,20.2Z"/><path class="cls-1" d="M85.13,9.74a11.28,11.28,0,0,1,5.12,1.08,10.05,10.05,0,0,1,3.56,2.94A12.73,12.73,0,0,1,95.9,18.1a19.51,19.51,0,0,1,.68,5.22A12.58,12.58,0,0,1,96,27a10.7,10.7,0,0,1-1.59,3.23,8.23,8.23,0,0,1-2.53,2.28,6.61,6.61,0,0,1-3.38.87,6,6,0,0,1-2.83-.69,7.35,7.35,0,0,1-2.26-1.85A9.22,9.22,0,0,1,81.38,25a9.4,9.4,0,0,1,.52-3.13,8.54,8.54,0,0,1,1.43-2.6,7,7,0,0,1,2.15-1.78,5.62,5.62,0,0,1,5.35,0,6.26,6.26,0,0,1,2.28,2.19,12.21,12.21,0,0,0-1.27-3.27A10.46,10.46,0,0,0,89.92,14a8,8,0,0,0-2.41-1.56,7.14,7.14,0,0,0-2.73-.54,5.56,5.56,0,0,0-3,.77,5.88,5.88,0,0,0-1.93,2,8.46,8.46,0,0,0-1,2.61A13.1,13.1,0,0,0,78.5,20v5a9.84,9.84,0,0,1-.6,3.53,7.15,7.15,0,0,1-4.32,4.3,9.66,9.66,0,0,1-3.4.57,8.47,8.47,0,0,1-4.24-1,9.13,9.13,0,0,1-3-2.67,11.74,11.74,0,0,1-1.75-3.75,16,16,0,0,1-.57-4.25,13.12,13.12,0,0,1,.58-3.93,12.9,12.9,0,0,1,1.65-3.43,12.45,12.45,0,0,1,5.74-4.59l.65,1.67a11.23,11.23,0,0,0-3.17,2.25,11.77,11.77,0,0,0-2,2.72,10.64,10.64,0,0,0-1,2.83,12.79,12.79,0,0,0,.21,6.17,9.38,9.38,0,0,0,1.44,3,7,7,0,0,0,2.39,2.07,6.94,6.94,0,0,0,3.32.77,3.66,3.66,0,0,0,1.94-.52,4.49,4.49,0,0,0,1.44-1.42,7.1,7.1,0,0,0,.9-2.12A10.66,10.66,0,0,0,75,24.51V19.61A10.45,10.45,0,0,1,75.69,16a9.46,9.46,0,0,1,1.92-3.16,9.56,9.56,0,0,1,3.15-2.24A10.49,10.49,0,0,1,85.13,9.74Zm8,15.33a7.58,7.58,0,0,0-.47-2.84,5.64,5.64,0,0,0-1.17-1.86,4.25,4.25,0,0,0-1.55-1,4.61,4.61,0,0,0-1.6-.31,3.76,3.76,0,0,0-1.84.48A5.17,5.17,0,0,0,85,20.79a6.17,6.17,0,0,0-1,1.92A7.14,7.14,0,0,0,83.55,25,6.38,6.38,0,0,0,84,27.54a6.05,6.05,0,0,0,1.16,1.83,4.82,4.82,0,0,0,1.56,1.13,4.08,4.08,0,0,0,1.66.38,3.54,3.54,0,0,0,1.74-.48,5.3,5.3,0,0,0,1.52-1.28,6.77,6.77,0,0,0,1.07-1.85A6,6,0,0,0,93.12,25.07Z"/><path class="cls-1" d="M114.36,33.38a14.59,14.59,0,0,1-5.33-.94,12,12,0,0,1-4.18-2.68,12.29,12.29,0,0,1-2.74-4.19,14.42,14.42,0,0,1-1-5.43,15.6,15.6,0,0,1,.48-3.86A10.74,10.74,0,0,1,103,12.95a7.54,7.54,0,0,1,2.42-2.33,6.58,6.58,0,0,1,3.45-.88,4.93,4.93,0,0,1,2.13.45,6.61,6.61,0,0,1,1.68,1.11,5.67,5.67,0,0,1,1.14,1.43,3.78,3.78,0,0,1,.49,1.4,7.58,7.58,0,0,1,.89-1.61,7.06,7.06,0,0,1,1.33-1.41,6.61,6.61,0,0,1,1.73-1,5.66,5.66,0,0,1,2.09-.38,5.74,5.74,0,0,1,2.39.48,6.31,6.31,0,0,1,1.84,1.26A7.66,7.66,0,0,1,126,13.26a12.1,12.1,0,0,1,.9,2.07,12.64,12.64,0,0,1,.5,2.1,13.16,13.16,0,0,1,.15,1.88,15.77,15.77,0,0,1-.4,3.63A14.78,14.78,0,0,1,126,26.09a13.17,13.17,0,0,1-3.92,4.74,11.8,11.8,0,0,0,3.07.39,8.89,8.89,0,0,0,3.67-.77,9.09,9.09,0,0,0,3-2.13,10.22,10.22,0,0,0,2-3.22,10.77,10.77,0,0,0,.74-4,12.46,12.46,0,0,0-.38-3.17,11.09,11.09,0,0,0-1.05-2.63,11.26,11.26,0,0,0-1.58-2.17,15.36,15.36,0,0,0-2-1.78l1.08-1.6a15.19,15.19,0,0,1,4.48,5,13,13,0,0,1,1.58,6.39,13.17,13.17,0,0,1-1,5.28,11.42,11.42,0,0,1-2.66,3.85,11.25,11.25,0,0,1-3.85,2.36,13.18,13.18,0,0,1-4.57.8,16.4,16.4,0,0,1-5.54-.89A12.91,12.91,0,0,1,114.36,33.38ZM111.54,21q0-.67.05-1.36t.13-1.34q.08-.65.13-1.23t.05-1a2.79,2.79,0,0,0-.31-1.41,2.48,2.48,0,0,0-.8-.85,3.11,3.11,0,0,0-1.08-.43,5.93,5.93,0,0,0-1.16-.12,4,4,0,0,0-2.09.57,5.51,5.51,0,0,0-1.67,1.56,7.87,7.87,0,0,0-1.1,2.29,9.37,9.37,0,0,0-.4,2.76,11.61,11.61,0,0,0,.8,4.37,9.94,9.94,0,0,0,2.25,3.42,10.25,10.25,0,0,0,3.49,2.23,12.19,12.19,0,0,0,4.5.8,9.59,9.59,0,0,0,1.93-.19,10.65,10.65,0,0,1-3.49-4.09A13.31,13.31,0,0,1,111.54,21Zm12.51-1.26a14.14,14.14,0,0,0-.23-2.42,9.27,9.27,0,0,0-.75-2.39,5.5,5.5,0,0,0-1.35-1.82,3,3,0,0,0-2-.73,3.21,3.21,0,0,0-2.2.79,5.87,5.87,0,0,0-1.45,2,10.61,10.61,0,0,0-.8,2.65,16.35,16.35,0,0,0-.25,2.77,11.75,11.75,0,0,0,1.18,5.49,9.14,9.14,0,0,0,3.22,3.56,9.17,9.17,0,0,0,2-1.82,11.58,11.58,0,0,0,1.46-2.35,12.75,12.75,0,0,0,.92-2.74A14.1,14.1,0,0,0,124.05,19.74Z"/><path class="cls-1" d="M163.57,21.74a10.86,10.86,0,0,1-.34,2.68,12.87,12.87,0,0,1-.92,2.51,12.74,12.74,0,0,1-1.39,2.22A11.81,11.81,0,0,1,159.19,31h10.57V9.87h3.46V33.12H155.53l-.71-1.36a9.62,9.62,0,0,0,2.38-2.09,13,13,0,0,0,1.65-2.58,12.68,12.68,0,0,0,1-2.71,11.52,11.52,0,0,0,.3-2.5,12,12,0,0,0-.56-3.77,8.77,8.77,0,0,0-1.6-2.94,7.14,7.14,0,0,0-2.53-1.92,7.94,7.94,0,0,0-3.33-.68,8.13,8.13,0,0,0-3.54.76,8.5,8.5,0,0,0-2.73,2,9.1,9.1,0,0,0-1.75,3,10.85,10.85,0,0,0,1,9.27,12,12,0,0,0,4.6,4.15l-.74,1.62a14.34,14.34,0,0,1-3.16-2.06,12.65,12.65,0,0,1-2.39-2.74,12.86,12.86,0,0,1-1.53-3.36,13.63,13.63,0,0,1-.54-3.89,12.71,12.71,0,0,1,.83-4.67A11.18,11.18,0,0,1,144.41,13a10.24,10.24,0,0,1,3.52-2.4,11.54,11.54,0,0,1,4.49-.85,11.31,11.31,0,0,1,4.64.92,10.14,10.14,0,0,1,3.51,2.54A11.49,11.49,0,0,1,162.79,17,14,14,0,0,1,163.57,21.74Z"/><path class="cls-1" d="M184.07,33.12H180.6v-25a5.37,5.37,0,0,0-.32-2,3.92,3.92,0,0,0-.86-1.35A3.31,3.31,0,0,0,178.21,4a4.05,4.05,0,0,0-1.4-.25,5.69,5.69,0,0,0-1.48.19,3.23,3.23,0,0,0-1.32.73,4.37,4.37,0,0,0-1,1.49,8.9,8.9,0,0,0-.63,2.48h-2.17a10.36,10.36,0,0,1,.88-3.49,7.41,7.41,0,0,1,1.66-2.32,6.09,6.09,0,0,1,2.15-1.29,7.41,7.41,0,0,1,2.39-.4,7.67,7.67,0,0,1,3.13.57,5.81,5.81,0,0,1,2.1,1.53,6,6,0,0,1,1.19,2.22,9.14,9.14,0,0,1,.38,2.63Z"/><path class="cls-1" d="M224.14,21.35a13.14,13.14,0,0,1-.56,3.8A13.47,13.47,0,0,1,222,28.63a12.58,12.58,0,0,1-2.54,2.85A11.11,11.11,0,0,1,216,33.38l-1-2.17a11,11,0,0,0,2.36-1.55,8.69,8.69,0,0,0,1.76-2.1,10,10,0,0,0,1.11-2.75,14.87,14.87,0,0,0,0-6.72,9.17,9.17,0,0,0-1.2-2.9A6.56,6.56,0,0,0,217,13.12a6.07,6.07,0,0,0-3.2-.8,4.53,4.53,0,0,0-2.08.52,6,6,0,0,0-1.83,1.47,7.45,7.45,0,0,0-1.31,2.34,9.11,9.11,0,0,0-.5,3.1V33.12h-3.46V19.74a10.87,10.87,0,0,0-.41-3.1A6.74,6.74,0,0,0,203,14.31a5.28,5.28,0,0,0-1.86-1.47,5.66,5.66,0,0,0-2.46-.52,7,7,0,0,0-3.28.76,7.75,7.75,0,0,0-2.48,2A9.24,9.24,0,0,0,191.33,18a10.45,10.45,0,0,0-.55,3.37,14.65,14.65,0,0,0,.34,3.18,10.71,10.71,0,0,0,1.07,2.86,10.93,10.93,0,0,0,1.87,2.48,12.19,12.19,0,0,0,2.74,2l-1.06,1.49a12.15,12.15,0,0,1-3.1-2.17,12.53,12.53,0,0,1-2.23-2.88A13.78,13.78,0,0,1,189.07,25a14.66,14.66,0,0,1-.45-3.63,13,13,0,0,1,.76-4.43,11.59,11.59,0,0,1,2.13-3.7,10.27,10.27,0,0,1,3.3-2.53,9.58,9.58,0,0,1,4.27-.94,11.1,11.1,0,0,1,2.22.23,7.73,7.73,0,0,1,2.12.77,7.56,7.56,0,0,1,1.88,1.46,8.62,8.62,0,0,1,1.53,2.31,10,10,0,0,1,1.6-2.26,8.26,8.26,0,0,1,1.86-1.47,7.48,7.48,0,0,1,2-.79,8.73,8.73,0,0,1,2-.24,9.5,9.5,0,0,1,4.36.94,8.87,8.87,0,0,1,3.07,2.54,11.13,11.13,0,0,1,1.83,3.7A15.86,15.86,0,0,1,224.14,21.35Z"/><path class="cls-1" d="M235,33.12h-3.46v-25a5.37,5.37,0,0,0-.32-2,3.92,3.92,0,0,0-.86-1.35A3.31,3.31,0,0,0,229.13,4a4.05,4.05,0,0,0-1.4-.25,5.69,5.69,0,0,0-1.48.19,3.23,3.23,0,0,0-1.32.73,4.37,4.37,0,0,0-1,1.49,8.9,8.9,0,0,0-.63,2.48h-2.17A10.36,10.36,0,0,1,222,5.13a7.41,7.41,0,0,1,1.66-2.32,6.09,6.09,0,0,1,2.15-1.29,7.41,7.41,0,0,1,2.39-.4,7.67,7.67,0,0,1,3.13.57,5.81,5.81,0,0,1,2.1,1.53,6,6,0,0,1,1.19,2.22A9.14,9.14,0,0,1,235,8.08Z"/><path class="cls-1" d="M239.53,33.12V21.87a14.28,14.28,0,0,1,.84-5A10.87,10.87,0,0,1,242.75,13a10.31,10.31,0,0,1,3.68-2.41,12.92,12.92,0,0,1,4.75-.84,10.65,10.65,0,0,1,4.36.88A10.19,10.19,0,0,1,259,13a11,11,0,0,1,2.22,3.68,13.27,13.27,0,0,1,.79,4.64V33.12ZM244.75,31A19.11,19.11,0,0,0,247,29.17,14.45,14.45,0,0,0,249,27a11.18,11.18,0,0,0,1.41-2.62,8.4,8.4,0,0,0,.53-3,11.23,11.23,0,0,0-.16-1.92,5.49,5.49,0,0,0-.57-1.7,3.15,3.15,0,0,0-3-1.69,4.3,4.3,0,0,0-3.15,1.55,11.61,11.61,0,0,0-2.39,4.75V31Zm3.33-16.82a6.07,6.07,0,0,1,2.58.54,5.89,5.89,0,0,1,2,1.5A6.87,6.87,0,0,1,254,18.47a8.79,8.79,0,0,1,.45,2.88,10.24,10.24,0,0,1-.49,3.21,13,13,0,0,1-1.22,2.7,12.79,12.79,0,0,1-1.61,2.14A15.37,15.37,0,0,1,249.41,31h9.09V21.37a13.8,13.8,0,0,0-.48-3.69,8.73,8.73,0,0,0-1.46-3,6.84,6.84,0,0,0-2.52-2,8.41,8.41,0,0,0-3.66-.74,7.61,7.61,0,0,0-2.08.28,8.14,8.14,0,0,0-1.87.79,8.85,8.85,0,0,0-1.63,1.22,9.35,9.35,0,0,0-1.34,1.58,6.73,6.73,0,0,1,2-1.2A7.2,7.2,0,0,1,248.09,14.14Z"/><path class="cls-1" d="M279.74,33.38a14.59,14.59,0,0,1-5.33-.94,12,12,0,0,1-4.18-2.68,12.29,12.29,0,0,1-2.74-4.19,14.42,14.42,0,0,1-1-5.43,15.6,15.6,0,0,1,.48-3.86,10.74,10.74,0,0,1,1.44-3.32,7.54,7.54,0,0,1,2.42-2.33,6.58,6.58,0,0,1,3.45-.88,4.93,4.93,0,0,1,2.13.45,6.61,6.61,0,0,1,1.68,1.11,5.67,5.67,0,0,1,1.14,1.43,3.78,3.78,0,0,1,.49,1.4,7.58,7.58,0,0,1,.89-1.61A7.06,7.06,0,0,1,282,11.12a6.61,6.61,0,0,1,1.73-1,5.66,5.66,0,0,1,2.09-.38,5.74,5.74,0,0,1,2.39.48A6.31,6.31,0,0,1,290,11.47a7.66,7.66,0,0,1,1.34,1.79,12.1,12.1,0,0,1,.9,2.07,12.64,12.64,0,0,1,.5,2.1,13.16,13.16,0,0,1,.15,1.88,15.77,15.77,0,0,1-.4,3.63,14.78,14.78,0,0,1-1.11,3.15,13.17,13.17,0,0,1-3.92,4.74,11.8,11.8,0,0,0,3.07.39,8.89,8.89,0,0,0,3.67-.77,9.09,9.09,0,0,0,3-2.13,10.22,10.22,0,0,0,2-3.22,10.77,10.77,0,0,0,.74-4,12.46,12.46,0,0,0-.38-3.17,11.09,11.09,0,0,0-1.05-2.63,11.26,11.26,0,0,0-1.58-2.17,15.36,15.36,0,0,0-2-1.78L296,9.74a15.19,15.19,0,0,1,4.48,5,13,13,0,0,1,1.58,6.39,13.17,13.17,0,0,1-1,5.28,11.42,11.42,0,0,1-2.66,3.85,11.25,11.25,0,0,1-3.85,2.36,13.18,13.18,0,0,1-4.57.8,16.4,16.4,0,0,1-5.54-.89A12.91,12.91,0,0,1,279.74,33.38ZM276.92,21q0-.67.05-1.36t.13-1.34q.08-.65.13-1.23t.05-1a2.79,2.79,0,0,0-.31-1.41,2.48,2.48,0,0,0-.8-.85,3.11,3.11,0,0,0-1.08-.43,5.93,5.93,0,0,0-1.16-.12,4,4,0,0,0-2.09.57,5.51,5.51,0,0,0-1.67,1.56,7.87,7.87,0,0,0-1.1,2.29,9.37,9.37,0,0,0-.4,2.76,11.61,11.61,0,0,0,.8,4.37,9.94,9.94,0,0,0,2.25,3.42,10.25,10.25,0,0,0,3.49,2.23,12.19,12.19,0,0,0,4.5.8,9.59,9.59,0,0,0,1.93-.19,10.65,10.65,0,0,1-3.49-4.09A13.31,13.31,0,0,1,276.92,21Zm12.51-1.26a14.14,14.14,0,0,0-.23-2.42,9.27,9.27,0,0,0-.75-2.39,5.5,5.5,0,0,0-1.35-1.82,3,3,0,0,0-2-.73,3.21,3.21,0,0,0-2.2.79,5.87,5.87,0,0,0-1.45,2,10.61,10.61,0,0,0-.8,2.65,16.35,16.35,0,0,0-.25,2.77,11.75,11.75,0,0,0,1.18,5.49,9.14,9.14,0,0,0,3.22,3.56,9.17,9.17,0,0,0,2-1.82,11.58,11.58,0,0,0,1.46-2.35,12.75,12.75,0,0,0,.92-2.74A14.1,14.1,0,0,0,289.44,19.74Z"/><path class="cls-1" d="M306.65,27.37a5.52,5.52,0,0,1,.51-2.34,5.94,5.94,0,0,1,1.4-1.92,6.89,6.89,0,0,1,9.22,0,5.94,5.94,0,0,1,1.4,1.92,5.63,5.63,0,0,1,0,4.68,5.93,5.93,0,0,1-1.4,1.92,6.89,6.89,0,0,1-9.22,0,5.93,5.93,0,0,1-1.4-1.92A5.52,5.52,0,0,1,306.65,27.37Zm2.17,0a3.88,3.88,0,0,0,.29,1.5,3.92,3.92,0,0,0,.79,1.22,3.69,3.69,0,0,0,1.18.82,3.49,3.49,0,0,0,1.44.3,3.42,3.42,0,0,0,1.43-.3,3.89,3.89,0,0,0,0-7.1,3.44,3.44,0,0,0-1.43-.3,3.51,3.51,0,0,0-1.44.3,3.7,3.7,0,0,0-1.18.82,3.93,3.93,0,0,0-.79,1.22A3.89,3.89,0,0,0,308.81,27.37Z"/><path class="cls-1" d="M372.05,21.35a13.14,13.14,0,0,1-.56,3.8,13.47,13.47,0,0,1-1.61,3.49,12.58,12.58,0,0,1-2.54,2.85A11.11,11.11,0,0,1,364,33.38l-1-2.17a11,11,0,0,0,2.36-1.55,8.69,8.69,0,0,0,1.76-2.1,10,10,0,0,0,1.11-2.75,14.87,14.87,0,0,0,0-6.72,9.17,9.17,0,0,0-1.2-2.9,6.56,6.56,0,0,0-2.14-2.08,6.07,6.07,0,0,0-3.2-.8,4.53,4.53,0,0,0-2.08.52,6,6,0,0,0-1.83,1.47,7.45,7.45,0,0,0-1.31,2.34,9.11,9.11,0,0,0-.5,3.1V33.12h-3.46V19.74a10.87,10.87,0,0,0-.41-3.1,6.74,6.74,0,0,0-1.18-2.34A5.28,5.28,0,0,0,349,12.84a5.66,5.66,0,0,0-2.46-.52,7,7,0,0,0-3.28.76,7.75,7.75,0,0,0-2.48,2A9.24,9.24,0,0,0,339.24,18a10.45,10.45,0,0,0-.55,3.37,14.65,14.65,0,0,0,.34,3.18,10.71,10.71,0,0,0,1.07,2.86A10.93,10.93,0,0,0,342,29.87a12.19,12.19,0,0,0,2.74,2l-1.06,1.49a12.15,12.15,0,0,1-3.1-2.17,12.53,12.53,0,0,1-2.23-2.88A13.78,13.78,0,0,1,337,25a14.66,14.66,0,0,1-.45-3.63,13,13,0,0,1,.76-4.43,11.59,11.59,0,0,1,2.13-3.7,10.27,10.27,0,0,1,3.3-2.53A9.58,9.58,0,0,1,347,9.74a11.1,11.1,0,0,1,2.22.23,7.73,7.73,0,0,1,2.12.77,7.56,7.56,0,0,1,1.88,1.46,8.62,8.62,0,0,1,1.53,2.31,10,10,0,0,1,1.6-2.26,8.26,8.26,0,0,1,1.86-1.47,7.48,7.48,0,0,1,2-.79,8.73,8.73,0,0,1,2-.24,9.5,9.5,0,0,1,4.36.94,8.87,8.87,0,0,1,3.07,2.54,11.13,11.13,0,0,1,1.83,3.7A15.86,15.86,0,0,1,372.05,21.35Z"/><path class="cls-1" d="M393,26.43a6,6,0,0,1-.75,3.05,6.89,6.89,0,0,1-1.94,2.17,8.62,8.62,0,0,1-2.66,1.3,10.33,10.33,0,0,1-2.92.43,10.77,10.77,0,0,1-2.46-.28,9.07,9.07,0,0,1-2.26-.86,8.65,8.65,0,0,1-1.94-1.43,8,8,0,0,1-1.48-2l1.62-1.19a7.23,7.23,0,0,0,6.49,3.59A8.48,8.48,0,0,0,386.6,31a6.93,6.93,0,0,0,1.94-.76,4.89,4.89,0,0,0,1.5-1.34,3.27,3.27,0,0,0,.61-2,2,2,0,0,0-.6-1.46,5.7,5.7,0,0,0-1.57-1.1,17.64,17.64,0,0,0-2.22-.91l-2.53-.89q-1.29-.47-2.53-1A10.4,10.4,0,0,1,379,20.12a6.34,6.34,0,0,1-1.57-1.86,5.11,5.11,0,0,1-.6-2.52,4.77,4.77,0,0,1,.73-2.64,6.47,6.47,0,0,1,1.83-1.87,8.3,8.3,0,0,1,2.4-1.11,9.05,9.05,0,0,1,2.47-.37A10.14,10.14,0,0,1,389,10.87a9.39,9.39,0,0,1,3.53,3.25l-1.69,1.19a7.75,7.75,0,0,0-1.43-1.6,7.59,7.59,0,0,0-1.63-1.05,7.48,7.48,0,0,0-1.75-.57,9.33,9.33,0,0,0-1.76-.17,6.42,6.42,0,0,0-1.47.18,4.78,4.78,0,0,0-1.44.6,3.67,3.67,0,0,0-1.09,1,2.64,2.64,0,0,0-.43,1.54,2.33,2.33,0,0,0,.56,1.58A5.32,5.32,0,0,0,381.9,18a14,14,0,0,0,2.11.92l2.41.87q1.23.45,2.41,1A9.87,9.87,0,0,1,391,22.12a6,6,0,0,1,1.49,1.82A5.23,5.23,0,0,1,393,26.43Z"/><path class="cls-1" d="M409,12.1a10.85,10.85,0,0,0-3.8.64,7.94,7.94,0,0,0-4.84,4.85,11.47,11.47,0,0,0-.67,4.06,12.86,12.86,0,0,0,.37,3.15,12,12,0,0,0,1,2.71,11.71,11.71,0,0,0,1.59,2.29,14.15,14.15,0,0,0,2.08,1.92l-1.19,1.67a14.09,14.09,0,0,1-4.5-5.1,14.52,14.52,0,0,1-1.54-6.72,12.53,12.53,0,0,1,.87-4.7,11,11,0,0,1,6.16-6.22,13,13,0,0,1,8-.48,14.59,14.59,0,0,1,3,1.16,13,13,0,0,1,2.94-1.17,12.77,12.77,0,0,1,3.27-.41,13.8,13.8,0,0,1,5,.88,11.68,11.68,0,0,1,3.93,2.45,11.11,11.11,0,0,1,2.57,3.73,12,12,0,0,1,.92,4.74,14.2,14.2,0,0,1-.43,3.52,15.48,15.48,0,0,1-1.21,3.23,14.58,14.58,0,0,1-1.87,2.81,15.52,15.52,0,0,1-2.39,2.28L427,31.72a11.79,11.79,0,0,0,2.73-4,14.21,14.21,0,0,0,1-5.46,11.42,11.42,0,0,0-.67-3.94,9.78,9.78,0,0,0-1.91-3.21,8.94,8.94,0,0,0-3-2.17,9.05,9.05,0,0,0-3.82-.79,10.84,10.84,0,0,0-1.78.15,11.12,11.12,0,0,0-1.84.48,15.39,15.39,0,0,1,4.07,4.81A13.05,13.05,0,0,1,423,20.35a11.14,11.14,0,0,1,.39,2.9,14.39,14.39,0,0,1-.48,3.66,10.83,10.83,0,0,1-1.43,3.26,7.71,7.71,0,0,1-2.38,2.33,6.18,6.18,0,0,1-3.33.89,5.43,5.43,0,0,1-3.2-.94A7.59,7.59,0,0,1,410.33,30a11.56,11.56,0,0,1-1.28-3.3,16.09,16.09,0,0,1-.41-3.55A13.49,13.49,0,0,1,413.17,13,10.26,10.26,0,0,0,409,12.1Zm1.78,11a12.6,12.6,0,0,0,.36,3,10.25,10.25,0,0,0,1,2.6,6,6,0,0,0,1.5,1.82,3,3,0,0,0,1.9.68,2.68,2.68,0,0,0,1.72-.64,5.54,5.54,0,0,0,1.38-1.73,10.29,10.29,0,0,0,.92-2.55,14,14,0,0,0,.34-3.13,10.79,10.79,0,0,0-.38-2.91,11,11,0,0,0-1-2.49A10.36,10.36,0,0,0,417,15.71a12.15,12.15,0,0,0-1.9-1.61,9.65,9.65,0,0,0-1.69,1.49,9.32,9.32,0,0,0-1.35,2,10.85,10.85,0,0,0-.9,2.5A13.39,13.39,0,0,0,410.81,23.12Z"/><path class="cls-1" d="M426.35,0a6.81,6.81,0,0,0,.43,1.79,4.59,4.59,0,0,0,.85,1.4,3.77,3.77,0,0,0,1.25.91,3.88,3.88,0,0,0,1.62.32A3.34,3.34,0,0,0,432.13,4a4.2,4.2,0,0,0,1.23-1,5,5,0,0,0,.82-1.42A5.72,5.72,0,0,0,434.56,0h2.16a13.14,13.14,0,0,1-.61,3A7.8,7.8,0,0,1,434.9,5.3,5.26,5.26,0,0,1,433,6.82a5.74,5.74,0,0,1-2.55.54,5.19,5.19,0,0,1-2.59-.64A6.35,6.35,0,0,1,426,5a8,8,0,0,1-1.25-2.36A10.51,10.51,0,0,1,424.19,0Z"/><path class="cls-1" d="M450.23,12.1a10.85,10.85,0,0,0-3.8.64,7.94,7.94,0,0,0-4.84,4.85,11.47,11.47,0,0,0-.67,4.06,12.86,12.86,0,0,0,.37,3.15,12,12,0,0,0,1,2.71,11.71,11.71,0,0,0,1.59,2.29A14.15,14.15,0,0,0,446,31.72l-1.19,1.67a14.09,14.09,0,0,1-4.5-5.1,14.52,14.52,0,0,1-1.54-6.72,12.53,12.53,0,0,1,.87-4.7,11,11,0,0,1,6.16-6.22,13,13,0,0,1,8-.48,14.59,14.59,0,0,1,3,1.16,13,13,0,0,1,2.94-1.17A12.77,12.77,0,0,1,463,9.74a13.8,13.8,0,0,1,5,.88,11.68,11.68,0,0,1,3.93,2.45,11.11,11.11,0,0,1,2.57,3.73,12,12,0,0,1,.92,4.74,14.2,14.2,0,0,1-.43,3.52,15.48,15.48,0,0,1-1.21,3.23,14.58,14.58,0,0,1-1.87,2.81,15.52,15.52,0,0,1-2.39,2.28l-1.26-1.67a11.79,11.79,0,0,0,2.73-4,14.21,14.21,0,0,0,1-5.46,11.42,11.42,0,0,0-.67-3.94,9.78,9.78,0,0,0-1.91-3.21,8.94,8.94,0,0,0-3-2.17,9.05,9.05,0,0,0-3.82-.79,10.84,10.84,0,0,0-1.78.15,11.12,11.12,0,0,0-1.84.48A15.39,15.39,0,0,1,463,17.54a13.05,13.05,0,0,1,1.13,2.81,11.14,11.14,0,0,1,.39,2.9,14.39,14.39,0,0,1-.48,3.66,10.83,10.83,0,0,1-1.43,3.26,7.71,7.71,0,0,1-2.38,2.33,6.18,6.18,0,0,1-3.33.89,5.43,5.43,0,0,1-3.2-.94A7.59,7.59,0,0,1,451.53,30a11.56,11.56,0,0,1-1.28-3.3,16.09,16.09,0,0,1-.41-3.55A13.49,13.49,0,0,1,454.37,13,10.26,10.26,0,0,0,450.23,12.1Zm1.78,11a12.6,12.6,0,0,0,.36,3,10.25,10.25,0,0,0,1,2.6,6,6,0,0,0,1.5,1.82,3,3,0,0,0,1.9.68,2.68,2.68,0,0,0,1.72-.64,5.54,5.54,0,0,0,1.38-1.73,10.29,10.29,0,0,0,.92-2.55,14,14,0,0,0,.34-3.13,10.79,10.79,0,0,0-.38-2.91,11,11,0,0,0-1-2.49,10.36,10.36,0,0,0-1.54-2.06,12.15,12.15,0,0,0-1.9-1.61,9.65,9.65,0,0,0-1.69,1.49,9.32,9.32,0,0,0-1.35,2,10.85,10.85,0,0,0-.9,2.5A13.39,13.39,0,0,0,452,23.12Z"/><path class="cls-1" d="M479.52,37.35a5.8,5.8,0,0,1,.28-1.79,6.44,6.44,0,0,1,.79-1.63,6.72,6.72,0,0,1,1.2-1.35,5.62,5.62,0,0,1,1.54-.94,25.24,25.24,0,0,0,2-4.83,17.69,17.69,0,0,0,.75-5,13.08,13.08,0,0,0-.3-2.83,9.63,9.63,0,0,0-1-2.58,9.18,9.18,0,0,0-1.71-2.21,9.67,9.67,0,0,0-2.54-1.72l1.32-2.73a9.94,9.94,0,0,1,3.08,1.79A9.35,9.35,0,0,1,487,14a10.49,10.49,0,0,1,1.1,3,15.71,15.71,0,0,1,.34,3.27,20.71,20.71,0,0,1-.21,2.89,27,27,0,0,1-.56,2.87q-.36,1.41-.82,2.75t-1,2.53a6.76,6.76,0,0,1,2.19.6,6.68,6.68,0,0,1,1.88,1.29A6.12,6.12,0,0,1,491.2,35a5.6,5.6,0,0,1,.49,2.35,6.94,6.94,0,0,1-.53,2.78,6.33,6.33,0,0,1-1.41,2.07,5.91,5.91,0,0,1-2,1.28,6.55,6.55,0,0,1-2.35.43,5.92,5.92,0,0,1-2.28-.44,5.48,5.48,0,0,1-1.87-1.28A5.87,5.87,0,0,1,480,40.13,8,8,0,0,1,479.52,37.35Zm1.73-.26a5,5,0,0,0,.24,1.48,4.35,4.35,0,0,0,.71,1.39,4.07,4.07,0,0,0,1.15,1,3,3,0,0,0,1.56.4,3.82,3.82,0,0,0,2.83-1.07,4.11,4.11,0,0,0,1.07-3,4.33,4.33,0,0,0-.32-1.7,4.15,4.15,0,0,0-.85-1.31,3.66,3.66,0,0,0-1.25-.83,3.91,3.91,0,0,0-1.49-.29,3.05,3.05,0,0,0-1.44.35,3.89,3.89,0,0,0-1.15.91,4.39,4.39,0,0,0-.77,1.28A3.87,3.87,0,0,0,481.26,37.09Z"/><path class="cls-1" d="M513.54,33.38a6.07,6.07,0,0,1-2-.3,6.16,6.16,0,0,1-1.61-.82,6.52,6.52,0,0,1-1.3-1.23,9.5,9.5,0,0,1-1-1.54,6,6,0,0,1-.74,1.5,5.59,5.59,0,0,1-1.14,1.23,5.25,5.25,0,0,1-1.54.84,5.79,5.79,0,0,1-2,.31,6.87,6.87,0,0,1-2.54-.47,6,6,0,0,1-2.06-1.34,6.26,6.26,0,0,1-1.37-2.11,7.35,7.35,0,0,1-.5-2.77,5.9,5.9,0,0,1,.43-2.35,5.06,5.06,0,0,1,1.18-1.71,6.38,6.38,0,0,1,1.74-1.16,11.1,11.1,0,0,1,2.12-.71,17.35,17.35,0,0,1,2.29-.37q1.17-.11,2.29-.13a17.42,17.42,0,0,1,.66-3.92A11.56,11.56,0,0,1,508.09,13a8,8,0,0,1,2.48-2.35A6.49,6.49,0,0,1,514,9.74a5.76,5.76,0,0,1,2.34.47,6.73,6.73,0,0,1,1.91,1.26,8.82,8.82,0,0,1,1.48,1.83,12.94,12.94,0,0,1,1.08,2.22,15.86,15.86,0,0,1,.69,2.4,19.26,19.26,0,0,1,.34,2.37,19.3,19.3,0,0,1,3.32.42,10,10,0,0,1,3,1.13,6.3,6.3,0,0,1,2.12,2,5.49,5.49,0,0,1,.81,3.06,6.43,6.43,0,0,1-.5,2.52,6.31,6.31,0,0,1-1.39,2.06,6.54,6.54,0,0,1-2.11,1.39,6.9,6.9,0,0,1-2.67.51,8,8,0,0,1-2.23-.32l-.37-2.14a6.43,6.43,0,0,0,1.82.3,3.82,3.82,0,0,0,1.65-.35,3.72,3.72,0,0,0,1.26-1,4.34,4.34,0,0,0,.8-1.42,5.22,5.22,0,0,0,.28-1.72,3.29,3.29,0,0,0-.54-1.94,4.34,4.34,0,0,0-1.37-1.26,6.9,6.9,0,0,0-1.85-.74,13.41,13.41,0,0,0-2-.34,19.91,19.91,0,0,1-.3,2.58,16.08,16.08,0,0,1-.67,2.51,11.92,11.92,0,0,1-1.08,2.26,7.92,7.92,0,0,1-1.55,1.83,7,7,0,0,1-2.07,1.23A7.18,7.18,0,0,1,513.54,33.38Zm-14.27-6.65a6.18,6.18,0,0,0,.22,1.62,4.6,4.6,0,0,0,.66,1.44,3.54,3.54,0,0,0,1.09,1,2.93,2.93,0,0,0,1.54.39,2.35,2.35,0,0,0,1.18-.31,3.3,3.3,0,0,0,1-.85,4.31,4.31,0,0,0,.67-1.27,4.75,4.75,0,0,0,.25-1.55V22.43q-1,0-2.15.15a7.11,7.11,0,0,0-2.14.57,4.17,4.17,0,0,0-1.63,1.3A3.68,3.68,0,0,0,499.27,26.74Zm14.16,4.48a3.35,3.35,0,0,0,2.11-.69,5.44,5.44,0,0,0,1.5-1.88,11.24,11.24,0,0,0,.94-2.79,20.22,20.22,0,0,0,.4-3.42H508a17,17,0,0,0,.49,3.32,11,11,0,0,0,1.09,2.8,6.33,6.33,0,0,0,1.65,1.94A3.48,3.48,0,0,0,513.43,31.22Zm.11-19.31a4,4,0,0,0-2.33.67,5.57,5.57,0,0,0-1.66,1.81,9.66,9.66,0,0,0-1,2.66,17.49,17.49,0,0,0-.45,3.22h10.31a19.57,19.57,0,0,0-.36-2.85,11.67,11.67,0,0,0-.87-2.71,6.15,6.15,0,0,0-1.46-2A3.11,3.11,0,0,0,513.54,11.91Z"/></g></g></svg>