<svg xmlns="http://www.w3.org/2000/svg" viewBox="0 0 229.14 109.27"><defs><style>.cls-1{fill:#707070;}</style></defs><title>hebrew</title><g id="Layer_2" data-name="Layer 2"><g id="Layer_2-2" data-name="Layer 2"><path class="cls-1" d="M11,79.8c15.68-4.71,27.94-17,27.94-33.59,0-7.43-2.95-8.84-9.19-8.84H1.65v-17C1.65,13.2,1.3,4.6,0,1.65L9.55,0c.71,1.53,1.18,9.55,1.18,18.27v8.37H33.48c12,0,14.85,6,14.85,16.5,0,26.52-20.86,44.56-39.49,48.68Z"/><path class="cls-1" d="M58.82,104.79a4.48,4.48,0,1,1-9,0,4.48,4.48,0,1,1,9,0Z"/><path class="cls-1" d="M64.83,62.71c4.83-7.54,7.43-13.32,7.43-18,0-3.89-2.24-5.19-7.66-6.72A73.87,73.87,0,0,1,57.4,35.6l2-10.37a69.76,69.76,0,0,0,7,2c11.2,2.48,15.09,6,15.09,14.73,0,7.43-3.54,15.68-9.31,24.28Z"/><path class="cls-1" d="M93,80.63c2.71-.47,9.43-.59,16.15-.59h18.27c-3.3-3.3-10.73-12.61-23.46-29.47-6-8-13.08-17.33-17.92-23.46l13.2-1.18C104.2,33,112.45,45,119,54c9-3.65,10.37-8.84,10.37-15.32a33.07,33.07,0,0,0-2.71-11.55l11.55-1.06a32.73,32.73,0,0,1,1.53,10.14c0,11.2-4.24,18.74-16.62,23.93,9.9,13.2,16.38,20.39,18.39,21.92l-2,8.72H108c-7.9,0-14.85.12-17.45.35Z"/><path class="cls-1" d="M164.66,53.87c0-10.14-1.18-13.79-10.37-16a67.49,67.49,0,0,1-8-2.24l2-10.37a44.13,44.13,0,0,0,8.13,1.89c13.2,2.83,17.45,7.19,17.45,25.11V90.76h-9.19Z"/><path class="cls-1" d="M186.94,13.32a4.48,4.48,0,1,1-9,0,4.48,4.48,0,1,1,9,0Z"/><path class="cls-1" d="M220.06,54.22c0-11.67-1.3-16.86-12.38-16.86H196c-7,0-11.43-.24-13.08-.71l2-10.49c2.36.47,8.37.47,16.38.47h7.31c17.21,0,20.51,4.13,20.51,24.28V90.76h-9.08Z"/></g></g></svg>