<svg xmlns="http://www.w3.org/2000/svg" viewBox="0 0 302.26 85.11"><defs><style>.cls-1{fill:#707070;}</style></defs><title>hello</title><g id="Layer_2" data-name="Layer 2"><g id="Layer_2-2" data-name="Layer 2"><path class="cls-1" d="M.83,83.1a2.73,2.73,0,0,1-.83-2v-77A3,3,0,0,1,.77,2a2.69,2.69,0,0,1,2.07-.83H13.71a2.83,2.83,0,0,1,3,3V34.52H51.18V4.14A2.88,2.88,0,0,1,52,2a2.74,2.74,0,0,1,2-.83H65A2.69,2.69,0,0,1,67.08,2a3,3,0,0,1,.77,2.13v77a2.85,2.85,0,0,1-.77,2,2.69,2.69,0,0,1-2.07.83H54a2.82,2.82,0,0,1-2.84-2.84V49.53H16.67V81.09a2.74,2.74,0,0,1-.83,2,2.88,2.88,0,0,1-2.13.83H2.84A2.73,2.73,0,0,1,.83,83.1Z"/><path class="cls-1" d="M90.49,77.55Q82.74,70,82.27,56l-.12-3q0-14.78,7.74-23.29t21.45-8.51q14.07,0,21.69,8.51t7.62,22.7V55a2.74,2.74,0,0,1-.83,2,2.88,2.88,0,0,1-2.13.83H98.47v.95a18.34,18.34,0,0,0,3.61,10.93A11.12,11.12,0,0,0,111.35,74a13.33,13.33,0,0,0,11-5.44A6.41,6.41,0,0,1,124,67a4.89,4.89,0,0,1,2-.3h10.4a2.92,2.92,0,0,1,1.83.59,2,2,0,0,1,.77,1.65q0,2.84-3.37,6.68A27.9,27.9,0,0,1,126,82.27a35,35,0,0,1-14.54,2.84Q98.23,85.11,90.49,77.55Zm33.87-29.79v-.24q0-7-3.49-11.17a11.72,11.72,0,0,0-9.52-4.2,11.55,11.55,0,0,0-9.46,4.2q-3.43,4.2-3.43,11.17v.24Z"/><path class="cls-1" d="M154.14,83.1a2.73,2.73,0,0,1-.83-2V2.84a2.69,2.69,0,0,1,.83-2.07,2.85,2.85,0,0,1,2-.77h9.93a2.8,2.8,0,0,1,2.07.77,2.8,2.8,0,0,1,.77,2.07V81.09a2.84,2.84,0,0,1-.77,2,2.69,2.69,0,0,1-2.07.83h-9.93A2.73,2.73,0,0,1,154.14,83.1Z"/><path class="cls-1" d="M185.58,83.1a2.73,2.73,0,0,1-.83-2V2.84a2.69,2.69,0,0,1,.83-2.07,2.85,2.85,0,0,1,2-.77h9.93a2.8,2.8,0,0,1,2.07.77,2.8,2.8,0,0,1,.77,2.07V81.09a2.84,2.84,0,0,1-.77,2,2.69,2.69,0,0,1-2.07.83h-9.93A2.73,2.73,0,0,1,185.58,83.1Z"/><path class="cls-1" d="M221.87,78q-7.57-7.09-8.16-19.62l-.12-5.2.12-5.2q.59-12.41,8.27-19.56t21.4-7.15q13.59,0,21.28,7.15T272.94,48q.12,1.42.12,5.2t-.12,5.2q-.59,12.53-8.16,19.62t-21.4,7.09Q229.44,85.11,221.87,78ZM253,69.27q3.37-3.9,3.61-11.47.12-1.18.12-4.61t-.12-4.61Q256.39,41,253,37.06t-9.58-4q-6.27,0-9.69,4T230,48.58l-.12,4.61L230,57.8q.23,7.57,3.66,11.47t9.69,3.9Q249.65,73.17,253,69.27Z"/><path class="cls-1" d="M285.47,83.1a2.73,2.73,0,0,1-.83-2V69.15a2.82,2.82,0,0,1,2.84-2.84h11.94a2.83,2.83,0,0,1,2.84,2.84V81.09a2.84,2.84,0,0,1-.77,2,2.69,2.69,0,0,1-2.07.83H287.48A2.73,2.73,0,0,1,285.47,83.1Z"/></g></g></svg>