<svg xmlns="http://www.w3.org/2000/svg" xmlns:xlink="http://www.w3.org/1999/xlink" viewBox="0 0 161.13 161.13"><defs><style>.cls-1{fill:url(#linear-gradient);}.cls-2{fill:url(#linear-gradient-2);}.cls-3{fill:url(#linear-gradient-3);}</style><linearGradient id="linear-gradient" x1="31.02" y1="9.9" x2="236.51" y2="257.39" gradientUnits="userSpaceOnUse"><stop offset="0" stop-color="aqua"/><stop offset="1" stop-color="blue"/></linearGradient><linearGradient id="linear-gradient-2" x1="14.2" y1="23.87" x2="219.69" y2="271.36" xlink:href="#linear-gradient"/><linearGradient id="linear-gradient-3" x1="25.62" y1="14.39" x2="231.11" y2="261.88" xlink:href="#linear-gradient"/></defs><title>hero-logo</title><g id="Layer_2" data-name="Layer 2"><g id="Layer_2-2" data-name="Layer 2"><path class="cls-1" d="M124.88,39.81H60.26a6,6,0,0,0-5.18,9l3.62,6.27H25a6.12,6.12,0,0,0-5.3,9.18l34.85,60.35a6.12,6.12,0,0,0,10.6,0L82,95.37l5.41,9.38a6,6,0,0,0,10.36,0l32.31-56a6,6,0,0,0-5.18-9Zm-34.1,63L84.24,91.45,100,64.23a6.12,6.12,0,0,0-5.3-9.18H63.23l-4.75-8.23a2.06,2.06,0,0,1,1.79-3.1h64.62a2.06,2.06,0,0,1,1.79,3.09l-32.31,56a2.06,2.06,0,0,1-3.57,0ZM57.91,122.63,23.06,62.27A2.2,2.2,0,0,1,25,59H61L79.72,91.45l-18,31.18a2.2,2.2,0,0,1-3.81,0ZM94.66,59a2.2,2.2,0,0,1,1.9,3.3L82,87.53,65.49,59Z"/><path class="cls-2" d="M104.52,109.11H80.63a6,6,0,0,0-5.2,9l11.95,20.69a6,6,0,0,0,10.4,0l11.95-20.69a6,6,0,0,0-5.2-9ZM94.38,136.85a2.08,2.08,0,0,1-3.61,0L78.82,116.15A2.08,2.08,0,0,1,80.63,113h23.89a2.08,2.08,0,0,1,1.8,3.13Z"/><path class="cls-3" d="M137.54,23.6A80.57,80.57,0,1,0,23.6,137.54,80.57,80.57,0,1,0,137.54,23.6Zm-57,133.74A76.77,76.77,0,0,1,26.28,26.28,76.77,76.77,0,1,1,134.85,134.85,76.27,76.27,0,0,1,80.57,157.34Z"/></g></g></svg>