<svg xmlns="http://www.w3.org/2000/svg" viewBox="0 0 88.85 80.23"><defs><style>.cls-1{fill:#707070;}</style></defs><title>hungarian</title><g id="Layer_2" data-name="Layer 2"><g id="Layer_2-2" data-name="Layer 2"><path class="cls-1" d="M5.73,30.76A1,1,0,0,1,5.42,30V1.11A1.13,1.13,0,0,1,5.7.31,1,1,0,0,1,6.48,0H26.05a1.08,1.08,0,0,1,.8.31,1.09,1.09,0,0,1,.31.8v3a1,1,0,0,1-.31.78,1.13,1.13,0,0,1-.8.29H11.5v7.77H25.08A1.06,1.06,0,0,1,26.19,14v2.8a1,1,0,0,1-.31.78,1.13,1.13,0,0,1-.8.29H11.5v8H26.41a1.13,1.13,0,0,1,.8.29,1,1,0,0,1,.31.78v3a1,1,0,0,1-.31.78,1.13,1.13,0,0,1-.8.29H6.48A1,1,0,0,1,5.73,30.76Z"/><path class="cls-1" d="M31.69,30.76a1,1,0,0,1-.31-.75V27.43a1.56,1.56,0,0,1,.16-.71A6.34,6.34,0,0,1,32,26L43.32,12.69H32.8a1,1,0,0,1-.75-.33,1.1,1.1,0,0,1-.31-.78V9.05A1.06,1.06,0,0,1,32.8,8H49.71a1.06,1.06,0,0,1,1.07,1.07v2.75a1.44,1.44,0,0,1-.2.71,7.4,7.4,0,0,1-.42.67L39.06,26.36H50.59a1,1,0,0,1,.75.31,1.08,1.08,0,0,1,.31.8V30a1.07,1.07,0,0,1-.29.75,1,1,0,0,1-.78.31H32.44A1,1,0,0,1,31.69,30.76Z"/><path class="cls-1" d="M68.81,30.6a7.53,7.53,0,0,1-3-2.46,6,6,0,0,1,1.35-8.3,14.65,14.65,0,0,1,6.7-2.53L80,16.42v-.93a3.92,3.92,0,0,0-1-2.88,4.26,4.26,0,0,0-3.11-1,4.54,4.54,0,0,0-2.35.53,7.42,7.42,0,0,0-1.44,1.09l-.73.73a.67.67,0,0,1-.67.53H67.24a1,1,0,0,1-.69-.27.92.92,0,0,1-.29-.71A4.69,4.69,0,0,1,67.35,11a8.49,8.49,0,0,1,3.22-2.44,12.37,12.37,0,0,1,5.37-1q5.24,0,7.63,2.35A8.26,8.26,0,0,1,86,16.07V30a1.07,1.07,0,0,1-.29.75,1,1,0,0,1-.78.31H81.22A1.06,1.06,0,0,1,80.15,30V28.27A7.28,7.28,0,0,1,77.4,30.6a9.69,9.69,0,0,1-4.44.91A9.43,9.43,0,0,1,68.81,30.6Zm9.65-4.95A6.35,6.35,0,0,0,80,21v-.89l-4.44.71q-5.1.8-5.1,3.42a2.48,2.48,0,0,0,1.18,2.2,5,5,0,0,0,2.82.78A5.33,5.33,0,0,0,78.47,25.65Z"/><path class="cls-1" d="M.29,79.94A1.05,1.05,0,0,1,0,79.16V76.54a1.07,1.07,0,0,1,.29-.75,1,1,0,0,1,.78-.31H2.22a2.83,2.83,0,0,0,2.51-1,5.06,5.06,0,0,0,.64-2.82V49.78A1,1,0,0,1,5.68,49a1.07,1.07,0,0,1,.75-.29h3.91a1,1,0,0,1,1.07,1.07V71.84A8.42,8.42,0,0,1,9.23,78q-2.18,2.2-6.44,2.2H1.07A1.05,1.05,0,0,1,.29,79.94ZM5.46,44.63a1,1,0,0,1-.31-.75V40.64a1.1,1.1,0,0,1,.31-.78,1,1,0,0,1,.75-.33h4.3a1,1,0,0,1,.75.31,1.09,1.09,0,0,1,.31.8v3.24a1.06,1.06,0,0,1-1.07,1.06H6.21A1,1,0,0,1,5.46,44.63Z"/><path class="cls-1" d="M19.48,69.58a10.31,10.31,0,0,1-3.06-7.37l0-2,0-2A10.25,10.25,0,0,1,19.53,51q2.88-2.68,8-2.69t8,2.69a10.26,10.26,0,0,1,3.11,7.35q0,.53,0,2t0,2a10.32,10.32,0,0,1-3.06,7.37q-2.84,2.66-8,2.66T19.48,69.58ZM21,44.28a1,1,0,0,1-.27-.71V40.28a1,1,0,0,1,.27-.73.92.92,0,0,1,.71-.29H25a1,1,0,0,1,1,1v3.28a.92.92,0,0,1-.29.71,1,1,0,0,1-.73.27H21.7A1,1,0,0,1,21,44.28Zm10.19,22A6.76,6.76,0,0,0,32.53,62q0-.44,0-1.73t0-1.73a6.78,6.78,0,0,0-1.38-4.33,4.5,4.5,0,0,0-3.59-1.49,4.55,4.55,0,0,0-3.64,1.49,6.77,6.77,0,0,0-1.38,4.33l0,1.73,0,1.73a6.67,6.67,0,0,0,1.38,4.3,4.59,4.59,0,0,0,3.64,1.46A4.52,4.52,0,0,0,31.18,66.29Zm-1.8-22a1,1,0,0,1-.27-.71V40.28a1,1,0,0,1,.27-.73.92.92,0,0,1,.71-.29h3.28a1,1,0,0,1,1,1v3.28a.92.92,0,0,1-.29.71,1,1,0,0,1-.73.27H30.09A1,1,0,0,1,29.38,44.28Z"/><path class="cls-1" d="M49.93,71.51a2,2,0,0,1-.58-.82L41,50.09a1.32,1.32,0,0,1,0-.4.94.94,0,0,1,.29-.69.89.89,0,0,1,.64-.29h3.68a1.18,1.18,0,0,1,1.2.84L52.64,65,58.5,49.56a1.26,1.26,0,0,1,.38-.58,1.1,1.1,0,0,1,.78-.27h3.68A.87.87,0,0,1,64,49a1,1,0,0,1,.27.69,1.35,1.35,0,0,1,0,.4l-8.3,20.59a1.65,1.65,0,0,1-1.6,1.11H51A1.58,1.58,0,0,1,49.93,71.51Z"/><path class="cls-1" d="M69.63,69.58a10.31,10.31,0,0,1-3.06-7.37l0-2,0-2A10.25,10.25,0,0,1,69.68,51q2.88-2.68,8-2.69t8,2.69a10.26,10.26,0,0,1,3.11,7.35q0,.53,0,2t0,2a10.32,10.32,0,0,1-3.06,7.37q-2.84,2.66-8,2.66T69.63,69.58Zm1.46-24.9a1.69,1.69,0,0,1,.22-.67l1.91-4.31a1.41,1.41,0,0,1,.6-.64,2.25,2.25,0,0,1,1-.2h3.64a.92.92,0,0,1,.64.22.83.83,0,0,1,0,1.2l-4,4.48a1.77,1.77,0,0,1-1.42.62h-2A.63.63,0,0,1,71.1,44.68ZM81.33,66.29A6.76,6.76,0,0,0,82.68,62q0-.44,0-1.73t0-1.73a6.78,6.78,0,0,0-1.38-4.33,4.5,4.5,0,0,0-3.59-1.49,4.55,4.55,0,0,0-3.64,1.49,6.77,6.77,0,0,0-1.38,4.33l0,1.73,0,1.73a6.67,6.67,0,0,0,1.38,4.3,4.59,4.59,0,0,0,3.64,1.46A4.52,4.52,0,0,0,81.33,66.29Zm-1.8-21.61a1.69,1.69,0,0,1,.22-.67l1.91-4.31a1.42,1.42,0,0,1,.6-.64,2.25,2.25,0,0,1,1-.2h3.64a.92.92,0,0,1,.64.22.83.83,0,0,1,0,1.2l-4,4.48a1.77,1.77,0,0,1-1.42.62h-2A.63.63,0,0,1,79.53,44.68Z"/></g></g></svg>