<svg xmlns="http://www.w3.org/2000/svg" viewBox="0 0 237.31 66.74"><defs><style>.cls-1{fill:#707070;}</style></defs><title>irish</title><g id="Layer_2" data-name="Layer 2"><g id="Layer_2-2" data-name="Layer 2"><path class="cls-1" d="M4.61,22.32A1.43,1.43,0,0,0,3,20.71H0V14.64H6.81c3.22,0,4.68,1.39,4.68,4.1v1.39c0,1.17-.07,2.12-.07,2.12h.15a14.36,14.36,0,0,1,12.66-8.49c6.29,0,9.88,2.85,11.2,8.42h.15a14.71,14.71,0,0,1,13.1-8.42c8.34,0,12.22,4.76,12.22,14.2V44a1.43,1.43,0,0,0,1.61,1.61h3v6.07h-7c-3.29,0-4.68-1.39-4.68-4.68V29.49c0-5.2-1-9.29-6.51-9.29-5.12,0-9.07,4.46-10.32,9.51a18,18,0,0,0-.66,5v16.9H29.2V29.49c0-4.83-.73-9.29-6.37-9.29-5.34,0-9.22,4.54-10.61,9.81a19.77,19.77,0,0,0-.51,4.76v16.9H4.61Z"/><path class="cls-1" d="M87.74,13.76c10.46,0,16,7.83,16,17.34a28.39,28.39,0,0,1-.22,3h-27c.44,8,6.15,12.29,12.81,12.29,5.63,0,9.66-3.44,10.9-4.32l3,5.2a23.89,23.89,0,0,1-14.34,5.27c-11.64,0-19.69-8.42-19.69-19.39C69.15,21.37,77.2,13.76,87.74,13.76ZM96.59,29c-.22-6.37-4.17-9.73-9-9.73-5.49,0-9.81,3.59-10.83,9.73Z"/><path class="cls-1" d="M112.32,22.32a1.43,1.43,0,0,0-1.61-1.61h-3V14.64h7c3.37,0,4.76,1.39,4.76,4.68V44A1.43,1.43,0,0,0,121,45.59h3v6.07h-7c-3.29,0-4.68-1.39-4.68-4.68ZM112.47,0h6.37V7.39h-6.37Z"/><path class="cls-1" d="M131.64,20.34h-4.83V14.64h5V4.46h7V14.64h8.93v5.71h-8.93v17c0,7.39,5.2,8.34,7.9,8.34a8.54,8.54,0,0,0,1.68-.15v6.29a19.44,19.44,0,0,1-2.49.15c-4.76,0-14.2-1.46-14.2-13.83Z"/><path class="cls-1" d="M155.2,41.27s4.46,5.49,11.27,5.49c3.44,0,6.37-1.54,6.37-4.76,0-6.66-20.12-5.93-20.12-17.86,0-7.1,6.22-10.39,13.76-10.39,4.39,0,12.15,1.54,12.15,7.17v3.51h-6.37V22.61c0-2.2-3.37-3.15-5.56-3.15-4.17,0-7,1.46-7,4.39,0,7,20.27,5.49,20.27,17.86,0,6.59-5.85,10.83-13.61,10.83A19,19,0,0,1,151.62,46Z"/><path class="cls-1" d="M188.57,22.32A1.43,1.43,0,0,0,187,20.71h-3V14.64h7c3.29,0,4.68,1.39,4.68,4.68V52.91c0,12.37-9.59,13.83-14.2,13.83a19.44,19.44,0,0,1-2.49-.15V60.52s.66.07,1.61.07c2.78,0,8-.88,8-8.12ZM188.72,0h6.37V7.39h-6.37Z"/><path class="cls-1" d="M221.35,13.76c10.46,0,16,7.83,16,17.34a28.39,28.39,0,0,1-.22,3h-27c.44,8,6.15,12.29,12.81,12.29,5.63,0,9.66-3.44,10.9-4.32l3,5.2a23.89,23.89,0,0,1-14.34,5.27c-11.64,0-19.69-8.42-19.69-19.39C202.77,21.37,210.82,13.76,221.35,13.76ZM230.21,29c-.22-6.37-4.17-9.73-9-9.73-5.49,0-9.81,3.59-10.83,9.73Z"/></g></g></svg>