<svg xmlns="http://www.w3.org/2000/svg" viewBox="0 0 221.78 107.77"><defs><style>.cls-1{fill:#707070;}</style></defs><title>japanese</title><g id="Layer_2" data-name="Layer 2"><g id="Layer_2-2" data-name="Layer 2"><path class="cls-1" d="M104.88,81.52v7.17H56.31v19h-8v-19H0V81.52H48.33V70.77H13.18V42.9H48.33V34.34H27.06V17.46h-25V10.52h25V0l9.71.58c-.12.81-.69,1.39-2.2,1.62v8.33H70.3V0l9.94.58c-.12.81-.69,1.39-2.31,1.62v8.33h25v6.94h-25V34.34H56.31V42.9H92.5V70.77H56.31V81.52ZM20.7,64.29H48.33v-15H20.7ZM34.57,17.46V28.1H70.3V17.46Zm50,31.8H56.31v15H84.53Z"/><path class="cls-1" d="M145.7,69.15C150,72.15,162.12,82,165,84.53l-4.63,5.9c-2.66-3-9.48-9.37-14.68-14v31.1h-7.63V75.62c-5.55,9.13-12.72,17.69-19.2,22.78a30.59,30.59,0,0,0-5.2-5.67c8.21-5.43,17.23-16.3,22.9-26.94h-20.7V59h22.2V46.72h-23.7V39.89h14.22a70.21,70.21,0,0,0-5-17.81l6.24-1.73a68.79,68.79,0,0,1,5.43,18.27L131,39.89h19.43c-1.5-.58-3.12-1.16-3.24-1.16A127.92,127.92,0,0,0,153.68,20l8.79,2.78c-.23.69-1,1-2.31,1.16-1.62,4.51-4.39,11.22-6.71,16h16.88v6.82H146.85a3.43,3.43,0,0,1-1.16.23V59h22.89v6.82H145.7Zm22.2-56.08v6.71H116.67V13.07h21.39V.12l9.83.58c-.12.81-.69,1.39-2.2,1.62V13.07Zm53.88,26.83v7.28H208.14v60.36h-7.63V47.18H182.24v4.28c0,17.34-2.2,40.24-18.85,56.31a17.41,17.41,0,0,0-5.43-5.44c15.15-14.57,16.88-34.57,16.88-51V11.1L180.5,13c12-3.47,25-8.21,32.26-12.49l7.75,5.9a2.82,2.82,0,0,1-2.43.35c-8.56,4.28-22.78,9-35.85,12.26V39.89Z"/></g></g></svg>