<svg xmlns="http://www.w3.org/2000/svg" viewBox="0 0 67.51 86.15"><defs><style>.cls-1{fill:aqua;}</style></defs><title>light-bulb</title><g id="Layer_2" data-name="Layer 2"><g id="Layer_2-2" data-name="Layer 2"><path class="cls-1" d="M38,74l-1.83,0-2.42,0-2.42,0c-3.77.05-6.05.08-7.53-1.38s-2-4.22-2-10.91c0-8.41-2.66-12-5-15.22a18.75,18.75,0,0,1-3.22-5.7,21.62,21.62,0,1,1,40.34,0,18.74,18.74,0,0,1-3.22,5.7c-2.34,3.19-5,6.81-5,15.22,0,6.69-.5,9.44-2,10.91C42.47,73.81,40.7,74,38,74Zm-4.26-1,2.44,0c3.52,0,5.64.08,6.84-1.1s1.7-3.91,1.7-10.22c0-8.73,2.76-12.48,5.19-15.8A18,18,0,0,0,53,40.46v0a20.65,20.65,0,1,0-38.52,0v0a18,18,0,0,0,3.08,5.43C20,49.21,22.76,53,22.76,61.69c0,6.3.45,9,1.7,10.22s3.32,1.15,6.84,1.1Z"/><rect class="cls-1" x="24.27" y="75.02" width="18.71" height="2.26" rx="1.06" ry="1.06"/><rect class="cls-1" x="24.27" y="78.03" width="18.71" height="2.26" rx="1.06" ry="1.06"/><rect class="cls-1" x="25.22" y="81.04" width="17.05" height="2.26" rx="1.06" ry="1.06"/><path class="cls-1" d="M35.43,84a.34.34,0,0,1,.33.4,2.17,2.17,0,0,1-4.27,0,.34.34,0,0,1,.33-.4Z"/><path class="cls-1" d="M50.63,29.95a.49.49,0,0,1-.47-.39l0-.16a15.57,15.57,0,0,0-7.84-10.78.49.49,0,0,1,.5-.84A16.49,16.49,0,0,1,51.08,29.2l0,.16a.49.49,0,0,1-.38.58Z"/><path class="cls-1" d="M49.93,36.67a.49.49,0,0,1-.44-.7,7,7,0,0,0,.65-3.14.49.49,0,1,1,1,0,8,8,0,0,1-.75,3.56A.49.49,0,0,1,49.93,36.67Z"/><path class="cls-1" d="M33.74,6.81a.49.49,0,0,1-.49-.49V.49a.49.49,0,1,1,1,0V6.33A.49.49,0,0,1,33.74,6.81Z"/><path class="cls-1" d="M24.18,8.5a.49.49,0,0,1-.46-.32l-2-5.49a.49.49,0,1,1,.91-.33l2,5.49a.49.49,0,0,1-.46.65Z"/><path class="cls-1" d="M15.78,13.36a.48.48,0,0,1-.37-.17L11.66,8.71a.49.49,0,0,1,.74-.62l3.75,4.47a.49.49,0,0,1-.37.8Z"/><path class="cls-1" d="M9.55,20.8a.48.48,0,0,1-.24-.07L4.25,17.81A.49.49,0,0,1,4.74,17l5.06,2.92a.49.49,0,0,1-.24.91Z"/><path class="cls-1" d="M6.24,29.92H6.15l-5.75-1a.49.49,0,1,1,.17-1l5.75,1a.49.49,0,0,1-.08,1Z"/><path class="cls-1" d="M.49,40.63a.49.49,0,0,1-.08-1l5.75-1a.49.49,0,1,1,.17,1l-5.75,1Z"/><path class="cls-1" d="M4.51,51.65a.49.49,0,0,1-.24-.91l5.06-2.92a.49.49,0,1,1,.49.84L4.75,51.59A.48.48,0,0,1,4.51,51.65Z"/><path class="cls-1" d="M63,51.63a.48.48,0,0,1-.24-.07l-5.06-2.92a.49.49,0,0,1,.49-.84l5.06,2.92a.49.49,0,0,1-.24.91Z"/><path class="cls-1" d="M67,40.6h-.08l-5.75-1a.49.49,0,1,1,.17-1l5.75,1a.49.49,0,0,1-.08,1Z"/><path class="cls-1" d="M61.26,29.88a.49.49,0,0,1-.08-1l5.75-1a.49.49,0,1,1,.17,1l-5.75,1Z"/><path class="cls-1" d="M57.94,20.77a.49.49,0,0,1-.24-.91l5.06-2.92a.49.49,0,0,1,.49.84L58.18,20.7A.48.48,0,0,1,57.94,20.77Z"/><path class="cls-1" d="M51.7,13.34a.49.49,0,0,1-.37-.8l3.75-4.47a.49.49,0,0,1,.74.62l-3.75,4.47A.48.48,0,0,1,51.7,13.34Z"/><path class="cls-1" d="M43.29,8.49a.49.49,0,0,1-.46-.65l2-5.49a.49.49,0,1,1,.91.33l-2,5.49A.49.49,0,0,1,43.29,8.49Z"/></g></g></svg>