<svg xmlns="http://www.w3.org/2000/svg" viewBox="0 0 39.83 39.83"><defs><style>.cls-1,.cls-2{fill:#2b2b2b;}.cls-2{fill-rule:evenodd;}</style></defs><title>linkedin-icon</title><g id="Layer_2" data-name="Layer 2"><g id="Layer_2-2" data-name="Layer 2"><path class="cls-1" d="M19.92,0A19.92,19.92,0,1,1,5.83,5.83,19.84,19.84,0,0,1,19.92,0Zm13,6.94a18.36,18.36,0,1,0-26,26,18.36,18.36,0,1,0,26-26Z"/><path class="cls-2" d="M10.93,20.1v8.8h4.19v-12H10.93Zm17.88.5c-.28-2.27-1.31-3.68-4.38-3.68-1.8,0-3,.66-3.52,1.62h-.06V16.92H17.51v12H21V23c0-1.57.31-3.08,2.23-3.08s2.07,1.79,2.07,3.19V28.9h3.6V22.32a14,14,0,0,0-.1-1.72ZM13,10.93A2.1,2.1,0,1,0,15.12,13,2.09,2.09,0,0,0,13,10.93Z"/></g></g></svg>