<svg xmlns="http://www.w3.org/2000/svg" viewBox="0 0 30.09 29.68"><defs><style>.cls-1{fill:#2b2b2b;fill-rule:evenodd;}</style></defs><title>phone-icon</title><g id="Layer_2" data-name="Layer 2"><g id="Layer_2-2" data-name="Layer 2"><path class="cls-1" d="M27.79,21.36c-.94-.74-2-1.4-2.93-2.08-2-1.33-3.77-1.43-5.23.72a2.33,2.33,0,0,1-3.18.74,13.8,13.8,0,0,1-7.4-7,4.27,4.27,0,0,1-.39-1.47A2.53,2.53,0,0,1,10,9.87,2.67,2.67,0,0,0,11.56,7.5C11.49,5.93,7.62.72,6.07.15a3,3,0,0,0-1.9,0C.59,1.35-.88,4.22.53,7.63A39.6,39.6,0,0,0,3.24,13,39.5,39.5,0,0,0,22.48,29.25a8.46,8.46,0,0,0,1.56.42c2.34,0,5.06-2.19,5.85-4.36s-.85-2.93-2.1-4Z"/></g></g></svg>