<svg xmlns="http://www.w3.org/2000/svg" viewBox="0 0 281.35 39.35"><defs><style>.cls-1{fill:#707070;}</style></defs><title>russian</title><g id="Layer_2" data-name="Layer 2"><g id="Layer_2-2" data-name="Layer 2"><path class="cls-1" d="M5,.67V13c0,4.67-.06,7.58-.3,11.76l.18.06c1.76-3.58,2.79-5.64,4.73-9L18.8.67H25V30H20V17.59c0-4.79.12-7.28.36-12h-.18c-1.88,3.76-3.15,6.12-4.85,9.1-2.79,4.55-6,10.19-9.16,15.34H0V.67Z"/><path class="cls-1" d="M38.87.67V12.49H52.81V.67h5.28V30H52.81V16.74H38.87V30H33.59V.67Z"/><path class="cls-1" d="M72,.67V12.49H85.92V.67H91.2V30H85.92V16.74H72V30H66.7V.67Z"/><path class="cls-1" d="M126.49,15.1c0,10.85-7.52,15.58-14.61,15.58-7.94,0-14.07-5.82-14.07-15.1C97.81,5.76,104.23,0,112.36,0,120.79,0,126.49,6.12,126.49,15.1Zm-23.29.3c0,6.43,3.7,11.28,8.91,11.28S121,21.89,121,15.28c0-5-2.49-11.28-8.79-11.28S103.2,9.82,103.2,15.4Z"/><path class="cls-1" d="M133.1,1a62.55,62.55,0,0,1,9.34-.67c4.91,0,13,.79,13,7.34,0,3.64-2.79,5.88-6.12,6.61v.12c4.31.61,7.46,3,7.46,7.28,0,7.7-9.7,8.67-15.46,8.67-3.27,0-6.67-.24-8.25-.36Zm5,25.47a32.28,32.28,0,0,0,4.31.24c3.58,0,8.91-.85,8.91-5.09s-4.24-5.15-9.34-5.15h-3.88ZM138.19,13h4c3.94,0,8-1.15,8-4.61,0-2.91-2.55-4.31-7.88-4.31a37.83,37.83,0,0,0-4.12.24Z"/><path class="cls-1" d="M179.79,30l-.42-3.7h-.18a10.93,10.93,0,0,1-9,4.37c-5.94,0-9-4.18-9-8.43,0-7.09,6.31-11,17.65-10.92v-.61c0-2.43-.67-6.79-6.67-6.79a14.62,14.62,0,0,0-7.64,2.18l-1.21-3.52A18.21,18.21,0,0,1,173,0c9,0,11.16,6.12,11.16,12V23a41.33,41.33,0,0,0,.49,7ZM179,15c-5.82-.12-12.43.91-12.43,6.61a4.72,4.72,0,0,0,5,5.09,7.3,7.3,0,0,0,7.09-4.91,5.58,5.58,0,0,0,.3-1.7Z"/><path class="cls-1" d="M197.92.67V25.83h13.52V.67h5.28V26l3,.06-.3,13.28h-4.12L215.08,30H192.64V.67Z"/><path class="cls-1" d="M231,.67V13c0,4.67-.06,7.58-.3,11.76l.18.06c1.76-3.58,2.79-5.64,4.73-9L244.79.67H251V30h-5.09V17.59c0-4.79.12-7.28.36-12h-.18c-1.88,3.76-3.15,6.12-4.85,9.1-2.79,4.55-6,10.19-9.16,15.34H226V.67Z"/><path class="cls-1" d="M281.35,30h-5.28V17.71h-3.94a6.94,6.94,0,0,0-4.91,1.64c-2.18,1.76-3,5.4-4.12,8.25A18.08,18.08,0,0,1,261.89,30h-5.7A19.14,19.14,0,0,0,258,26.68c1.27-2.85,2-6.67,4.61-8.85a7,7,0,0,1,3.33-1.7v-.18c-3.82-.42-7.76-2.79-7.76-7.28a7.07,7.07,0,0,1,3.88-6.37c2.43-1.39,6-2,9.82-2a81.73,81.73,0,0,1,9.46.61ZM276.08,4.18a29.84,29.84,0,0,0-4.43-.3c-3.64,0-7.94,1-7.94,5.09,0,3.76,4.67,5.09,7.82,5.09h4.55Z"/></g></g></svg>