<svg xmlns="http://www.w3.org/2000/svg" viewBox="0 0 450.59 96.03"><defs><style>.cls-1{fill:#707070;}</style></defs><title>spanish</title><g id="Layer_2" data-name="Layer 2"><g id="Layer_2-2" data-name="Layer 2"><path class="cls-1" d="M36.53.7a2.64,2.64,0,0,1,.64,1.85V40.81a2.64,2.64,0,0,1-.64,1.85,2.3,2.3,0,0,1-1.79.7,2.4,2.4,0,0,1-1.82-.7,2.56,2.56,0,0,1-.67-1.85V23.47H6.67V40.81A2.56,2.56,0,0,1,6,42.66a2.4,2.4,0,0,1-1.82.7,2.3,2.3,0,0,1-1.79-.7,2.64,2.64,0,0,1-.64-1.85V2.55A2.64,2.64,0,0,1,2.4.7,2.3,2.3,0,0,1,4.18,0,2.4,2.4,0,0,1,6,.7a2.57,2.57,0,0,1,.67,1.85V19.22H32.26V2.55A2.56,2.56,0,0,1,32.93.7,2.4,2.4,0,0,1,34.74,0,2.31,2.31,0,0,1,36.53.7Z"/><path class="cls-1" d="M51.87,41.6A12.52,12.52,0,0,1,47,36.23a18,18,0,0,1-1.73-8.09A18,18,0,0,1,47,20a12.53,12.53,0,0,1,4.91-5.37,14.22,14.22,0,0,1,7.37-1.88,14.39,14.39,0,0,1,7.4,1.88A12.47,12.47,0,0,1,71.58,20a18,18,0,0,1,1.73,8.1,18,18,0,0,1-1.73,8.09,12.46,12.46,0,0,1-4.94,5.37,14.38,14.38,0,0,1-7.4,1.88A14.21,14.21,0,0,1,51.87,41.6Zm14.07-5.06q2.33-2.88,2.33-8.4T65.91,19.8a8.07,8.07,0,0,0-6.67-2.94,8.07,8.07,0,0,0-6.67,2.94q-2.36,2.94-2.36,8.34t2.33,8.37a8.09,8.09,0,0,0,6.7,2.91A8.13,8.13,0,0,0,65.94,36.53Z"/><path class="cls-1" d="M81.34,42.72a2.3,2.3,0,0,1-.7-1.79V2.43a2.3,2.3,0,0,1,.7-1.79A2.55,2.55,0,0,1,83.13,0a2.47,2.47,0,0,1,1.73.64,2.31,2.31,0,0,1,.7,1.79v38.5a2.3,2.3,0,0,1-.7,1.79,2.47,2.47,0,0,1-1.73.64A2.55,2.55,0,0,1,81.34,42.72Z"/><path class="cls-1" d="M117.88,24.44V40.93a2.44,2.44,0,0,1-.64,1.76,2.28,2.28,0,0,1-1.73.67,2.29,2.29,0,0,1-2.43-2.43V38a8.67,8.67,0,0,1-3.52,4,10.36,10.36,0,0,1-5.46,1.42,12,12,0,0,1-5.25-1.15,9.36,9.36,0,0,1-3.79-3.21,7.93,7.93,0,0,1-1.39-4.55,7.39,7.39,0,0,1,1.7-5.18A10.3,10.3,0,0,1,101,26.71a55.14,55.14,0,0,1,10.79-.82h1.33v-2q0-3.64-1.49-5.34t-4.82-1.7a17.81,17.81,0,0,0-8.37,2.24,5.52,5.52,0,0,1-2.3,1,1.56,1.56,0,0,1-1.21-.55,2,2,0,0,1-.48-1.39,2.29,2.29,0,0,1,.52-1.49,6,6,0,0,1,1.67-1.3,19.52,19.52,0,0,1,4.82-1.91,21.39,21.39,0,0,1,5.37-.7Q117.88,12.79,117.88,24.44Zm-7.12,12.7a8.82,8.82,0,0,0,2.33-6.34V29H112a54.25,54.25,0,0,0-8.12.46,7.9,7.9,0,0,0-4,1.52,4,4,0,0,0-1.18,3.12A5,5,0,0,0,100.44,38a6.26,6.26,0,0,0,4.34,1.55A7.88,7.88,0,0,0,110.75,37.14Z"/><path class="cls-1" d="M131.61,37.69a5.63,5.63,0,0,1,.94,3.55,11.3,11.3,0,0,1-3.09,8.06,1.84,1.84,0,0,1-1.39.67,1.55,1.55,0,0,1-1.09-.45,1.41,1.41,0,0,1-.48-1.06A1.57,1.57,0,0,1,127,47.3a7.6,7.6,0,0,0,2-4.06,3.46,3.46,0,0,1-2.21-1,3.07,3.07,0,0,1-.88-2.27,3.42,3.42,0,0,1,.94-2.49,3.12,3.12,0,0,1,2.33-1A3,3,0,0,1,131.61,37.69Z"/><path class="cls-1" d="M187.09,24.74a10.7,10.7,0,0,1,2,6.67q0,5.64-3.7,8.64t-10.49,3H159.65a2.56,2.56,0,0,1-1.85-.67,2.32,2.32,0,0,1-.7-1.76V2.73A2.32,2.32,0,0,1,157.8,1,2.56,2.56,0,0,1,159.65.3h14.61q6.61,0,10.25,2.91a10,10,0,0,1,3.64,8.25,9.9,9.9,0,0,1-1.79,5.94,10.56,10.56,0,0,1-5,3.7A10.19,10.19,0,0,1,187.09,24.74ZM162,19.28h11.52q4.79,0,7.25-1.94a6.76,6.76,0,0,0,2.46-5.64q0-7.28-9.7-7.28H162Zm19.86,17.8q2.39-1.85,2.39-5.79,0-7.88-9.82-7.88H162V38.93h12.43Q179.48,38.93,181.88,37.08Z"/><path class="cls-1" d="M197.37,5.7a2.92,2.92,0,0,1-.91-2.24,2.85,2.85,0,0,1,.91-2.18,3.72,3.72,0,0,1,4.73,0A2.86,2.86,0,0,1,203,3.46a2.92,2.92,0,0,1-.91,2.24,3.72,3.72,0,0,1-4.73,0Zm.58,37a2.3,2.3,0,0,1-.7-1.79V15.34a2.3,2.3,0,0,1,.7-1.79,2.55,2.55,0,0,1,1.79-.64,2.44,2.44,0,0,1,1.76.64,2.36,2.36,0,0,1,.67,1.79V40.93a2.34,2.34,0,0,1-.67,1.82,2.51,2.51,0,0,1-1.76.61A2.55,2.55,0,0,1,197.95,42.72Z"/><path class="cls-1" d="M235.33,36.75a2,2,0,0,1,.49,1.39q0,1.52-2.12,2.79a18.37,18.37,0,0,1-4.61,1.91,18.58,18.58,0,0,1-4.73.64q-6.85,0-10.82-4.06t-4-11.22a17.6,17.6,0,0,1,1.76-8,13.12,13.12,0,0,1,4.94-5.43,13.65,13.65,0,0,1,7.25-1.94,11.73,11.73,0,0,1,9.16,3.76q3.4,3.76,3.4,10.19a2.61,2.61,0,0,1-.48,1.76A2,2,0,0,1,234,29H214.47q.54,10.43,9.88,10.43a11.59,11.59,0,0,0,4.06-.64,26.48,26.48,0,0,0,3.64-1.73,5.76,5.76,0,0,1,2.12-.91A1.49,1.49,0,0,1,235.33,36.75ZM217.35,19a11.08,11.08,0,0,0-2.76,6.85h17.16q-.12-4.49-2.24-6.88a7.53,7.53,0,0,0-5.94-2.4A8.23,8.23,0,0,0,217.35,19Z"/><path class="cls-1" d="M268.74,24.5V40.93a2.21,2.21,0,0,1-2.43,2.43,2.53,2.53,0,0,1-1.82-.64,2.35,2.35,0,0,1-.67-1.79V24.8q0-4.12-1.61-6t-5.12-1.88a8.65,8.65,0,0,0-6.49,2.49,9.23,9.23,0,0,0-2.43,6.73v14.8a2.21,2.21,0,0,1-2.42,2.43,2.53,2.53,0,0,1-1.82-.64,2.35,2.35,0,0,1-.67-1.79V15.34a2.38,2.38,0,0,1,.67-1.76,2.46,2.46,0,0,1,1.82-.67,2.27,2.27,0,0,1,1.73.67,2.36,2.36,0,0,1,.64,1.7v3.09a10,10,0,0,1,4.06-4.15,12.2,12.2,0,0,1,5.94-1.42Q268.74,12.79,268.74,24.5Z"/><path class="cls-1" d="M301.12,13a2.49,2.49,0,0,1,1.64.61,1.89,1.89,0,0,1,.73,1.52,1.92,1.92,0,0,1-.24,1L291.42,41.54a2.84,2.84,0,0,1-1.09,1.24,2.92,2.92,0,0,1-1.58.46,2.82,2.82,0,0,1-1.52-.46,3.25,3.25,0,0,1-1.15-1.24L274.32,16.07a1.8,1.8,0,0,1-.24-.91,2,2,0,0,1,.82-1.58,2.77,2.77,0,0,1,1.79-.67,2.19,2.19,0,0,1,1.18.36,2.32,2.32,0,0,1,.88,1L288.87,37,299,14.43A2.22,2.22,0,0,1,301.12,13Z"/><path class="cls-1" d="M332.53,36.75a2,2,0,0,1,.49,1.39q0,1.52-2.12,2.79a18.37,18.37,0,0,1-4.61,1.91,18.58,18.58,0,0,1-4.73.64q-6.85,0-10.82-4.06t-4-11.22a17.6,17.6,0,0,1,1.76-8,13.12,13.12,0,0,1,4.94-5.43,13.65,13.65,0,0,1,7.25-1.94,11.73,11.73,0,0,1,9.16,3.76q3.4,3.76,3.4,10.19a2.61,2.61,0,0,1-.48,1.76,2,2,0,0,1-1.58.55H311.67q.54,10.43,9.88,10.43a11.59,11.59,0,0,0,4.06-.64,26.48,26.48,0,0,0,3.64-1.73,5.76,5.76,0,0,1,2.12-.91A1.49,1.49,0,0,1,332.53,36.75ZM314.55,19a11.08,11.08,0,0,0-2.76,6.85H329q-.12-4.49-2.24-6.88a7.53,7.53,0,0,0-5.94-2.4A8.23,8.23,0,0,0,314.55,19Z"/><path class="cls-1" d="M365.94,24.5V40.93a2.21,2.21,0,0,1-2.43,2.43,2.53,2.53,0,0,1-1.82-.64,2.35,2.35,0,0,1-.67-1.79V24.8q0-4.12-1.61-6t-5.12-1.88a8.65,8.65,0,0,0-6.49,2.49,9.23,9.23,0,0,0-2.43,6.73v14.8A2.21,2.21,0,0,1,343,43.36a2.53,2.53,0,0,1-1.82-.64,2.35,2.35,0,0,1-.67-1.79V15.34a2.38,2.38,0,0,1,.67-1.76,2.46,2.46,0,0,1,1.82-.67,2.27,2.27,0,0,1,1.73.67,2.36,2.36,0,0,1,.64,1.7v3.09a10,10,0,0,1,4.06-4.15,12.2,12.2,0,0,1,5.94-1.42Q365.94,12.79,365.94,24.5Z"/><path class="cls-1" d="M375,5.7a2.92,2.92,0,0,1-.91-2.24A2.85,2.85,0,0,1,375,1.27a3.72,3.72,0,0,1,4.73,0,2.86,2.86,0,0,1,.91,2.18,2.92,2.92,0,0,1-.91,2.24,3.72,3.72,0,0,1-4.73,0Zm.58,37a2.3,2.3,0,0,1-.7-1.79V15.34a2.3,2.3,0,0,1,.7-1.79,2.55,2.55,0,0,1,1.79-.64,2.44,2.44,0,0,1,1.76.64,2.36,2.36,0,0,1,.67,1.79V40.93a2.34,2.34,0,0,1-.67,1.82,2.51,2.51,0,0,1-1.76.61A2.55,2.55,0,0,1,375.61,42.72Z"/><path class="cls-1" d="M414.51.67a2.3,2.3,0,0,1,.67,1.7V40.93a2.38,2.38,0,0,1-.67,1.76,2.46,2.46,0,0,1-1.82.67,2.36,2.36,0,0,1-1.79-.67,2.44,2.44,0,0,1-.64-1.76V37.66A9.74,9.74,0,0,1,406.35,42a11.68,11.68,0,0,1-6,1.52,12.24,12.24,0,0,1-6.85-1.94,12.79,12.79,0,0,1-4.61-5.43,18.85,18.85,0,0,1-1.64-8.1,18.5,18.5,0,0,1,1.64-8,12.16,12.16,0,0,1,11.46-7.22,11.68,11.68,0,0,1,6,1.52,9.75,9.75,0,0,1,3.91,4.31V2.36A2.34,2.34,0,0,1,410.9.64,2.42,2.42,0,0,1,412.69,0,2.46,2.46,0,0,1,414.51.67Zm-6.58,35.81q2.33-2.94,2.33-8.34t-2.33-8.31a8,8,0,0,0-6.64-2.91,8.2,8.2,0,0,0-6.7,2.91q-2.4,2.91-2.39,8.19t2.39,8.4a8.09,8.09,0,0,0,6.7,3A8,8,0,0,0,407.93,36.47Z"/><path class="cls-1" d="M429.15,41.6a12.52,12.52,0,0,1-4.91-5.37,18,18,0,0,1-1.73-8.09,18,18,0,0,1,1.73-8.1,12.53,12.53,0,0,1,4.91-5.37,14.23,14.23,0,0,1,7.37-1.88,14.39,14.39,0,0,1,7.4,1.88A12.48,12.48,0,0,1,448.86,20a18,18,0,0,1,1.73,8.1,18,18,0,0,1-1.73,8.09,12.47,12.47,0,0,1-4.94,5.37,14.38,14.38,0,0,1-7.4,1.88A14.22,14.22,0,0,1,429.15,41.6Zm14.07-5.06q2.33-2.88,2.33-8.4t-2.36-8.34a9,9,0,0,0-13.34,0q-2.36,2.94-2.36,8.34t2.33,8.37a9.2,9.2,0,0,0,13.4,0Z"/><path class="cls-1" d="M24.19,77V93.48a2.44,2.44,0,0,1-.64,1.76,2.28,2.28,0,0,1-1.73.67,2.29,2.29,0,0,1-2.43-2.43V90.57a8.67,8.67,0,0,1-3.52,4A10.36,10.36,0,0,1,10.43,96a12,12,0,0,1-5.25-1.15,9.36,9.36,0,0,1-3.79-3.21A7.93,7.93,0,0,1,0,87.11a7.39,7.39,0,0,1,1.7-5.18,10.3,10.3,0,0,1,5.58-2.67,55.14,55.14,0,0,1,10.79-.82H19.4v-2q0-3.64-1.49-5.34t-4.82-1.7a17.81,17.81,0,0,0-8.37,2.24,5.52,5.52,0,0,1-2.3,1,1.56,1.56,0,0,1-1.21-.55,2,2,0,0,1-.48-1.39,2.29,2.29,0,0,1,.52-1.49A6,6,0,0,1,2.91,68,19.52,19.52,0,0,1,7.73,66a21.39,21.39,0,0,1,5.37-.7Q24.19,65.35,24.19,77Zm-7.12,12.7a8.82,8.82,0,0,0,2.33-6.34V81.6H18.31a54.25,54.25,0,0,0-8.13.46,7.9,7.9,0,0,0-4,1.52A4,4,0,0,0,5,86.69,5,5,0,0,0,6.76,90.6a6.26,6.26,0,0,0,4.34,1.55A7.88,7.88,0,0,0,17.07,89.69Z"/><path class="cls-1" d="M33.87,95.27a2.3,2.3,0,0,1-.7-1.79V55a2.3,2.3,0,0,1,.7-1.79,2.55,2.55,0,0,1,1.79-.64,2.47,2.47,0,0,1,1.73.64,2.31,2.31,0,0,1,.7,1.79v38.5a2.3,2.3,0,0,1-.7,1.79,2.47,2.47,0,0,1-1.73.64A2.55,2.55,0,0,1,33.87,95.27Z"/><path class="cls-1" d="M71.07,58.77a7.71,7.71,0,0,0-1.64,5.37v1.94h6.73a2.14,2.14,0,0,1,1.58.55,2,2,0,0,1,.55,1.46,1.77,1.77,0,0,1-.55,1.4,2.3,2.3,0,0,1-1.58.48H69.43V93.48a2.3,2.3,0,0,1-.7,1.79,2.47,2.47,0,0,1-1.73.64,2.55,2.55,0,0,1-1.79-.64,2.3,2.3,0,0,1-.7-1.79V70H60.45a2.32,2.32,0,0,1-1.61-.52,1.74,1.74,0,0,1-.58-1.36,1.91,1.91,0,0,1,.58-1.46,2.24,2.24,0,0,1,1.61-.55h4.06V65q0-5.46,2.73-8.58a10.93,10.93,0,0,1,7.82-3.49l1.58-.12a4,4,0,0,1,2.27.3,1.63,1.63,0,0,1,.7,1.52q0,1.76-2.12,2l-1.58.12A7,7,0,0,0,71.07,58.77Z"/><path class="cls-1" d="M107,66.13a2.44,2.44,0,0,1,.64,1.76V93.54a2.49,2.49,0,0,1-4.15,1.73,2.25,2.25,0,0,1-.64-1.67v-3a9.61,9.61,0,0,1-3.91,4.06A11.49,11.49,0,0,1,93.26,96Q88,96,85.31,93.09t-2.67-8.7V67.89a2.38,2.38,0,0,1,.67-1.76,2.46,2.46,0,0,1,1.82-.67,2.35,2.35,0,0,1,1.79.67,2.44,2.44,0,0,1,.64,1.76V84.27q0,3.94,1.58,5.79t5,1.85a8.17,8.17,0,0,0,6.25-2.52,9.3,9.3,0,0,0,2.36-6.64V67.89a2.38,2.38,0,0,1,.67-1.76,2.46,2.46,0,0,1,1.82-.67A2.35,2.35,0,0,1,107,66.13Z"/><path class="cls-1" d="M132.55,94a1.74,1.74,0,0,1-.76,1.55,3.56,3.56,0,0,1-2.27.39l-1.64-.12q-4.85-.36-7.15-2.91t-2.3-7.7V70h-4.06a2.32,2.32,0,0,1-1.61-.52,1.74,1.74,0,0,1-.58-1.36,1.91,1.91,0,0,1,.58-1.46,2.24,2.24,0,0,1,1.61-.55h4.06V59.22a2.35,2.35,0,0,1,.67-1.79,2.53,2.53,0,0,1,1.82-.64,2.44,2.44,0,0,1,1.76.64,2.36,2.36,0,0,1,.67,1.79v6.85h6.73a2.16,2.16,0,0,1,1.55.55,1.91,1.91,0,0,1,.58,1.46,1.74,1.74,0,0,1-.58,1.36,2.24,2.24,0,0,1-1.55.52h-6.73V85.42q0,3.34,1.36,4.82a5.85,5.85,0,0,0,4.09,1.67l1.64.12Q132.55,92.21,132.55,94Z"/><path class="cls-1" d="M161.63,66.13a2.44,2.44,0,0,1,.64,1.76V93.54a2.24,2.24,0,0,1-2.43,2.36,2.34,2.34,0,0,1-1.73-.64,2.26,2.26,0,0,1-.64-1.67v-3a9.6,9.6,0,0,1-3.91,4.06A11.49,11.49,0,0,1,147.89,96q-5.28,0-7.94-2.94t-2.67-8.7V67.89a2.38,2.38,0,0,1,.67-1.76,2.46,2.46,0,0,1,1.82-.67,2.36,2.36,0,0,1,1.79.67,2.44,2.44,0,0,1,.64,1.76V84.27q0,3.94,1.58,5.79t5,1.85A8.17,8.17,0,0,0,155,89.39a9.3,9.3,0,0,0,2.36-6.64V67.89a2.38,2.38,0,0,1,.67-1.76,2.46,2.46,0,0,1,1.82-.67A2.36,2.36,0,0,1,161.63,66.13Z"/><path class="cls-1" d="M188.58,67.53a2.15,2.15,0,0,1-.55,1.55,2.9,2.9,0,0,1-1.88.7l-1.82.18a8.18,8.18,0,0,0-6,2.88,9.31,9.31,0,0,0-2,5.91V93.48a2.34,2.34,0,0,1-.67,1.82,2.51,2.51,0,0,1-1.76.61,2.55,2.55,0,0,1-1.79-.64,2.3,2.3,0,0,1-.7-1.79V67.89a2.25,2.25,0,0,1,.73-1.79,2.58,2.58,0,0,1,1.76-.64,2.23,2.23,0,0,1,2.3,2.36v3.4a9.21,9.21,0,0,1,3.61-4.06,12.2,12.2,0,0,1,5.37-1.64l.85-.06Q188.58,65.29,188.58,67.53Z"/><path class="cls-1" d="M197.1,94.15a12.52,12.52,0,0,1-4.91-5.37,19.82,19.82,0,0,1,0-16.19,12.53,12.53,0,0,1,4.91-5.37,14.23,14.23,0,0,1,7.37-1.88,14.39,14.39,0,0,1,7.4,1.88,12.48,12.48,0,0,1,4.94,5.37,19.82,19.82,0,0,1,0,16.19,12.47,12.47,0,0,1-4.94,5.37,14.38,14.38,0,0,1-7.4,1.88A14.22,14.22,0,0,1,197.1,94.15Zm14.07-5.06q2.33-2.88,2.33-8.4t-2.36-8.34a9,9,0,0,0-13.34,0q-2.36,2.94-2.36,8.34t2.33,8.37a9.2,9.2,0,0,0,13.4,0Z"/><path class="cls-1" d="M224.84,95a3.26,3.26,0,0,1-1-2.46,3.37,3.37,0,0,1,1-2.49,3.29,3.29,0,0,1,2.43-1,3.12,3.12,0,0,1,2.33,1,3.43,3.43,0,0,1,.94,2.49A3.32,3.32,0,0,1,229.6,95a3.17,3.17,0,0,1-2.33.94A3.34,3.34,0,0,1,224.84,95Z"/></g></g></svg>