<svg xmlns="http://www.w3.org/2000/svg" viewBox="0 0 337.35 118.23"><defs><style>.cls-1{fill:#707070;}</style></defs><title>this-is-the-future</title><g id="Layer_2" data-name="Layer 2"><g id="Layer_2-2" data-name="Layer 2"><path class="cls-1" d="M9.74,32.2a1.79,1.79,0,0,1-.46-1.39L11.43,3.47H1.65A1.63,1.63,0,0,1,.43,3,1.51,1.51,0,0,1,0,1.92,1.59,1.59,0,0,1,.46.71,1.85,1.85,0,0,1,1.78.27H25.23a1.68,1.68,0,0,1,1.23.41,1.54,1.54,0,0,1,.41,1.14q0,1.65-1.78,1.65H15.17L13,30.94a2,2,0,0,1-.62,1.28,1.87,1.87,0,0,1-1.35.5A1.75,1.75,0,0,1,9.74,32.2Z"/><path class="cls-1" d="M46.48,11.65a7.74,7.74,0,0,1,2,5.71,12.23,12.23,0,0,1,0,1.23l-1,12.29a2,2,0,0,1-.64,1.37,2,2,0,0,1-1.33.46,1.88,1.88,0,0,1-1.35-.46,1.58,1.58,0,0,1-.39-1.37l1-12.07a7.4,7.4,0,0,0,0-1q0-5.07-4.89-5.07a6.62,6.62,0,0,0-4.94,1.85,7.93,7.93,0,0,0-2.1,5.1L31.9,30.9a1.81,1.81,0,0,1-.59,1.37,2.07,2.07,0,0,1-1.37.46,1.81,1.81,0,0,1-1.3-.46,1.68,1.68,0,0,1-.43-1.37L30.53,1.69A1.6,1.6,0,0,1,31.17.46,2.19,2.19,0,0,1,32.54,0a1.79,1.79,0,0,1,1.28.43,1.53,1.53,0,0,1,.41,1.26l-1,11.88a8,8,0,0,1,3.13-2.88,9.36,9.36,0,0,1,4.36-1A7.74,7.74,0,0,1,46.48,11.65Z"/><path class="cls-1" d="M54.62,32.27a1.64,1.64,0,0,1-.46-1.37l1.6-19.38a1.65,1.65,0,0,1,.62-1.3,2.16,2.16,0,0,1,1.35-.43,1.89,1.89,0,0,1,1.28.43,1.52,1.52,0,0,1,.46,1.3L57.86,30.9a1.78,1.78,0,0,1-.62,1.37,2.1,2.1,0,0,1-1.35.46A1.83,1.83,0,0,1,54.62,32.27ZM56.54,4.34a2.2,2.2,0,0,1-.69-1.69A2.15,2.15,0,0,1,56.54,1,2.8,2.8,0,0,1,60.1,1a2.15,2.15,0,0,1,.69,1.65,2.2,2.2,0,0,1-.69,1.69,2.8,2.8,0,0,1-3.57,0Z"/><path class="cls-1" d="M67.94,32.18a11.47,11.47,0,0,1-3.5-1.65,1.82,1.82,0,0,1-.91-1.6,1.55,1.55,0,0,1,.39-1.07,1.26,1.26,0,0,1,1-.43,1.7,1.7,0,0,1,.87.27A13.92,13.92,0,0,0,69,29.3a11.22,11.22,0,0,0,3.57.55q5.35,0,5.35-3.29a2.41,2.41,0,0,0-1.28-2.24,20.55,20.55,0,0,0-4-1.55,30.43,30.43,0,0,1-3.82-1.33,6.85,6.85,0,0,1-2.47-1.85,4.81,4.81,0,0,1-1-3.22,5.76,5.76,0,0,1,2.45-4.84,10.54,10.54,0,0,1,6.47-1.83,12.27,12.27,0,0,1,4.07.69,8.92,8.92,0,0,1,3.15,1.78,1.61,1.61,0,0,1,.69,1.37,1.58,1.58,0,0,1-.39,1.05,1.19,1.19,0,0,1-.94.46,1.77,1.77,0,0,1-1.05-.41,9.3,9.3,0,0,0-5.62-1.92,7.15,7.15,0,0,0-3.86.87,2.89,2.89,0,0,0-1.35,2.6,2.4,2.4,0,0,0,1.3,2.24,20,20,0,0,0,4,1.51A32.89,32.89,0,0,1,78,21.25a6.7,6.7,0,0,1,2.49,1.87,4.9,4.9,0,0,1,1,3.25A5.46,5.46,0,0,1,79,31.08a11.4,11.4,0,0,1-6.67,1.74A15.23,15.23,0,0,1,67.94,32.18Z"/><path class="cls-1" d="M99,32.27a1.64,1.64,0,0,1-.46-1.37l1.6-19.38a1.65,1.65,0,0,1,.62-1.3,2.16,2.16,0,0,1,1.35-.43,1.89,1.89,0,0,1,1.28.43,1.52,1.52,0,0,1,.46,1.3L102.2,30.9a1.78,1.78,0,0,1-.62,1.37,2.1,2.1,0,0,1-1.35.46A1.83,1.83,0,0,1,99,32.27Zm1.92-27.93a2.2,2.2,0,0,1-.69-1.69A2.15,2.15,0,0,1,100.87,1a2.8,2.8,0,0,1,3.57,0,2.15,2.15,0,0,1,.69,1.65,2.2,2.2,0,0,1-.69,1.69,2.8,2.8,0,0,1-3.57,0Z"/><path class="cls-1" d="M112.27,32.18a11.47,11.47,0,0,1-3.5-1.65,1.82,1.82,0,0,1-.91-1.6,1.55,1.55,0,0,1,.39-1.07,1.26,1.26,0,0,1,1-.43,1.7,1.7,0,0,1,.87.27,13.92,13.92,0,0,0,3.25,1.6,11.22,11.22,0,0,0,3.57.55q5.35,0,5.35-3.29A2.41,2.41,0,0,0,121,24.32a20.55,20.55,0,0,0-4-1.55,30.43,30.43,0,0,1-3.82-1.33,6.85,6.85,0,0,1-2.47-1.85,4.81,4.81,0,0,1-1-3.22,5.76,5.76,0,0,1,2.45-4.84,10.54,10.54,0,0,1,6.47-1.83,12.27,12.27,0,0,1,4.07.69,8.92,8.92,0,0,1,3.15,1.78,1.61,1.61,0,0,1,.69,1.37,1.58,1.58,0,0,1-.39,1.05,1.19,1.19,0,0,1-.94.46,1.77,1.77,0,0,1-1.05-.41,9.3,9.3,0,0,0-5.62-1.92,7.15,7.15,0,0,0-3.86.87,2.89,2.89,0,0,0-1.35,2.6,2.4,2.4,0,0,0,1.3,2.24,20,20,0,0,0,4,1.51,32.89,32.89,0,0,1,3.79,1.33,6.7,6.7,0,0,1,2.49,1.87,4.9,4.9,0,0,1,1,3.25,5.46,5.46,0,0,1-2.47,4.71,11.4,11.4,0,0,1-6.67,1.74A15.23,15.23,0,0,1,112.27,32.18Z"/><path class="cls-1" d="M148.31,24.45a6.77,6.77,0,0,0,0,.91,4.9,4.9,0,0,0,1,3.34,3.57,3.57,0,0,0,2.83,1.14,9.29,9.29,0,0,0,1.14-.07,7.23,7.23,0,0,1,.82-.07.93.93,0,0,1,.75.37,1.55,1.55,0,0,1,.3,1,1.38,1.38,0,0,1-.8,1.35,7.1,7.1,0,0,1-2.81.39,6.82,6.82,0,0,1-5.12-1.87,7.28,7.28,0,0,1-1.83-5.3,8.4,8.4,0,0,1,0-1l.87-11.47h-3a1.52,1.52,0,0,1-1.12-.39,1.39,1.39,0,0,1-.39-1,1.42,1.42,0,0,1,.43-1.12,1.76,1.76,0,0,1,1.21-.39h3.11L146.12,5a2,2,0,0,1,.62-1.26,1.92,1.92,0,0,1,1.35-.48,1.78,1.78,0,0,1,1.35.5,1.57,1.57,0,0,1,.39,1.33l-.41,5.12h5a1.54,1.54,0,0,1,1.1.39,1.35,1.35,0,0,1,.41,1,1.47,1.47,0,0,1-.41,1.12,1.67,1.67,0,0,1-1.19.39h-5.17Z"/><path class="cls-1" d="M176.65,11.65a7.74,7.74,0,0,1,2,5.71,12.23,12.23,0,0,1,0,1.23l-1,12.29a2,2,0,0,1-.64,1.37,2,2,0,0,1-1.33.46,1.88,1.88,0,0,1-1.35-.46,1.58,1.58,0,0,1-.39-1.37l1-12.07a7.4,7.4,0,0,0,0-1q0-5.07-4.89-5.07a6.62,6.62,0,0,0-4.94,1.85,7.93,7.93,0,0,0-2.1,5.1l-.91,11.15a1.81,1.81,0,0,1-.59,1.37,2.07,2.07,0,0,1-1.37.46,1.81,1.81,0,0,1-1.3-.46,1.68,1.68,0,0,1-.43-1.37L160.7,1.69a1.6,1.6,0,0,1,.64-1.23A2.19,2.19,0,0,1,162.71,0,1.79,1.79,0,0,1,164,.43a1.53,1.53,0,0,1,.41,1.26l-1,11.88a8,8,0,0,1,3.13-2.88,9.36,9.36,0,0,1,4.36-1A7.74,7.74,0,0,1,176.65,11.65Z"/><path class="cls-1" d="M187.48,21.94v.18a8.19,8.19,0,0,0,1.81,5.67,6.67,6.67,0,0,0,5.23,2,10.46,10.46,0,0,0,6.35-2,1.59,1.59,0,0,1,.91-.32,1.11,1.11,0,0,1,.89.41,1.45,1.45,0,0,1,.34,1,2,2,0,0,1-.73,1.51,9.28,9.28,0,0,1-3.45,1.78,15.15,15.15,0,0,1-4.5.69,10.27,10.27,0,0,1-7.7-2.92A10.77,10.77,0,0,1,183.78,22a14.63,14.63,0,0,1,1.35-6.44A10.24,10.24,0,0,1,189,11.24a10.7,10.7,0,0,1,5.78-1.55,8.69,8.69,0,0,1,6.86,2.67Q204,15,204,20.11a1.88,1.88,0,0,1-.46,1.35,1.63,1.63,0,0,1-1.23.48ZM190,14.37a8.9,8.9,0,0,0-2.33,5.19h13a7.32,7.32,0,0,0-1.39-5.21,5.44,5.44,0,0,0-4.37-1.78A6.66,6.66,0,0,0,190,14.37Z"/><path class="cls-1" d="M234.72.48a1.23,1.23,0,0,1,.48,1.07q0,1.42-1.55,1.55l-1.33.09a5.58,5.58,0,0,0-3.88,1.58A6.86,6.86,0,0,0,226.93,9l-.09,1.28h5a1.52,1.52,0,0,1,1.12.39,1.39,1.39,0,0,1,.39,1,1.49,1.49,0,0,1-.41,1.1,1.61,1.61,0,0,1-1.19.41h-5.12l-1.42,17.78a1.75,1.75,0,0,1-.59,1.33,2,2,0,0,1-1.33.46,1.92,1.92,0,0,1-1.3-.46,1.54,1.54,0,0,1-.48-1.33l1.42-17.78h-3.06a1.52,1.52,0,0,1-1.12-.39,1.39,1.39,0,0,1-.39-1,1.48,1.48,0,0,1,.41-1.1,1.68,1.68,0,0,1,1.23-.41h3.15l0-.82q.32-4.43,2.6-6.65A10.11,10.11,0,0,1,232.41.27l.91,0A2,2,0,0,1,234.72.48Z"/><path class="cls-1" d="M255.1,10.26a1.57,1.57,0,0,1,.39,1.35L253.94,31a1.63,1.63,0,0,1-.62,1.23,2.1,2.1,0,0,1-1.35.46,1.72,1.72,0,0,1-1.23-.43,1.46,1.46,0,0,1-.41-1.21l.18-2.19a7.89,7.89,0,0,1-3.06,2.9,9,9,0,0,1-4.3,1,7.57,7.57,0,0,1-5.62-1.94,7.77,7.77,0,0,1-1.92-5.69,11.94,11.94,0,0,1,0-1.23l1-12.34a2,2,0,0,1,.66-1.35,2,2,0,0,1,1.35-.48,1.76,1.76,0,0,1,1.3.48,1.57,1.57,0,0,1,.39,1.35l-1,12.11a7.24,7.24,0,0,0,0,1q0,5,4.8,5a6.33,6.33,0,0,0,4.75-1.83,7.79,7.79,0,0,0,2-5.07l.91-11.2a2,2,0,0,1,.66-1.35,2,2,0,0,1,1.35-.48A1.76,1.76,0,0,1,255.1,10.26Z"/><path class="cls-1" d="M266.32,24.45a6.77,6.77,0,0,0,0,.91,4.9,4.9,0,0,0,1,3.34,3.57,3.57,0,0,0,2.83,1.14,9.29,9.29,0,0,0,1.14-.07,7.23,7.23,0,0,1,.82-.07.93.93,0,0,1,.75.37,1.55,1.55,0,0,1,.3,1,1.38,1.38,0,0,1-.8,1.35,7.1,7.1,0,0,1-2.81.39,6.82,6.82,0,0,1-5.12-1.87,7.28,7.28,0,0,1-1.83-5.3,8.4,8.4,0,0,1,0-1l.87-11.47h-3a1.52,1.52,0,0,1-1.12-.39,1.39,1.39,0,0,1-.39-1,1.42,1.42,0,0,1,.43-1.12,1.76,1.76,0,0,1,1.21-.39h3.11L264.13,5a2,2,0,0,1,.62-1.26,1.92,1.92,0,0,1,1.35-.48,1.78,1.78,0,0,1,1.35.5,1.57,1.57,0,0,1,.39,1.33l-.41,5.12h5a1.54,1.54,0,0,1,1.1.39,1.35,1.35,0,0,1,.41,1,1.47,1.47,0,0,1-.41,1.12,1.67,1.67,0,0,1-1.19.39h-5.17Z"/><path class="cls-1" d="M296.28,10.26a1.57,1.57,0,0,1,.39,1.35L295.12,31a1.63,1.63,0,0,1-.62,1.23,2.1,2.1,0,0,1-1.35.46,1.72,1.72,0,0,1-1.23-.43,1.46,1.46,0,0,1-.41-1.21l.18-2.19a7.89,7.89,0,0,1-3.06,2.9,9,9,0,0,1-4.3,1,7.57,7.57,0,0,1-5.62-1.94,7.77,7.77,0,0,1-1.92-5.69,11.94,11.94,0,0,1,0-1.23l1-12.34a2,2,0,0,1,.66-1.35,2,2,0,0,1,1.35-.48,1.76,1.76,0,0,1,1.3.48,1.57,1.57,0,0,1,.39,1.35l-1,12.11a7.24,7.24,0,0,0,0,1q0,5,4.8,5A6.33,6.33,0,0,0,290,27.88a7.79,7.79,0,0,0,2-5.07l.91-11.2a2,2,0,0,1,.66-1.35A2,2,0,0,1,295,9.78,1.76,1.76,0,0,1,296.28,10.26Z"/><path class="cls-1" d="M316.12,10.08a1.43,1.43,0,0,1,.43,1.12q0,1.65-1.78,1.78l-1.23.14a8,8,0,0,0-5,2,7.1,7.1,0,0,0-1.9,4.71l-.91,11.11a1.78,1.78,0,0,1-.62,1.37,2.1,2.1,0,0,1-1.35.46,1.83,1.83,0,0,1-1.28-.46A1.64,1.64,0,0,1,302,30.9l1.6-19.38a1.67,1.67,0,0,1,.62-1.28,2.1,2.1,0,0,1,1.35-.46,1.64,1.64,0,0,1,1.21.43,1.57,1.57,0,0,1,.39,1.26L307,13.85A7.89,7.89,0,0,1,310,11a11.59,11.59,0,0,1,4.39-1.19l.5,0A1.48,1.48,0,0,1,316.12,10.08Z"/><path class="cls-1" d="M320.85,21.94v.18a8.19,8.19,0,0,0,1.81,5.67,6.67,6.67,0,0,0,5.23,2,10.46,10.46,0,0,0,6.35-2,1.59,1.59,0,0,1,.91-.32,1.11,1.11,0,0,1,.89.41,1.45,1.45,0,0,1,.34,1,2,2,0,0,1-.73,1.51,9.28,9.28,0,0,1-3.45,1.78,15.15,15.15,0,0,1-4.5.69,10.27,10.27,0,0,1-7.7-2.92A10.77,10.77,0,0,1,317.15,22a14.63,14.63,0,0,1,1.35-6.44,10.24,10.24,0,0,1,3.84-4.34,10.7,10.7,0,0,1,5.78-1.55A8.69,8.69,0,0,1,335,12.36q2.38,2.67,2.38,7.75a1.88,1.88,0,0,1-.46,1.35,1.63,1.63,0,0,1-1.23.48Zm2.51-7.56A8.9,8.9,0,0,0,321,19.56h13a7.32,7.32,0,0,0-1.39-5.21,5.44,5.44,0,0,0-4.37-1.78A6.66,6.66,0,0,0,323.36,14.37Z"/><path class="cls-1" d="M34,48.6a1.86,1.86,0,0,1,1.26.46,1.46,1.46,0,0,1,.53,1.14,1.72,1.72,0,0,1-.18.78L26.92,69.9a2.44,2.44,0,0,1-.91,1,2.49,2.49,0,0,1-1.33.37,2.45,2.45,0,0,1-1.37-.39,2,2,0,0,1-.82-1.17L17.87,53.91l-7.08,16a2.15,2.15,0,0,1-.87,1,2.48,2.48,0,0,1-1.33.37,2.45,2.45,0,0,1-1.39-.41,2.07,2.07,0,0,1-.85-1.14L.78,50.89a3.94,3.94,0,0,1-.09-.59A1.56,1.56,0,0,1,1.26,49a2,2,0,0,1,1.3-.48,1.61,1.61,0,0,1,1.65,1.23L8.91,66.7l7.31-16.64a2.48,2.48,0,0,1,.91-1.12,2.16,2.16,0,0,1,1.19-.39,1.94,1.94,0,0,1,1.19.41,2,2,0,0,1,.73,1.1l4.66,16.59,7.4-17A1.76,1.76,0,0,1,34,48.6Z"/><path class="cls-1" d="M42.23,60.53v.18A8.19,8.19,0,0,0,44,66.38a6.67,6.67,0,0,0,5.23,2,10.46,10.46,0,0,0,6.35-2,1.59,1.59,0,0,1,.91-.32,1.11,1.11,0,0,1,.89.41,1.45,1.45,0,0,1,.34,1A2,2,0,0,1,57,68.94a9.28,9.28,0,0,1-3.45,1.78,15.15,15.15,0,0,1-4.5.69,10.27,10.27,0,0,1-7.7-2.92,10.77,10.77,0,0,1-2.86-7.86,14.63,14.63,0,0,1,1.35-6.44,10.24,10.24,0,0,1,3.84-4.34,10.7,10.7,0,0,1,5.78-1.55A8.69,8.69,0,0,1,56.36,51q2.38,2.67,2.38,7.75a1.88,1.88,0,0,1-.46,1.35,1.63,1.63,0,0,1-1.23.48ZM44.75,53a8.9,8.9,0,0,0-2.33,5.19h13A7.32,7.32,0,0,0,54,52.95a5.44,5.44,0,0,0-4.37-1.78A6.66,6.66,0,0,0,44.75,53Z"/><path class="cls-1" d="M67.69,39.44a3.45,3.45,0,0,1,.69,2.31,8.54,8.54,0,0,1-.75,3.52,10.4,10.4,0,0,1-2,3,1.55,1.55,0,0,1-1.05.46,1.24,1.24,0,0,1-.85-.3,1,1,0,0,1-.34-.75,1.35,1.35,0,0,1,.46-1,6.45,6.45,0,0,0,1.69-3.06A2.21,2.21,0,0,1,64,42.89a2.43,2.43,0,0,1-.59-1.65,2.56,2.56,0,0,1,.71-1.9,2.39,2.39,0,0,1,1.76-.71A2.29,2.29,0,0,1,67.69,39.44Z"/><path class="cls-1" d="M91.46,48.6a1.8,1.8,0,0,1,1.21.46,1.46,1.46,0,0,1,.53,1.14A1.87,1.87,0,0,1,93,51L83,69.95A2.63,2.63,0,0,1,82,71a2.52,2.52,0,0,1-1.3.37A2.46,2.46,0,0,1,79.32,71a2.29,2.29,0,0,1-.89-1.19l-6.9-18.83a1.8,1.8,0,0,1-.14-.59A1.49,1.49,0,0,1,72,49.13a2.05,2.05,0,0,1,1.33-.48,1.72,1.72,0,0,1,.94.27,1.49,1.49,0,0,1,.62.82L81,67.07,89.9,49.61A1.64,1.64,0,0,1,91.46,48.6Z"/><path class="cls-1" d="M98.81,60.53v.18a8.19,8.19,0,0,0,1.81,5.67,6.67,6.67,0,0,0,5.23,2,10.46,10.46,0,0,0,6.35-2,1.59,1.59,0,0,1,.91-.32,1.11,1.11,0,0,1,.89.41,1.45,1.45,0,0,1,.34,1,2,2,0,0,1-.73,1.51,9.28,9.28,0,0,1-3.45,1.78,15.15,15.15,0,0,1-4.5.69A10.27,10.27,0,0,1,98,68.49a10.77,10.77,0,0,1-2.86-7.86,14.63,14.63,0,0,1,1.35-6.44,10.24,10.24,0,0,1,3.84-4.34,10.7,10.7,0,0,1,5.78-1.55A8.69,8.69,0,0,1,112.94,51q2.38,2.67,2.38,7.75a1.88,1.88,0,0,1-.46,1.35,1.63,1.63,0,0,1-1.23.48ZM101.33,53A8.9,8.9,0,0,0,99,58.16h13a7.32,7.32,0,0,0-1.39-5.21,5.44,5.44,0,0,0-4.37-1.78A6.66,6.66,0,0,0,101.33,53Z"/><path class="cls-1" d="M150.05,55.92c0,.55,0,1,0,1.23l-1,12.48a1.71,1.71,0,0,1-.55,1.26,1.89,1.89,0,0,1-1.28.43,1.75,1.75,0,0,1-1.33-.53,1.53,1.53,0,0,1-.41-1.3l.14-2a7.26,7.26,0,0,1-2.77,2.9,7.87,7.87,0,0,1-4,1,8.14,8.14,0,0,1-5.46-1.81,6.31,6.31,0,0,1-.8-8.59,8,8,0,0,1,4.25-2.17,36.12,36.12,0,0,1,7.91-.69h1.65l.09-1.33,0-.87a4.65,4.65,0,0,0-1.17-3.5,5,5,0,0,0-3.59-1.12,14.09,14.09,0,0,0-7.08,2.24,1.76,1.76,0,0,1-.73.23,1.15,1.15,0,0,1-.91-.43,1.54,1.54,0,0,1-.37-1,1.74,1.74,0,0,1,.87-1.55,13.76,13.76,0,0,1,4-1.83,15.92,15.92,0,0,1,4.55-.69Q150.05,48.29,150.05,55.92Zm-6,10.74A7,7,0,0,0,146,62l.09-1.42h-1.28a34.81,34.81,0,0,0-5.92.39,5.83,5.83,0,0,0-3,1.28,3.32,3.32,0,0,0-.91,2.49,3.41,3.41,0,0,0,1.23,2.77,5.13,5.13,0,0,0,3.38,1A6,6,0,0,0,144,66.66Z"/><path class="cls-1" d="M156.22,70.86a1.64,1.64,0,0,1-.46-1.37l2.33-29.16a1.62,1.62,0,0,1,.64-1.3,2.26,2.26,0,0,1,1.37-.43,1.8,1.8,0,0,1,1.26.43,1.55,1.55,0,0,1,.43,1.3l-2.33,29.16a1.78,1.78,0,0,1-.62,1.37,2.1,2.1,0,0,1-1.35.46A1.83,1.83,0,0,1,156.22,70.86Z"/><path class="cls-1" d="M166.82,70.86a1.64,1.64,0,0,1-.46-1.37l2.33-29.16a1.62,1.62,0,0,1,.64-1.3,2.26,2.26,0,0,1,1.37-.43A1.8,1.8,0,0,1,172,39a1.55,1.55,0,0,1,.43,1.3l-2.33,29.16a1.78,1.78,0,0,1-.62,1.37,2.1,2.1,0,0,1-1.35.46A1.83,1.83,0,0,1,166.82,70.86Z"/><path class="cls-1" d="M206.13,49.61a8.86,8.86,0,0,1,3.34,3.77,12.88,12.88,0,0,1,1.19,5.69,15.23,15.23,0,0,1-1.3,6.47,10,10,0,0,1-3.68,4.34,9.89,9.89,0,0,1-5.48,1.53,8.89,8.89,0,0,1-4.59-1.14A7.33,7.33,0,0,1,192.65,67l-.18,2.47a1.8,1.8,0,0,1-.62,1.35,2,2,0,0,1-1.35.48,1.76,1.76,0,0,1-1.3-.48,1.69,1.69,0,0,1-.43-1.35l2.33-29.21a1.6,1.6,0,0,1,.64-1.23,2.19,2.19,0,0,1,1.37-.46,1.79,1.79,0,0,1,1.28.43,1.53,1.53,0,0,1,.41,1.26l-.91,11.84A7.8,7.8,0,0,1,197,49.29a9.06,9.06,0,0,1,4.23-1A9.2,9.2,0,0,1,206.13,49.61ZM205,65.88a11,11,0,0,0,1.87-6.81,8.5,8.5,0,0,0-1.74-5.69,6.74,6.74,0,0,0-10.06.46,11.13,11.13,0,0,0-1.87,6.83,8.45,8.45,0,0,0,1.71,5.71,6.23,6.23,0,0,0,5,2A6.08,6.08,0,0,0,205,65.88Z"/><path class="cls-1" d="M218.52,60.53v.18a8.19,8.19,0,0,0,1.81,5.67,6.67,6.67,0,0,0,5.23,2,10.46,10.46,0,0,0,6.35-2,1.59,1.59,0,0,1,.91-.32,1.11,1.11,0,0,1,.89.41,1.45,1.45,0,0,1,.34,1,2,2,0,0,1-.73,1.51,9.28,9.28,0,0,1-3.45,1.78,15.15,15.15,0,0,1-4.5.69,10.27,10.27,0,0,1-7.7-2.92,10.77,10.77,0,0,1-2.86-7.86,14.63,14.63,0,0,1,1.35-6.44A10.24,10.24,0,0,1,220,49.84a10.7,10.7,0,0,1,5.78-1.55A8.69,8.69,0,0,1,232.64,51Q235,53.63,235,58.71a1.88,1.88,0,0,1-.46,1.35,1.63,1.63,0,0,1-1.23.48ZM221,53a8.9,8.9,0,0,0-2.33,5.19h13a7.32,7.32,0,0,0-1.39-5.21,5.44,5.44,0,0,0-4.37-1.78A6.66,6.66,0,0,0,221,53Z"/><path class="cls-1" d="M242.6,60.53v.18a8.19,8.19,0,0,0,1.81,5.67,6.67,6.67,0,0,0,5.23,2,10.46,10.46,0,0,0,6.35-2,1.59,1.59,0,0,1,.91-.32,1.11,1.11,0,0,1,.89.41,1.45,1.45,0,0,1,.34,1,2,2,0,0,1-.73,1.51A9.28,9.28,0,0,1,254,70.73a15.15,15.15,0,0,1-4.5.69,10.27,10.27,0,0,1-7.7-2.92,10.77,10.77,0,0,1-2.86-7.86,14.63,14.63,0,0,1,1.35-6.44,10.24,10.24,0,0,1,3.84-4.34,10.7,10.7,0,0,1,5.78-1.55A8.69,8.69,0,0,1,256.72,51q2.38,2.67,2.38,7.75a1.88,1.88,0,0,1-.46,1.35,1.63,1.63,0,0,1-1.23.48ZM245.12,53a8.9,8.9,0,0,0-2.33,5.19h13a7.32,7.32,0,0,0-1.39-5.21A5.44,5.44,0,0,0,250,51.16,6.66,6.66,0,0,0,245.12,53Z"/><path class="cls-1" d="M281.82,50.25a7.74,7.74,0,0,1,2,5.71,12.23,12.23,0,0,1,0,1.23l-1,12.29a2,2,0,0,1-.64,1.37,2,2,0,0,1-1.33.46,1.88,1.88,0,0,1-1.35-.46,1.58,1.58,0,0,1-.39-1.37l1-12.07a7.4,7.4,0,0,0,0-1q0-5.07-4.89-5.07a6.62,6.62,0,0,0-4.94,1.85,7.93,7.93,0,0,0-2.1,5.1l-.91,11.15a1.81,1.81,0,0,1-.59,1.37,2.07,2.07,0,0,1-1.37.46,1.81,1.81,0,0,1-1.3-.46,1.68,1.68,0,0,1-.43-1.37l1.6-19.38a1.67,1.67,0,0,1,.62-1.28,2.1,2.1,0,0,1,1.35-.46,1.67,1.67,0,0,1,1.23.46,1.54,1.54,0,0,1,.41,1.23l-.18,2.19a8,8,0,0,1,3.11-2.93,9.25,9.25,0,0,1,4.43-1.05A7.74,7.74,0,0,1,281.82,50.25Z"/><path class="cls-1" d="M34,87.2a1.86,1.86,0,0,1,1.26.46,1.46,1.46,0,0,1,.53,1.14,1.72,1.72,0,0,1-.18.78L26.92,108.5a2.44,2.44,0,0,1-.91,1,2.49,2.49,0,0,1-1.33.37,2.45,2.45,0,0,1-1.37-.39,2,2,0,0,1-.82-1.17L17.87,92.5l-7.08,16a2.15,2.15,0,0,1-.87,1,2.48,2.48,0,0,1-1.33.37,2.45,2.45,0,0,1-1.39-.41,2.07,2.07,0,0,1-.85-1.14L.78,89.49a3.94,3.94,0,0,1-.09-.59,1.56,1.56,0,0,1,.57-1.26,2,2,0,0,1,1.3-.48,1.61,1.61,0,0,1,1.65,1.23L8.91,105.3l7.31-16.64a2.48,2.48,0,0,1,.91-1.12,2.16,2.16,0,0,1,1.19-.39,1.94,1.94,0,0,1,1.19.41,2,2,0,0,1,.73,1.1l4.66,16.59,7.4-17A1.76,1.76,0,0,1,34,87.2Z"/><path class="cls-1" d="M57.45,94.51c0,.55,0,1,0,1.23l-1,12.48a1.71,1.71,0,0,1-.55,1.26,1.89,1.89,0,0,1-1.28.43,1.75,1.75,0,0,1-1.33-.53,1.53,1.53,0,0,1-.41-1.3l.14-2a7.26,7.26,0,0,1-2.77,2.9,7.87,7.87,0,0,1-4,1,8.14,8.14,0,0,1-5.46-1.81,6.31,6.31,0,0,1-.8-8.59,8,8,0,0,1,4.25-2.17,36.12,36.12,0,0,1,7.91-.69h1.65l.09-1.33,0-.87a4.65,4.65,0,0,0-1.17-3.5,5,5,0,0,0-3.59-1.12A14.09,14.09,0,0,0,42,92.18a1.76,1.76,0,0,1-.73.23A1.15,1.15,0,0,1,40.4,92a1.54,1.54,0,0,1-.37-1,1.74,1.74,0,0,1,.87-1.55,13.76,13.76,0,0,1,4-1.83,15.92,15.92,0,0,1,4.55-.69Q57.45,86.88,57.45,94.51Zm-6,10.74a7,7,0,0,0,2-4.71l.09-1.42H52.24a34.81,34.81,0,0,0-5.92.39,5.83,5.83,0,0,0-3,1.28,3.32,3.32,0,0,0-.91,2.49,3.41,3.41,0,0,0,1.23,2.77,5.13,5.13,0,0,0,3.38,1A6,6,0,0,0,51.42,105.25Z"/><path class="cls-1" d="M63.62,109.46a1.64,1.64,0,0,1-.46-1.37l1.6-19.38a1.65,1.65,0,0,1,.62-1.3A2.16,2.16,0,0,1,66.73,87a1.89,1.89,0,0,1,1.28.43,1.52,1.52,0,0,1,.46,1.3l-1.6,19.38a1.78,1.78,0,0,1-.62,1.37,2.1,2.1,0,0,1-1.35.46A1.83,1.83,0,0,1,63.62,109.46Zm1.92-27.93a2.2,2.2,0,0,1-.69-1.69,2.15,2.15,0,0,1,.69-1.65,2.8,2.8,0,0,1,3.57,0,2.15,2.15,0,0,1,.69,1.65,2.2,2.2,0,0,1-.69,1.69,2.8,2.8,0,0,1-3.57,0Z"/><path class="cls-1" d="M79.25,101.64a6.77,6.77,0,0,0,0,.91,4.9,4.9,0,0,0,1,3.34A3.57,3.57,0,0,0,83,107a9.29,9.29,0,0,0,1.14-.07,7.23,7.23,0,0,1,.82-.07.93.93,0,0,1,.75.37,1.55,1.55,0,0,1,.3,1,1.38,1.38,0,0,1-.8,1.35,7.1,7.1,0,0,1-2.81.39,6.82,6.82,0,0,1-5.12-1.87,7.28,7.28,0,0,1-1.83-5.3,8.4,8.4,0,0,1,0-1l.87-11.47h-3A1.52,1.52,0,0,1,72.28,90a1.39,1.39,0,0,1-.39-1,1.42,1.42,0,0,1,.43-1.12,1.76,1.76,0,0,1,1.21-.39h3.11l.41-5.21A2,2,0,0,1,77.68,81,1.92,1.92,0,0,1,79,80.48a1.78,1.78,0,0,1,1.35.5,1.57,1.57,0,0,1,.39,1.33l-.41,5.12h5a1.54,1.54,0,0,1,1.1.39,1.35,1.35,0,0,1,.41,1A1.47,1.47,0,0,1,86.48,90a1.67,1.67,0,0,1-1.19.39H80.12Z"/><path class="cls-1" d="M89.77,109.46a1.64,1.64,0,0,1-.46-1.37l1.6-19.38a1.65,1.65,0,0,1,.62-1.3A2.16,2.16,0,0,1,92.87,87a1.89,1.89,0,0,1,1.28.43,1.52,1.52,0,0,1,.46,1.3L93,108.09a1.78,1.78,0,0,1-.62,1.37,2.1,2.1,0,0,1-1.35.46A1.83,1.83,0,0,1,89.77,109.46Zm1.92-27.93A2.2,2.2,0,0,1,91,79.84a2.15,2.15,0,0,1,.69-1.65,2.8,2.8,0,0,1,3.57,0,2.15,2.15,0,0,1,.69,1.65,2.2,2.2,0,0,1-.69,1.69,2.8,2.8,0,0,1-3.57,0Z"/><path class="cls-1" d="M118.2,88.85a7.74,7.74,0,0,1,2,5.71,12.23,12.23,0,0,1,0,1.23l-1,12.29a2,2,0,0,1-.64,1.37,2,2,0,0,1-1.33.46,1.88,1.88,0,0,1-1.35-.46,1.58,1.58,0,0,1-.39-1.37l1-12.07a7.4,7.4,0,0,0,0-1q0-5.07-4.89-5.07a6.62,6.62,0,0,0-4.94,1.85,7.93,7.93,0,0,0-2.1,5.1l-.91,11.15a1.81,1.81,0,0,1-.59,1.37,2.07,2.07,0,0,1-1.37.46,1.81,1.81,0,0,1-1.3-.46,1.68,1.68,0,0,1-.43-1.37l1.6-19.38a1.67,1.67,0,0,1,.62-1.28,2.1,2.1,0,0,1,1.35-.46,1.67,1.67,0,0,1,1.23.46,1.54,1.54,0,0,1,.41,1.23l-.18,2.19A8,8,0,0,1,108,87.93a9.25,9.25,0,0,1,4.43-1.05A7.74,7.74,0,0,1,118.2,88.85Z"/><path class="cls-1" d="M146.92,87.45a1.69,1.69,0,0,1,.43,1.35l-1.55,19.38q-.37,5-3.08,7.52t-7.7,2.54a17.4,17.4,0,0,1-4.8-.64,13.06,13.06,0,0,1-3.88-1.78,1.83,1.83,0,0,1-.91-1.51,1.53,1.53,0,0,1,.43-1.1,1.37,1.37,0,0,1,1-.46,1.28,1.28,0,0,1,.64.18,16.17,16.17,0,0,0,3.61,1.71,13,13,0,0,0,4,.57q6.53,0,7-6.86l.27-3.29a7.44,7.44,0,0,1-3,2.88,10,10,0,0,1-11.4-1.74,10.41,10.41,0,0,1-2.63-7.45,14,14,0,0,1,1.3-6.17,9.8,9.8,0,0,1,9.21-5.71A9,9,0,0,1,140.5,88a7.35,7.35,0,0,1,3,3.2l.18-2.42a2,2,0,0,1,.66-1.35,2,2,0,0,1,1.35-.48A1.7,1.7,0,0,1,146.92,87.45Zm-5.85,16.16a9.86,9.86,0,0,0,1.9-6.4,7.61,7.61,0,0,0-1.76-5.37,6.43,6.43,0,0,0-5-1.9A6.35,6.35,0,0,0,131,92.3a10,10,0,0,0-1.9,6.47,7.49,7.49,0,0,0,1.74,5.32,6.5,6.5,0,0,0,5,1.85A6.38,6.38,0,0,0,141.07,103.61Z"/><path class="cls-1" d="M179,77.67a1.23,1.23,0,0,1,.48,1.07q0,1.42-1.55,1.55l-1.33.09A5.58,5.58,0,0,0,172.67,82a6.86,6.86,0,0,0-1.51,4.18l-.09,1.28h5a1.52,1.52,0,0,1,1.12.39,1.39,1.39,0,0,1,.39,1,1.49,1.49,0,0,1-.41,1.1,1.61,1.61,0,0,1-1.19.41h-5.12l-1.42,17.78a1.75,1.75,0,0,1-.59,1.33,2,2,0,0,1-1.33.46,1.92,1.92,0,0,1-1.3-.46,1.54,1.54,0,0,1-.48-1.33l1.42-17.78h-3.06A1.52,1.52,0,0,1,163,90a1.39,1.39,0,0,1-.39-1,1.48,1.48,0,0,1,.41-1.1,1.68,1.68,0,0,1,1.23-.41h3.15l0-.82q.32-4.43,2.6-6.65a10.11,10.11,0,0,1,6.63-2.49l.91,0A2,2,0,0,1,179,77.67Z"/><path class="cls-1" d="M183.53,108.68a8.89,8.89,0,0,1-3.61-3.77,12.27,12.27,0,0,1-1.26-5.69A14.74,14.74,0,0,1,180,92.73a10.2,10.2,0,0,1,3.79-4.32,10.5,10.5,0,0,1,5.69-1.53A10.91,10.91,0,0,1,195,88.21,9,9,0,0,1,198.59,92a12.25,12.25,0,0,1,1.28,5.71,14.75,14.75,0,0,1-1.35,6.49,10,10,0,0,1-3.82,4.3A10.74,10.74,0,0,1,189,110,10.94,10.94,0,0,1,183.53,108.68Zm10.7-4.25a11.33,11.33,0,0,0,1.85-6.86,8.39,8.39,0,0,0-1.71-5.65,6.75,6.75,0,0,0-10.08.57,11.35,11.35,0,0,0-1.87,6.86A8.36,8.36,0,0,0,184.1,105a6.19,6.19,0,0,0,4.94,1.94A6.07,6.07,0,0,0,194.22,104.43Z"/><path class="cls-1" d="M218.68,87.27a1.43,1.43,0,0,1,.43,1.12q0,1.65-1.78,1.78l-1.23.14a8,8,0,0,0-5,2,7.1,7.1,0,0,0-1.9,4.71l-.91,11.11a1.78,1.78,0,0,1-.62,1.37,2.1,2.1,0,0,1-1.35.46,1.83,1.83,0,0,1-1.28-.46,1.64,1.64,0,0,1-.46-1.37l1.6-19.38a1.67,1.67,0,0,1,.62-1.28,2.1,2.1,0,0,1,1.35-.46,1.64,1.64,0,0,1,1.21.43,1.57,1.57,0,0,1,.39,1.26L209.56,91a7.89,7.89,0,0,1,3-2.83A11.59,11.59,0,0,1,217,87l.5,0A1.48,1.48,0,0,1,218.68,87.27Z"/><path class="cls-1" d="M219.84,109.21a2.46,2.46,0,0,1-.73-1.85,2.54,2.54,0,0,1,.73-1.87,2.48,2.48,0,0,1,1.83-.73,2.35,2.35,0,0,1,1.76.73,2.58,2.58,0,0,1,.71,1.87,2.5,2.5,0,0,1-.71,1.85,2.39,2.39,0,0,1-1.76.71A2.52,2.52,0,0,1,219.84,109.21Z"/></g></g></svg>