<svg xmlns="http://www.w3.org/2000/svg" viewBox="0 0 35.45 35.45"><defs><style>.cls-1{fill:#2b2b2b;}</style></defs><title>time-icon</title><g id="Layer_2" data-name="Layer 2"><g id="Layer_2-2" data-name="Layer 2"><path class="cls-1" d="M17.73,0A17.72,17.72,0,1,0,35.45,17.73,17.68,17.68,0,0,0,17.73,0ZM28,29.14A15.29,15.29,0,0,1,18.91,33V30.72a1.18,1.18,0,1,0-2.37,0V33c-.4,0-.79-.08-1.18-.14A15.37,15.37,0,0,1,2.57,20.09c-.06-.39-.11-.78-.14-1.18H4.74a1.18,1.18,0,0,0,0-2.37H2.43A15.37,15.37,0,0,1,16.54,2.43V4.74a1.18,1.18,0,0,0,2.37,0V2.43A15.36,15.36,0,0,1,33,16.54H30.72a1.18,1.18,0,1,0,0,2.37H33A15.31,15.31,0,0,1,28,29.14Z"/><path class="cls-1" d="M30.17,12.05a.59.59,0,0,0-.79-.28L19.15,16.68a1.76,1.76,0,0,0-3,.24l-5.58-1.6a.59.59,0,1,0-.33,1.14l4.88,1.4.87.25a1.77,1.77,0,0,0,1.73,1.39,1.81,1.81,0,0,0,1.56-1,1.77,1.77,0,0,0,.2-.71L29,13.27l.89-.43A.59.59,0,0,0,30.17,12.05Z"/></g></g></svg>