<svg xmlns="http://www.w3.org/2000/svg" viewBox="0 0 39.83 39.84"><defs><style>.cls-1,.cls-2{fill:#2b2b2b;}.cls-2{fill-rule:evenodd;}</style></defs><title>twitter-icon</title><g id="Layer_2" data-name="Layer 2"><g id="Layer_2-2" data-name="Layer 2"><path class="cls-1" d="M19.92,0A19.92,19.92,0,1,1,5.83,5.83,19.89,19.89,0,0,1,19.92,0Zm13,6.94a18.36,18.36,0,1,0,5.38,13,18.29,18.29,0,0,0-5.38-13Z"/><path class="cls-2" d="M30.08,13.72a8.89,8.89,0,0,1-2.39.65,4.11,4.11,0,0,0,1.84-2.28,8.5,8.5,0,0,1-2.66,1,4.19,4.19,0,0,0-7.22,2.8,4.29,4.29,0,0,0,.12.94,11.84,11.84,0,0,1-8.6-4.29A4.05,4.05,0,0,0,12.45,18a4,4,0,0,1-1.89-.51v.06A3.89,3.89,0,0,0,10.85,19a4.16,4.16,0,0,0,3.07,2.54,4.1,4.1,0,0,1-1.1.15,3.72,3.72,0,0,1-.78-.09,4.21,4.21,0,0,0,3.89,2.87,8.44,8.44,0,0,1-5.17,1.75c-.34,0-.66,0-1-.06a12,12,0,0,0,6.4,1.84,11.61,11.61,0,0,0,11.59-9.2A11.29,11.29,0,0,0,28,16.38v-.53a8.63,8.63,0,0,0,2.07-2.13Z"/></g></g></svg>