<svg xmlns="http://www.w3.org/2000/svg" viewBox="0 0 337.93 93.78"><defs><style>.cls-1{fill:#707070;}</style></defs><title>welcome-to-the-future</title><g id="Layer_2" data-name="Layer 2"><g id="Layer_2-2" data-name="Layer 2"><path class="cls-1" d="M33.5,38.94,26.74,2.23l-.06-.46a1.17,1.17,0,0,1,1.2-1.2H33a1.83,1.83,0,0,1,1.09.26,1.37,1.37,0,0,1,.46.89l4.75,25.77,5.1-16.61a2,2,0,0,1,1.89-1.43h3.15a1.69,1.69,0,0,1,1.2.43,2.24,2.24,0,0,1,.63,1l5.15,16.61,4.7-25.77Q61.33.57,62.76.57h5.15a1.1,1.1,0,0,1,.8.34,1.16,1.16,0,0,1,.34.86,1.49,1.49,0,0,1-.06.46L62.25,38.94a1.94,1.94,0,0,1-.66,1.26,2.1,2.1,0,0,1-1.4.46H56.29A2,2,0,0,1,55,40.23a2.06,2.06,0,0,1-.69-1l-6.41-19-6.41,19a1.91,1.91,0,0,1-2,1.43H35.56A2,2,0,0,1,33.5,38.94Z"/><path class="cls-1" d="M76.6,37.57q-3.75-3.66-4-10.42l-.06-1.43q0-7.16,3.75-11.28T86.7,10.31q6.81,0,10.51,4.12t3.69,11v1.2a1.33,1.33,0,0,1-.4,1,1.4,1.4,0,0,1-1,.4h-19v.46a8.88,8.88,0,0,0,1.75,5.3,5.39,5.39,0,0,0,4.5,2.09A6.46,6.46,0,0,0,92,33.21a3.11,3.11,0,0,1,.8-.77,2.37,2.37,0,0,1,1-.14h5a1.42,1.42,0,0,1,.89.29,1,1,0,0,1,.37.8,5.33,5.33,0,0,1-1.63,3.24,13.52,13.52,0,0,1-4.67,3.24,16.93,16.93,0,0,1-7,1.37Q80.35,41.23,76.6,37.57ZM93,23.14V23a8.2,8.2,0,0,0-1.69-5.41,5.68,5.68,0,0,0-4.61-2,5.59,5.59,0,0,0-4.58,2A8.29,8.29,0,0,0,80.46,23v.11Z"/><path class="cls-1" d="M107.43,40.26a1.33,1.33,0,0,1-.4-1V1.37a1.31,1.31,0,0,1,.4-1,1.38,1.38,0,0,1,1-.37h4.81a1.36,1.36,0,0,1,1,.37,1.36,1.36,0,0,1,.37,1V39.29a1.38,1.38,0,0,1-.37,1,1.3,1.3,0,0,1-1,.4h-4.81A1.32,1.32,0,0,1,107.43,40.26Z"/><path class="cls-1" d="M125,37.74q-3.75-3.49-4-9.68L121,25.77l.06-2.29q.23-6.18,4-9.68t10.05-3.49a16.6,16.6,0,0,1,7.64,1.6,11.82,11.82,0,0,1,4.64,3.92A9.09,9.09,0,0,1,149,20.27a1.12,1.12,0,0,1-.37,1,1.42,1.42,0,0,1-1,.4h-5.1a1.34,1.34,0,0,1-.92-.26,2.7,2.7,0,0,1-.57-.94,6.67,6.67,0,0,0-2.26-3.15,6.14,6.14,0,0,0-3.58-1,5.78,5.78,0,0,0-4.55,1.83Q129,20,128.91,23.77l-.06,2.12.06,1.89q.34,7.45,6.3,7.44a6.25,6.25,0,0,0,3.61-.94A6.57,6.57,0,0,0,141,31.1a2.28,2.28,0,0,1,.54-.92,1.37,1.37,0,0,1,.95-.29h5.1a1.43,1.43,0,0,1,1,.4,1.12,1.12,0,0,1,.37,1,9.11,9.11,0,0,1-1.6,4.32,12,12,0,0,1-4.58,4,16.21,16.21,0,0,1-7.73,1.66Q128.79,41.23,125,37.74Z"/><path class="cls-1" d="M157.77,37.8q-3.67-3.44-4-9.51l-.06-2.52.06-2.52a13.23,13.23,0,0,1,4-9.48q3.72-3.46,10.37-3.46t10.31,3.46a13.23,13.23,0,0,1,4,9.48q.06.69.06,2.52t-.06,2.52q-.29,6.07-4,9.51t-10.37,3.44Q161.43,41.23,157.77,37.8Zm15.09-4.24A8.72,8.72,0,0,0,174.61,28q.06-.57.06-2.23t-.06-2.23A8.74,8.74,0,0,0,172.83,18,5.81,5.81,0,0,0,168.19,16,5.88,5.88,0,0,0,163.5,18a8.74,8.74,0,0,0-1.78,5.58l-.06,2.23.06,2.23a8.61,8.61,0,0,0,1.78,5.56,5.92,5.92,0,0,0,4.7,1.89A5.83,5.83,0,0,0,172.86,33.56Z"/><path class="cls-1" d="M189.32,40.26a1.32,1.32,0,0,1-.4-1v-27a1.3,1.3,0,0,1,.4-1,1.38,1.38,0,0,1,1-.37h4.52a1.28,1.28,0,0,1,1.38,1.37V14.2a10.06,10.06,0,0,1,8.3-3.89q6.36,0,8.88,5.1a10.24,10.24,0,0,1,3.89-3.69,11,11,0,0,1,5.44-1.4,10,10,0,0,1,7.67,3.21q3,3.21,3,9.33V39.29a1.38,1.38,0,0,1-.37,1,1.3,1.3,0,0,1-1,.4h-4.75a1.37,1.37,0,0,1-1.37-1.37v-16q0-3.61-1.52-5.21a5.23,5.23,0,0,0-4-1.6,5.1,5.1,0,0,0-3.81,1.63Q215,19.76,215,23.31v16a1.38,1.38,0,0,1-.37,1,1.3,1.3,0,0,1-1,.4h-4.81a1.37,1.37,0,0,1-1.37-1.37v-16q0-3.55-1.55-5.18a5.2,5.2,0,0,0-4-1.63,5.1,5.1,0,0,0-3.81,1.63q-1.57,1.63-1.57,5.18v16a1.38,1.38,0,0,1-.37,1,1.3,1.3,0,0,1-1,.4H190.3A1.32,1.32,0,0,1,189.32,40.26Z"/><path class="cls-1" d="M243.35,37.57q-3.75-3.66-4-10.42l-.06-1.43q0-7.16,3.75-11.28t10.39-4.12q6.81,0,10.51,4.12t3.69,11v1.2a1.33,1.33,0,0,1-.4,1,1.4,1.4,0,0,1-1,.4h-19v.46a8.88,8.88,0,0,0,1.75,5.3,5.39,5.39,0,0,0,4.5,2.09,6.46,6.46,0,0,0,5.33-2.63,3.11,3.11,0,0,1,.8-.77,2.37,2.37,0,0,1,1-.14h5a1.42,1.42,0,0,1,.89.29,1,1,0,0,1,.37.8,5.33,5.33,0,0,1-1.63,3.24,13.52,13.52,0,0,1-4.67,3.24,16.93,16.93,0,0,1-7,1.37Q247.1,41.23,243.35,37.57Zm16.41-14.43V23a8.2,8.2,0,0,0-1.69-5.41,5.68,5.68,0,0,0-4.61-2,5.59,5.59,0,0,0-4.58,2A8.29,8.29,0,0,0,247.22,23v.11Z"/><path class="cls-1" d="M291.32,37.94q-2.64-2.72-2.63-8V17h-4.52a1.37,1.37,0,0,1-1.37-1.37V12.26a1.37,1.37,0,0,1,1.38-1.37h4.52V1.37a1.3,1.3,0,0,1,.4-1,1.38,1.38,0,0,1,1-.37h4.75a1.36,1.36,0,0,1,1,.37,1.36,1.36,0,0,1,.37,1v9.51h7.16a1.37,1.37,0,0,1,1.37,1.37v3.38A1.37,1.37,0,0,1,303.34,17h-7.16V29.32A6.62,6.62,0,0,0,297,33a3.15,3.15,0,0,0,2.81,1.26h4a1.28,1.28,0,0,1,1.38,1.37v3.61a1.38,1.38,0,0,1-.37,1,1.3,1.3,0,0,1-1,.4h-4.7Q293.95,40.66,291.32,37.94Z"/><path class="cls-1" d="M313.13,37.8q-3.67-3.44-4-9.51l-.06-2.52.06-2.52a13.23,13.23,0,0,1,4-9.48q3.72-3.46,10.37-3.46t10.31,3.46a13.23,13.23,0,0,1,4,9.48q.06.69.06,2.52t-.06,2.52q-.29,6.07-4,9.51t-10.37,3.44Q316.8,41.23,313.13,37.8Zm15.09-4.24A8.72,8.72,0,0,0,330,28q.06-.57.06-2.23T330,23.54A8.74,8.74,0,0,0,328.19,18,5.81,5.81,0,0,0,323.56,16a5.88,5.88,0,0,0-4.7,1.92,8.74,8.74,0,0,0-1.78,5.58L317,25.77l.06,2.23a8.61,8.61,0,0,0,1.78,5.56,5.92,5.92,0,0,0,4.7,1.89A5.83,5.83,0,0,0,328.22,33.56Z"/><path class="cls-1" d="M8.53,90.49q-2.64-2.72-2.63-8V69.56H1.38a1.32,1.32,0,0,1-1-.4,1.32,1.32,0,0,1-.4-1V64.81a1.33,1.33,0,0,1,.4-1,1.33,1.33,0,0,1,1-.4H5.9V53.93a1.3,1.3,0,0,1,.4-1,1.38,1.38,0,0,1,1-.37H12a1.28,1.28,0,0,1,1.37,1.37v9.51h7.16a1.37,1.37,0,0,1,1.37,1.37v3.38a1.37,1.37,0,0,1-1.37,1.37H13.4V81.87a6.62,6.62,0,0,0,.86,3.72,3.15,3.15,0,0,0,2.81,1.26h4a1.28,1.28,0,0,1,1.38,1.37v3.61a1.38,1.38,0,0,1-.37,1,1.3,1.3,0,0,1-1,.4h-4.7Q11.17,93.21,8.53,90.49Z"/><path class="cls-1" d="M28,92.81a1.33,1.33,0,0,1-.4-1V53.93a1.31,1.31,0,0,1,.4-1,1.38,1.38,0,0,1,1-.37h5.21a1.28,1.28,0,0,1,1.37,1.37V67a11.39,11.39,0,0,1,9.22-4.12,10.82,10.82,0,0,1,8.42,3.46q3.15,3.47,3.15,9.42V91.84a1.38,1.38,0,0,1-.37,1,1.3,1.3,0,0,1-1,.4H49.76a1.39,1.39,0,0,1-1-.4,1.32,1.32,0,0,1-.4-1V76.09a7.6,7.6,0,0,0-1.63-5.18A5.88,5.88,0,0,0,42,69a6.14,6.14,0,0,0-4.7,1.89,7.23,7.23,0,0,0-1.78,5.15V91.84a1.38,1.38,0,0,1-.37,1,1.3,1.3,0,0,1-1,.4H29A1.32,1.32,0,0,1,28,92.81Z"/><path class="cls-1" d="M66.34,90.12q-3.75-3.66-4-10.42l-.06-1.43q0-7.16,3.75-11.28t10.39-4.12Q83.27,62.86,87,67t3.69,11v1.2a1.33,1.33,0,0,1-.4,1,1.4,1.4,0,0,1-1,.4h-19V81A8.88,8.88,0,0,0,72,86.31a5.39,5.39,0,0,0,4.5,2.09,6.46,6.46,0,0,0,5.33-2.63,3.11,3.11,0,0,1,.8-.77,2.37,2.37,0,0,1,1-.14h5a1.42,1.42,0,0,1,.89.29,1,1,0,0,1,.37.8,5.33,5.33,0,0,1-1.63,3.24,13.52,13.52,0,0,1-4.67,3.24,16.93,16.93,0,0,1-7,1.37Q70.09,93.78,66.34,90.12ZM82.75,75.69v-.11a8.2,8.2,0,0,0-1.69-5.41,5.68,5.68,0,0,0-4.61-2,5.59,5.59,0,0,0-4.58,2,8.29,8.29,0,0,0-1.66,5.41v.11Z"/><path class="cls-1" d="M112.36,92.81a1.32,1.32,0,0,1-.4-1V69.56h-4.64a1.37,1.37,0,0,1-1.37-1.37V64.81a1.37,1.37,0,0,1,1.37-1.37H112V61.14q0-5.21,2.81-7.76t8.48-2.55h4a1.37,1.37,0,0,1,1.37,1.37v3.38A1.37,1.37,0,0,1,127.19,57h-3.67A3.93,3.93,0,0,0,120.38,58a5.18,5.18,0,0,0-.92,3.38v2h7.16A1.37,1.37,0,0,1,128,64.81v3.38a1.37,1.37,0,0,1-1.37,1.37h-7.16V91.84a1.38,1.38,0,0,1-.37,1,1.3,1.3,0,0,1-1,.4h-4.75A1.32,1.32,0,0,1,112.36,92.81Z"/><path class="cls-1" d="M135.26,90.35q-3-3.44-3-9.45V64.81a1.3,1.3,0,0,1,.4-1,1.38,1.38,0,0,1,1-.37h5.15a1.37,1.37,0,0,1,1.38,1.37V80.56q0,7,6.13,7A6.12,6.12,0,0,0,151,85.71a7.3,7.3,0,0,0,1.75-5.15V64.81a1.3,1.3,0,0,1,.4-1,1.38,1.38,0,0,1,1-.37h5.1a1.28,1.28,0,0,1,1.38,1.37v27a1.38,1.38,0,0,1-.37,1,1.3,1.3,0,0,1-1,.4h-4.75a1.37,1.37,0,0,1-1.37-1.37V89.49q-3.15,4.29-9.51,4.29A10.51,10.51,0,0,1,135.26,90.35Z"/><path class="cls-1" d="M173.8,90.49q-2.64-2.72-2.63-8V69.56h-4.52a1.37,1.37,0,0,1-1.37-1.37V64.81a1.37,1.37,0,0,1,1.38-1.37h4.52V53.93a1.3,1.3,0,0,1,.4-1,1.38,1.38,0,0,1,1-.37h4.75a1.28,1.28,0,0,1,1.37,1.37v9.51h7.16a1.37,1.37,0,0,1,1.37,1.37v3.38a1.37,1.37,0,0,1-1.37,1.37h-7.16V81.87a6.62,6.62,0,0,0,.86,3.72,3.15,3.15,0,0,0,2.81,1.26h4a1.28,1.28,0,0,1,1.38,1.37v3.61a1.38,1.38,0,0,1-.37,1,1.3,1.3,0,0,1-1,.4h-4.7Q176.44,93.21,173.8,90.49Z"/><path class="cls-1" d="M195.57,90.35q-3-3.44-3-9.45V64.81a1.3,1.3,0,0,1,.4-1,1.38,1.38,0,0,1,1-.37h5.15a1.37,1.37,0,0,1,1.38,1.37V80.56q0,7,6.13,7a6.12,6.12,0,0,0,4.72-1.89A7.3,7.3,0,0,0,213,80.56V64.81a1.3,1.3,0,0,1,.4-1,1.38,1.38,0,0,1,1-.37h5.1a1.28,1.28,0,0,1,1.38,1.37v27a1.38,1.38,0,0,1-.37,1,1.3,1.3,0,0,1-1,.4h-4.75a1.37,1.37,0,0,1-1.37-1.37V89.49q-3.15,4.29-9.51,4.29A10.51,10.51,0,0,1,195.57,90.35Z"/><path class="cls-1" d="M228.84,92.81a1.32,1.32,0,0,1-.4-1v-27a1.4,1.4,0,0,1,.4-1,1.33,1.33,0,0,1,1-.4h4.7a1.37,1.37,0,0,1,1.43,1.43v2.35a9.72,9.72,0,0,1,8.25-3.78h2.41A1.28,1.28,0,0,1,248,64.81V69a1.38,1.38,0,0,1-.37,1,1.3,1.3,0,0,1-1,.4h-4.52a5.35,5.35,0,0,0-5.78,5.78V91.84a1.37,1.37,0,0,1-1.37,1.37h-5.1A1.32,1.32,0,0,1,228.84,92.81Z"/><path class="cls-1" d="M254.75,90.12q-3.75-3.66-4-10.42l-.06-1.43q0-7.16,3.75-11.28t10.39-4.12q6.81,0,10.51,4.12t3.69,11v1.2a1.33,1.33,0,0,1-.4,1,1.4,1.4,0,0,1-1,.4h-19V81a8.88,8.88,0,0,0,1.75,5.3,5.39,5.39,0,0,0,4.5,2.09,6.46,6.46,0,0,0,5.33-2.63A3.11,3.11,0,0,1,271,85a2.37,2.37,0,0,1,1-.14h5a1.42,1.42,0,0,1,.89.29,1,1,0,0,1,.37.8,5.33,5.33,0,0,1-1.63,3.24A13.52,13.52,0,0,1,272,92.41a16.93,16.93,0,0,1-7,1.37Q258.5,93.78,254.75,90.12Zm16.41-14.43v-.11a8.2,8.2,0,0,0-1.69-5.41,5.68,5.68,0,0,0-4.61-2,5.59,5.59,0,0,0-4.58,2,8.29,8.29,0,0,0-1.66,5.41v.11Z"/><path class="cls-1" d="M285.19,92.81a1.32,1.32,0,0,1-.4-1V86.05a1.37,1.37,0,0,1,1.38-1.37h5.78a1.37,1.37,0,0,1,1.37,1.37v5.78a1.38,1.38,0,0,1-.37,1,1.3,1.3,0,0,1-1,.4h-5.78A1.32,1.32,0,0,1,285.19,92.81Z"/></g></g></svg>