<svg xmlns="http://www.w3.org/2000/svg" viewBox="0 0 304.55 58.01"><defs><style>.cls-1{fill:#707070;}</style></defs><title>xhosa</title><g id="Layer_2" data-name="Layer 2"><g id="Layer_2-2" data-name="Layer 2"><path class="cls-1" d="M51.34,2.27A4.76,4.76,0,0,1,52.46,6L48.8,52.76a5.4,5.4,0,0,1-1.63,3.7,5.28,5.28,0,0,1-3.78,1.39,4.61,4.61,0,0,1-3.58-1.39,4.88,4.88,0,0,1-1.11-3.78L40.28,33H11.64L10,52.76a5.4,5.4,0,0,1-1.63,3.7,5.18,5.18,0,0,1-3.7,1.39,4.61,4.61,0,0,1-3.58-1.39A4.87,4.87,0,0,1,0,52.68L3.76,5.89A5.33,5.33,0,0,1,5.35,2.23,5.23,5.23,0,0,1,9.09.88a4.61,4.61,0,0,1,3.58,1.39A4.76,4.76,0,0,1,13.78,6L12.27,24.75H40.92L42.43,5.89A5.33,5.33,0,0,1,44,2.23,5.22,5.22,0,0,1,47.76.88,4.61,4.61,0,0,1,51.34,2.27Z"/><path class="cls-1" d="M61.13,56.66a4.13,4.13,0,0,1-1.19-3.58L63.76,5.49A4.5,4.5,0,0,1,65.43,2,5.74,5.74,0,0,1,69,.88,5.21,5.21,0,0,1,72.51,2,3.92,3.92,0,0,1,73.7,5.49L69.88,53.08a4.71,4.71,0,0,1-1.67,3.58,5.61,5.61,0,0,1-3.58,1.19A5.1,5.1,0,0,1,61.13,56.66Z"/><path class="cls-1" d="M110.78,21.09q3.9,3.58,3.9,10.82,0,1.51-.08,2.31l-1.51,19a4.89,4.89,0,0,1-1.47,3.42,5.07,5.07,0,0,1-3.54,1.19,4.32,4.32,0,0,1-3.3-1.31,4.23,4.23,0,0,1-1.07-3.38l.08-1.51a11.53,11.53,0,0,1-4.46,4.69A12.7,12.7,0,0,1,92.8,58a15.7,15.7,0,0,1-6.88-1.47,11.86,11.86,0,0,1-4.81-4.06,10.18,10.18,0,0,1-1.75-5.85,10.62,10.62,0,0,1,2.27-7.12q2.27-2.67,7.28-3.9a58.08,58.08,0,0,1,13.37-1.23h2.87l.08-1.51q.32-4-1.51-5.89t-5.81-1.91q-4.7,0-10.74,3.1a4.75,4.75,0,0,1-2,.48,3.17,3.17,0,0,1-2.39-1,3.37,3.37,0,0,1-1-2.43,4.11,4.11,0,0,1,.64-2.11,5.15,5.15,0,0,1,1.83-1.79,25.47,25.47,0,0,1,6.76-2.79,31,31,0,0,1,8-1Q106.88,17.51,110.78,21.09Zm-9.11,27.1a10.59,10.59,0,0,0,2.9-6.8l.16-1.75h-2.23a44.74,44.74,0,0,0-8,.56,7.76,7.76,0,0,0-4.18,1.87,4.87,4.87,0,0,0-1.27,3.54,4.73,4.73,0,0,0,1.71,3.82,6.9,6.9,0,0,0,4.58,1.43A8.47,8.47,0,0,0,101.67,48.18Z"/><path class="cls-1" d="M156.18,19.77A15.1,15.1,0,0,1,162,26.3a22.61,22.61,0,0,1,2.07,10,26.38,26.38,0,0,1-2.31,11.3,18,18,0,0,1-6.53,7.68A17.26,17.26,0,0,1,145.64,58a15.29,15.29,0,0,1-7.48-1.75,12.64,12.64,0,0,1-5-5L133,53.08a5,5,0,0,1-1.59,3.5,5.31,5.31,0,0,1-3.66,1.27,4.24,4.24,0,0,1-4.62-4.77l3.82-47.67a4.22,4.22,0,0,1,1.63-3.3A5.89,5.89,0,0,1,132.35.88a4.63,4.63,0,0,1,3.42,1.19,4.06,4.06,0,0,1,1.11,3.18l-1.51,18.22a12.61,12.61,0,0,1,5.13-4.42,16,16,0,0,1,7-1.55A16.45,16.45,0,0,1,156.18,19.77Zm-4.77,26.9q2.75-3.62,2.75-9.91,0-5.57-2.55-8.59a8.94,8.94,0,0,0-7.24-3,8.81,8.81,0,0,0-7.44,3.66q-2.75,3.66-2.75,9.87,0,5.73,2.51,8.67a9.92,9.92,0,0,0,14.72-.68Z"/><path class="cls-1" d="M201.58,21.09q3.9,3.58,3.9,10.82,0,1.51-.08,2.31l-1.51,19a4.89,4.89,0,0,1-1.47,3.42,5.07,5.07,0,0,1-3.54,1.19,4.32,4.32,0,0,1-3.3-1.31,4.23,4.23,0,0,1-1.07-3.38l.08-1.51a11.53,11.53,0,0,1-4.46,4.69A12.7,12.7,0,0,1,183.59,58a15.7,15.7,0,0,1-6.88-1.47,11.86,11.86,0,0,1-4.81-4.06,10.18,10.18,0,0,1-1.75-5.85,10.62,10.62,0,0,1,2.27-7.12q2.27-2.67,7.28-3.9a58.08,58.08,0,0,1,13.37-1.23h2.87l.08-1.51q.32-4-1.51-5.89t-5.81-1.91q-4.7,0-10.74,3.1a4.75,4.75,0,0,1-2,.48,3.17,3.17,0,0,1-2.39-1,3.37,3.37,0,0,1-1-2.43,4.11,4.11,0,0,1,.64-2.11,5.15,5.15,0,0,1,1.83-1.79,25.47,25.47,0,0,1,6.76-2.79,31,31,0,0,1,8-1Q197.68,17.51,201.58,21.09Zm-9.11,27.1a10.59,10.59,0,0,0,2.9-6.8l.16-1.75H193.3a44.74,44.74,0,0,0-8,.56,7.76,7.76,0,0,0-4.18,1.87,4.87,4.87,0,0,0-1.27,3.54,4.73,4.73,0,0,0,1.71,3.82,6.9,6.9,0,0,0,4.58,1.43A8.47,8.47,0,0,0,192.47,48.18Z"/><path class="cls-1" d="M227.52,42.57a9.36,9.36,0,0,0-.08,1.43,7.12,7.12,0,0,0,1.47,4.85,5.27,5.27,0,0,0,4.18,1.67,14.68,14.68,0,0,0,1.71-.12,14.2,14.2,0,0,1,1.63-.12,2,2,0,0,1,1.75.88,4,4,0,0,1,.64,2.39A3.55,3.55,0,0,1,237.07,57q-1.75,1-6.13,1-6.45,0-9.95-3.42t-3.5-9.71a21,21,0,0,1,.08-2.15l1.27-16.71h-3.9a4.75,4.75,0,0,1-3.1-.92,3.25,3.25,0,0,1-1.11-2.67q0-3.9,4.7-3.9h4.06l.56-7.32a4.72,4.72,0,0,1,1.59-3.38,5.53,5.53,0,0,1,3.74-1.23,4.8,4.8,0,0,1,3.54,1.23A4.23,4.23,0,0,1,230,11.22l-.56,7.24h6.68a4.6,4.6,0,0,1,3.06.92A3.21,3.21,0,0,1,240.25,22q0,4-4.62,4h-6.84Z"/><path class="cls-1" d="M278.09,21q3.38,3.54,3.38,10.46,0,1.51-.08,2.31L279.8,53.08a4.94,4.94,0,0,1-1.59,3.5,5.31,5.31,0,0,1-3.66,1.27A4.84,4.84,0,0,1,271,56.58a4.27,4.27,0,0,1-1.11-3.5l1.59-18.86q.64-8.83-7-8.83A8.93,8.93,0,0,0,257.6,28a11.8,11.8,0,0,0-2.87,7.32l-1.51,17.75a4.61,4.61,0,0,1-1.55,3.5,5.46,5.46,0,0,1-3.7,1.27,4.84,4.84,0,0,1-3.58-1.27,4.26,4.26,0,0,1-1.11-3.5l3.82-47.67a4.27,4.27,0,0,1,1.59-3.3A5.84,5.84,0,0,1,252.51.88a4.66,4.66,0,0,1,3.38,1.19A4,4,0,0,1,257,5.25l-1.43,18A13.36,13.36,0,0,1,260.94,19a17.41,17.41,0,0,1,7.24-1.47Q274.71,17.51,278.09,21Z"/><path class="cls-1" d="M291,56.66a4.13,4.13,0,0,1-1.19-3.58l2.55-30.8A4.5,4.5,0,0,1,294,18.82a5.86,5.86,0,0,1,3.66-1.15,5.06,5.06,0,0,1,3.46,1.15,4,4,0,0,1,1.15,3.46l-2.55,30.8a4.71,4.71,0,0,1-1.67,3.58,5.61,5.61,0,0,1-3.58,1.19A5.1,5.1,0,0,1,291,56.66Zm3.34-47.55a5,5,0,0,1-1.59-3.86,4.89,4.89,0,0,1,1.59-3.82,7.1,7.1,0,0,1,8.55,0,4.83,4.83,0,0,1,1.63,3.82A5,5,0,0,1,303,9.11a7,7,0,0,1-8.59,0Z"/></g></g></svg>